<?xml version="1.0" encoding="UTF-8" standalone="no"?><svg xmlns="http://www.w3.org/2000/svg" xmlns:xlink="http://www.w3.org/1999/xlink" contentScriptType="application/ecmascript" contentStyleType="text/css" height="588px" preserveAspectRatio="none" style="width:1366px;height:588px;background:#FFFFFF;" version="1.1" viewBox="0 0 1366 588" width="1366px" zoomAndPan="magnify"><defs><filter height="300%" id="f1tye0b78qktbx" width="300%" x="-1" y="-1"><feGaussianBlur result="blurOut" stdDeviation="2.0"/><feColorMatrix in="blurOut" result="blurOut2" type="matrix" values="0 0 0 0 0 0 0 0 0 0 0 0 0 0 0 0 0 0 .4 0"/><feOffset dx="4.0" dy="4.0" in="blurOut2" result="blurOut3"/><feBlend in="SourceGraphic" in2="blurOut3" mode="normal"/></filter></defs><g><!--MD5=[8abb8a37461013dd54f8b6ff9203b957]
class Supermarket--><rect codeLine="1" fill="#FEFECE" filter="url(#f1tye0b78qktbx)" height="103.3438" id="Supermarket" style="stroke:#A80036;stroke-width:1.5;" width="167" x="556" y="7"/><ellipse cx="599.8" cy="23" fill="#ADD1B2" rx="11" ry="11" style="stroke:#A80036;stroke-width:1.0;"/><path d="M602.5656,18.875 Q602.7219,18.6563 602.9094,18.5469 Q603.0969,18.4375 603.3156,18.4375 Q603.6906,18.4375 603.925,18.6953 Q604.1594,18.9531 604.1594,19.5625 L604.1594,21.0156 Q604.1594,21.625 603.925,21.8906 Q603.6906,22.1563 603.3156,22.1563 Q602.9719,22.1563 602.7688,21.9531 Q602.5656,21.7656 602.4563,21.25 Q602.4094,20.8906 602.2219,20.7031 Q601.8938,20.3281 601.2844,20.1094 Q600.675,19.8906 600.05,19.8906 Q599.2844,19.8906 598.6516,20.2188 Q598.0188,20.5469 597.5266,21.2969 Q597.0344,22.0469 597.0344,23.0781 L597.0344,24.1719 Q597.0344,25.4063 597.925,26.2266 Q598.8156,27.0469 600.4094,27.0469 Q601.3469,27.0469 602.0031,26.7969 Q602.3938,26.6406 602.8156,26.2031 Q603.0813,25.9375 603.2297,25.8594 Q603.3781,25.7813 603.5813,25.7813 Q603.9094,25.7813 604.1672,26.0391 Q604.425,26.2969 604.425,26.6406 Q604.425,26.9844 604.0813,27.3906 Q603.5813,27.9688 602.7844,28.2969 Q601.7063,28.75 600.4094,28.75 Q598.8938,28.75 597.6906,28.125 Q596.7063,27.625 596.0188,26.5547 Q595.3313,25.4844 595.3313,24.2031 L595.3313,23.0469 Q595.3313,21.7188 595.9484,20.5703 Q596.5656,19.4219 597.6594,18.8047 Q598.7531,18.1875 599.9875,18.1875 Q600.7219,18.1875 601.3703,18.3516 Q602.0188,18.5156 602.5656,18.875 Z " fill="#000000"/><text fill="#000000" font-family="sans-serif" font-size="12" lengthAdjust="spacing" textLength="71" x="620.2" y="27.9102">Supermarket</text><line style="stroke:#A80036;stroke-width:1.5;" x1="557" x2="722" y1="39" y2="39"/><rect fill="none" height="6" style="stroke:#C82930;stroke-width:1.0;" width="6" x="564" y="47"/><text fill="#000000" font-family="sans-serif" font-size="11" lengthAdjust="spacing" text-decoration="underline" textLength="141" x="576" y="54.4189">CLOSING TIME: double = 20.0</text><line style="stroke:#A80036;stroke-width:1.5;" x1="557" x2="722" y1="60.8359" y2="60.8359"/><rect fill="#F24D5C" height="6" style="stroke:#C82930;stroke-width:1.0;" width="6" x="564" y="68.8359"/><text fill="#000000" font-family="sans-serif" font-size="11" lengthAdjust="spacing" textLength="69" x="576" y="76.2549">Supermarket()</text><rect fill="#F24D5C" height="6" style="stroke:#C82930;stroke-width:1.0;" width="6" x="564" y="82.6719"/><text fill="#000000" font-family="sans-serif" font-size="11" lengthAdjust="spacing" textLength="49" x="576" y="90.0908">set(): void</text><ellipse cx="567" cy="99.5078" fill="#84BE84" rx="3" ry="3" style="stroke:#038048;stroke-width:1.0;"/><text fill="#000000" font-family="sans-serif" font-size="11" lengthAdjust="spacing" text-decoration="underline" textLength="99" x="576" y="103.9268">main(srgs : String"[]"</text><!--MD5=[0851c38ccebc5bf68e448c5e4cf66cff]
class CountryFactory--><rect codeLine="8" fill="#FEFECE" filter="url(#f1tye0b78qktbx)" height="112.7891" id="CountryFactory" style="stroke:#A80036;stroke-width:1.5;" width="159" x="372" y="208"/><ellipse cx="401.85" cy="235.6406" fill="#ADD1B2" rx="11" ry="11" style="stroke:#A80036;stroke-width:1.0;"/><path d="M404.6156,231.5156 Q404.7719,231.2969 404.9594,231.1875 Q405.1469,231.0781 405.3656,231.0781 Q405.7406,231.0781 405.975,231.3359 Q406.2094,231.5938 406.2094,232.2031 L406.2094,233.6563 Q406.2094,234.2656 405.975,234.5313 Q405.7406,234.7969 405.3656,234.7969 Q405.0219,234.7969 404.8188,234.5938 Q404.6156,234.4063 404.5063,233.8906 Q404.4594,233.5313 404.2719,233.3438 Q403.9438,232.9688 403.3344,232.75 Q402.725,232.5313 402.1,232.5313 Q401.3344,232.5313 400.7016,232.8594 Q400.0688,233.1875 399.5766,233.9375 Q399.0844,234.6875 399.0844,235.7188 L399.0844,236.8125 Q399.0844,238.0469 399.975,238.8672 Q400.8656,239.6875 402.4594,239.6875 Q403.3969,239.6875 404.0531,239.4375 Q404.4438,239.2813 404.8656,238.8438 Q405.1313,238.5781 405.2797,238.5 Q405.4281,238.4219 405.6313,238.4219 Q405.9594,238.4219 406.2172,238.6797 Q406.475,238.9375 406.475,239.2813 Q406.475,239.625 406.1313,240.0313 Q405.6313,240.6094 404.8344,240.9375 Q403.7563,241.3906 402.4594,241.3906 Q400.9438,241.3906 399.7406,240.7656 Q398.7563,240.2656 398.0688,239.1953 Q397.3813,238.125 397.3813,236.8438 L397.3813,235.6875 Q397.3813,234.3594 397.9984,233.2109 Q398.6156,232.0625 399.7094,231.4453 Q400.8031,230.8281 402.0375,230.8281 Q402.7719,230.8281 403.4203,230.9922 Q404.0688,231.1563 404.6156,231.5156 Z " fill="#000000"/><text fill="#000000" font-family="sans-serif" font-size="12" font-style="italic" lengthAdjust="spacing" textLength="98" x="417.15" y="225.457">«abstractFactory»</text><text fill="#000000" font-family="sans-serif" font-size="12" font-style="italic" lengthAdjust="spacing" textLength="64" x="434.15" y="240.5508">«singleton»</text><text fill="#000000" font-family="sans-serif" font-size="12" lengthAdjust="spacing" textLength="81" x="425.65" y="255.6445">CountryFactory</text><line style="stroke:#A80036;stroke-width:1.5;" x1="373" x2="530" y1="263.2813" y2="263.2813"/><line style="stroke:#A80036;stroke-width:1.5;" x1="373" x2="530" y1="271.2813" y2="271.2813"/><ellipse cx="383" cy="282.2813" fill="#84BE84" rx="3" ry="3" style="stroke:#038048;stroke-width:1.0;"/><text fill="#000000" font-family="sans-serif" font-size="11" lengthAdjust="spacing" text-decoration="underline" textLength="133" x="392" y="286.7002">instance() : CountryFactory</text><ellipse cx="383" cy="296.1172" fill="#84BE84" rx="3" ry="3" style="stroke:#038048;stroke-width:1.0;"/><text fill="#000000" font-family="sans-serif" font-size="11" lengthAdjust="spacing" textLength="88" x="392" y="300.5361">getTicket() : Ticket</text><ellipse cx="383" cy="309.9531" fill="#84BE84" rx="3" ry="3" style="stroke:#038048;stroke-width:1.0;"/><text fill="#000000" font-family="sans-serif" font-size="11" lengthAdjust="spacing" textLength="84" x="392" y="314.3721">getMenu() : Menu</text><!--MD5=[ac6bea31e13c94c7baa9ad18feb7405e]
class Ticket--><rect codeLine="14" fill="#FEFECE" filter="url(#f1tye0b78qktbx)" height="172.5234" id="Ticket" style="stroke:#A80036;stroke-width:1.5;" width="357" x="303" y="402"/><ellipse cx="461.25" cy="418" fill="#ADD1B2" rx="11" ry="11" style="stroke:#A80036;stroke-width:1.0;"/><path d="M464.0156,413.875 Q464.1719,413.6563 464.3594,413.5469 Q464.5469,413.4375 464.7656,413.4375 Q465.1406,413.4375 465.375,413.6953 Q465.6094,413.9531 465.6094,414.5625 L465.6094,416.0156 Q465.6094,416.625 465.375,416.8906 Q465.1406,417.1563 464.7656,417.1563 Q464.4219,417.1563 464.2188,416.9531 Q464.0156,416.7656 463.9063,416.25 Q463.8594,415.8906 463.6719,415.7031 Q463.3438,415.3281 462.7344,415.1094 Q462.125,414.8906 461.5,414.8906 Q460.7344,414.8906 460.1016,415.2188 Q459.4688,415.5469 458.9766,416.2969 Q458.4844,417.0469 458.4844,418.0781 L458.4844,419.1719 Q458.4844,420.4063 459.375,421.2266 Q460.2656,422.0469 461.8594,422.0469 Q462.7969,422.0469 463.4531,421.7969 Q463.8438,421.6406 464.2656,421.2031 Q464.5313,420.9375 464.6797,420.8594 Q464.8281,420.7813 465.0313,420.7813 Q465.3594,420.7813 465.6172,421.0391 Q465.875,421.2969 465.875,421.6406 Q465.875,421.9844 465.5313,422.3906 Q465.0313,422.9688 464.2344,423.2969 Q463.1563,423.75 461.8594,423.75 Q460.3438,423.75 459.1406,423.125 Q458.1563,422.625 457.4688,421.5547 Q456.7813,420.4844 456.7813,419.2031 L456.7813,418.0469 Q456.7813,416.7188 457.3984,415.5703 Q458.0156,414.4219 459.1094,413.8047 Q460.2031,413.1875 461.4375,413.1875 Q462.1719,413.1875 462.8203,413.3516 Q463.4688,413.5156 464.0156,413.875 Z " fill="#000000"/><text fill="#000000" font-family="sans-serif" font-size="12" lengthAdjust="spacing" textLength="32" x="481.75" y="422.9102">Ticket</text><line style="stroke:#A80036;stroke-width:1.5;" x1="304" x2="659" y1="434" y2="434"/><line style="stroke:#A80036;stroke-width:1.5;" x1="304" x2="659" y1="442" y2="442"/><ellipse cx="314" cy="453" fill="#84BE84" rx="3" ry="3" style="stroke:#038048;stroke-width:1.0;"/><text fill="#000000" font-family="sans-serif" font-size="11" lengthAdjust="spacing" textLength="100" x="323" y="457.4189">add(line : Line) : void</text><ellipse cx="314" cy="466.8359" fill="#84BE84" rx="3" ry="3" style="stroke:#038048;stroke-width:1.0;"/><text fill="#000000" font-family="sans-serif" font-size="11" lengthAdjust="spacing" textLength="50" x="323" y="471.2549">lines() : int</text><ellipse cx="314" cy="480.6719" fill="#84BE84" rx="3" ry="3" style="stroke:#038048;stroke-width:1.0;"/><text fill="#000000" font-family="sans-serif" font-size="11" lengthAdjust="spacing" textLength="131" x="323" y="485.0908">getLine (number : int) : Line</text><ellipse cx="314" cy="494.5078" fill="#84BE84" rx="3" ry="3" style="stroke:#038048;stroke-width:1.0;"/><text fill="#000000" font-family="sans-serif" font-size="11" lengthAdjust="spacing" textLength="63" x="323" y="498.9268">close() : void</text><ellipse cx="314" cy="508.3438" fill="#84BE84" rx="3" ry="3" style="stroke:#038048;stroke-width:1.0;"/><text fill="#000000" font-family="sans-serif" font-size="11" lengthAdjust="spacing" textLength="82" x="323" y="512.7627">toString() : String</text><ellipse cx="314" cy="522.1797" fill="#84BE84" rx="3" ry="3" style="stroke:#038048;stroke-width:1.0;"/><text fill="#000000" font-family="sans-serif" font-size="11" lengthAdjust="spacing" textLength="145" x="323" y="526.5986">Ticket(header, footer : Footer)</text><ellipse cx="314" cy="536.0156" fill="#84BE84" rx="3" ry="3" style="stroke:#038048;stroke-width:1.0;"/><text fill="#000000" font-family="sans-serif" font-size="11" lengthAdjust="spacing" textLength="309" x="323" y="540.4346">setLineTicketOperation (lineTicketOperation : TicketVisitor) : void</text><ellipse cx="314" cy="549.8516" fill="#84BE84" rx="3" ry="3" style="stroke:#038048;stroke-width:1.0;"/><text fill="#000000" font-family="sans-serif" font-size="11" lengthAdjust="spacing" textLength="331" x="323" y="554.2705">setGlobalTicketOperation( globalTicketOperation : TicketVisitor) : void</text><ellipse cx="314" cy="563.6875" fill="#84BE84" rx="3" ry="3" style="stroke:#038048;stroke-width:1.0;"/><text fill="#000000" font-family="sans-serif" font-size="11" lengthAdjust="spacing" textLength="58" x="323" y="568.1064">open(): void</text><!--MD5=[66ea19249c0e30bda5c71044d083f284]
class SpanishFactory--><rect codeLine="26" fill="#FEFECE" filter="url(#f1tye0b78qktbx)" height="61.8359" id="SpanishFactory" style="stroke:#A80036;stroke-width:1.5;" width="117" x="7" y="457.5"/><ellipse cx="22" cy="473.5" fill="#ADD1B2" rx="11" ry="11" style="stroke:#A80036;stroke-width:1.0;"/><path d="M24.7656,469.375 Q24.9219,469.1563 25.1094,469.0469 Q25.2969,468.9375 25.5156,468.9375 Q25.8906,468.9375 26.125,469.1953 Q26.3594,469.4531 26.3594,470.0625 L26.3594,471.5156 Q26.3594,472.125 26.125,472.3906 Q25.8906,472.6563 25.5156,472.6563 Q25.1719,472.6563 24.9688,472.4531 Q24.7656,472.2656 24.6563,471.75 Q24.6094,471.3906 24.4219,471.2031 Q24.0938,470.8281 23.4844,470.6094 Q22.875,470.3906 22.25,470.3906 Q21.4844,470.3906 20.8516,470.7188 Q20.2188,471.0469 19.7266,471.7969 Q19.2344,472.5469 19.2344,473.5781 L19.2344,474.6719 Q19.2344,475.9063 20.125,476.7266 Q21.0156,477.5469 22.6094,477.5469 Q23.5469,477.5469 24.2031,477.2969 Q24.5938,477.1406 25.0156,476.7031 Q25.2813,476.4375 25.4297,476.3594 Q25.5781,476.2813 25.7813,476.2813 Q26.1094,476.2813 26.3672,476.5391 Q26.625,476.7969 26.625,477.1406 Q26.625,477.4844 26.2813,477.8906 Q25.7813,478.4688 24.9844,478.7969 Q23.9063,479.25 22.6094,479.25 Q21.0938,479.25 19.8906,478.625 Q18.9063,478.125 18.2188,477.0547 Q17.5313,475.9844 17.5313,474.7031 L17.5313,473.5469 Q17.5313,472.2188 18.1484,471.0703 Q18.7656,469.9219 19.8594,469.3047 Q20.9531,468.6875 22.1875,468.6875 Q22.9219,468.6875 23.5703,468.8516 Q24.2188,469.0156 24.7656,469.375 Z " fill="#000000"/><text fill="#000000" font-family="sans-serif" font-size="12" lengthAdjust="spacing" textLength="85" x="36" y="478.4102">SpanishFactory</text><line style="stroke:#A80036;stroke-width:1.5;" x1="8" x2="123" y1="489.5" y2="489.5"/><line style="stroke:#A80036;stroke-width:1.5;" x1="8" x2="123" y1="497.5" y2="497.5"/><ellipse cx="18" cy="508.5" fill="#84BE84" rx="3" ry="3" style="stroke:#038048;stroke-width:1.0;"/><text fill="#000000" font-family="sans-serif" font-size="11" lengthAdjust="spacing" textLength="84" x="27" y="512.9189">SpanishFactory()</text><!--MD5=[e11194dd1ea7fe0466aeb1d52ad423c1]
class FrenchFactory--><rect codeLine="30" fill="#FEFECE" filter="url(#f1tye0b78qktbx)" height="61.8359" id="FrenchFactory" style="stroke:#A80036;stroke-width:1.5;" width="109" x="159" y="457.5"/><ellipse cx="174" cy="473.5" fill="#ADD1B2" rx="11" ry="11" style="stroke:#A80036;stroke-width:1.0;"/><path d="M176.7656,469.375 Q176.9219,469.1563 177.1094,469.0469 Q177.2969,468.9375 177.5156,468.9375 Q177.8906,468.9375 178.125,469.1953 Q178.3594,469.4531 178.3594,470.0625 L178.3594,471.5156 Q178.3594,472.125 178.125,472.3906 Q177.8906,472.6563 177.5156,472.6563 Q177.1719,472.6563 176.9688,472.4531 Q176.7656,472.2656 176.6563,471.75 Q176.6094,471.3906 176.4219,471.2031 Q176.0938,470.8281 175.4844,470.6094 Q174.875,470.3906 174.25,470.3906 Q173.4844,470.3906 172.8516,470.7188 Q172.2188,471.0469 171.7266,471.7969 Q171.2344,472.5469 171.2344,473.5781 L171.2344,474.6719 Q171.2344,475.9063 172.125,476.7266 Q173.0156,477.5469 174.6094,477.5469 Q175.5469,477.5469 176.2031,477.2969 Q176.5938,477.1406 177.0156,476.7031 Q177.2813,476.4375 177.4297,476.3594 Q177.5781,476.2813 177.7813,476.2813 Q178.1094,476.2813 178.3672,476.5391 Q178.625,476.7969 178.625,477.1406 Q178.625,477.4844 178.2813,477.8906 Q177.7813,478.4688 176.9844,478.7969 Q175.9063,479.25 174.6094,479.25 Q173.0938,479.25 171.8906,478.625 Q170.9063,478.125 170.2188,477.0547 Q169.5313,475.9844 169.5313,474.7031 L169.5313,473.5469 Q169.5313,472.2188 170.1484,471.0703 Q170.7656,469.9219 171.8594,469.3047 Q172.9531,468.6875 174.1875,468.6875 Q174.9219,468.6875 175.5703,468.8516 Q176.2188,469.0156 176.7656,469.375 Z " fill="#000000"/><text fill="#000000" font-family="sans-serif" font-size="12" lengthAdjust="spacing" textLength="77" x="188" y="478.4102">FrenchFactory</text><line style="stroke:#A80036;stroke-width:1.5;" x1="160" x2="267" y1="489.5" y2="489.5"/><line style="stroke:#A80036;stroke-width:1.5;" x1="160" x2="267" y1="497.5" y2="497.5"/><ellipse cx="170" cy="508.5" fill="#84BE84" rx="3" ry="3" style="stroke:#038048;stroke-width:1.0;"/><text fill="#000000" font-family="sans-serif" font-size="11" lengthAdjust="spacing" textLength="79" x="179" y="512.9189">FrenchFactory()</text><!--MD5=[f0268dd29ee89052933f031546cb1cab]
class Menu--><rect codeLine="34" fill="#FEFECE" filter="url(#f1tye0b78qktbx)" height="153.0391" id="Menu" style="stroke:#A80036;stroke-width:1.5;" width="161" x="987" y="188"/><ellipse cx="1021.35" cy="208.0938" fill="#ADD1B2" rx="11" ry="11" style="stroke:#A80036;stroke-width:1.0;"/><path d="M1024.1156,203.9688 Q1024.2719,203.75 1024.4594,203.6406 Q1024.6469,203.5313 1024.8656,203.5313 Q1025.2406,203.5313 1025.475,203.7891 Q1025.7094,204.0469 1025.7094,204.6563 L1025.7094,206.1094 Q1025.7094,206.7188 1025.475,206.9844 Q1025.2406,207.25 1024.8656,207.25 Q1024.5219,207.25 1024.3188,207.0469 Q1024.1156,206.8594 1024.0063,206.3438 Q1023.9594,205.9844 1023.7719,205.7969 Q1023.4438,205.4219 1022.8344,205.2031 Q1022.225,204.9844 1021.6,204.9844 Q1020.8344,204.9844 1020.2016,205.3125 Q1019.5688,205.6406 1019.0766,206.3906 Q1018.5844,207.1406 1018.5844,208.1719 L1018.5844,209.2656 Q1018.5844,210.5 1019.475,211.3203 Q1020.3656,212.1406 1021.9594,212.1406 Q1022.8969,212.1406 1023.5531,211.8906 Q1023.9438,211.7344 1024.3656,211.2969 Q1024.6313,211.0313 1024.7797,210.9531 Q1024.9281,210.875 1025.1313,210.875 Q1025.4594,210.875 1025.7172,211.1328 Q1025.975,211.3906 1025.975,211.7344 Q1025.975,212.0781 1025.6313,212.4844 Q1025.1313,213.0625 1024.3344,213.3906 Q1023.2563,213.8438 1021.9594,213.8438 Q1020.4438,213.8438 1019.2406,213.2188 Q1018.2563,212.7188 1017.5688,211.6484 Q1016.8813,210.5781 1016.8813,209.2969 L1016.8813,208.1406 Q1016.8813,206.8125 1017.4984,205.6641 Q1018.1156,204.5156 1019.2094,203.8984 Q1020.3031,203.2813 1021.5375,203.2813 Q1022.2719,203.2813 1022.9203,203.4453 Q1023.5688,203.6094 1024.1156,203.9688 Z " fill="#000000"/><text fill="#000000" font-family="sans-serif" font-size="12" font-style="italic" lengthAdjust="spacing" textLength="90" x="1037.65" y="205.457">«factoryMethod»</text><text fill="#000000" font-family="sans-serif" font-size="12" lengthAdjust="spacing" textLength="30" x="1067.65" y="220.5508">Menu</text><line style="stroke:#A80036;stroke-width:1.5;" x1="988" x2="1147" y1="228.1875" y2="228.1875"/><line style="stroke:#A80036;stroke-width:1.5;" x1="988" x2="1147" y1="236.1875" y2="236.1875"/><ellipse cx="998" cy="247.1875" fill="#84BE84" rx="3" ry="3" style="stroke:#038048;stroke-width:1.0;"/><text fill="#000000" font-family="sans-serif" font-size="11" lengthAdjust="spacing" textLength="34" x="1007" y="251.6064">Menu()</text><polygon fill="#FFFF44" points="998,256.0234,1002,260.0234,998,264.0234,994,260.0234" style="stroke:#B38D22;stroke-width:1.0;"/><text fill="#000000" font-family="sans-serif" font-size="11" lengthAdjust="spacing" textLength="102" x="1007" y="265.4424">setCommands() :void</text><polygon fill="#FFFF44" points="998,269.8594,1002,273.8594,998,277.8594,994,273.8594" style="stroke:#B38D22;stroke-width:1.0;"/><text fill="#000000" font-family="sans-serif" font-size="11" lengthAdjust="spacing" textLength="111" x="1007" y="279.2783">set(ticket: Ticket) : void</text><ellipse cx="998" cy="288.6953" fill="#84BE84" rx="3" ry="3" style="stroke:#038048;stroke-width:1.0;"/><text fill="#000000" font-family="sans-serif" font-size="11" lengthAdjust="spacing" textLength="135" x="1007" y="293.1143">execute( ticket: Ticket) :void</text><rect fill="#F24D5C" height="6" style="stroke:#C82930;stroke-width:1.0;" width="6" x="995" y="299.5313"/><text fill="#000000" font-family="sans-serif" font-size="11" lengthAdjust="spacing" textLength="59" x="1007" y="306.9502">write(): void</text><rect fill="#F24D5C" height="6" style="stroke:#C82930;stroke-width:1.0;" width="6" x="995" y="313.3672"/><text fill="#000000" font-family="sans-serif" font-size="11" lengthAdjust="spacing" textLength="74" x="1007" y="320.7861">getOption() : int</text><ellipse cx="998" cy="330.2031" fill="#84BE84" rx="3" ry="3" style="stroke:#038048;stroke-width:1.0;"/><text fill="#000000" font-family="sans-serif" font-size="11" lengthAdjust="spacing" textLength="87" x="1007" y="334.6221">closed() : boolean</text><!--MD5=[d233f96e9c58cc2e799a4b99873cf089]
class TicketBuilder--><rect codeLine="44" fill="#FEFECE" filter="url(#f1tye0b78qktbx)" height="83.8594" id="TicketBuilder" style="stroke:#A80036;stroke-width:1.5;" width="145" x="693" y="222.5"/><ellipse cx="726.9" cy="242.5938" fill="#ADD1B2" rx="11" ry="11" style="stroke:#A80036;stroke-width:1.0;"/><path d="M729.6656,238.4688 Q729.8219,238.25 730.0094,238.1406 Q730.1969,238.0313 730.4156,238.0313 Q730.7906,238.0313 731.025,238.2891 Q731.2594,238.5469 731.2594,239.1563 L731.2594,240.6094 Q731.2594,241.2188 731.025,241.4844 Q730.7906,241.75 730.4156,241.75 Q730.0719,241.75 729.8688,241.5469 Q729.6656,241.3594 729.5563,240.8438 Q729.5094,240.4844 729.3219,240.2969 Q728.9938,239.9219 728.3844,239.7031 Q727.775,239.4844 727.15,239.4844 Q726.3844,239.4844 725.7516,239.8125 Q725.1188,240.1406 724.6266,240.8906 Q724.1344,241.6406 724.1344,242.6719 L724.1344,243.7656 Q724.1344,245 725.025,245.8203 Q725.9156,246.6406 727.5094,246.6406 Q728.4469,246.6406 729.1031,246.3906 Q729.4938,246.2344 729.9156,245.7969 Q730.1813,245.5313 730.3297,245.4531 Q730.4781,245.375 730.6813,245.375 Q731.0094,245.375 731.2672,245.6328 Q731.525,245.8906 731.525,246.2344 Q731.525,246.5781 731.1813,246.9844 Q730.6813,247.5625 729.8844,247.8906 Q728.8063,248.3438 727.5094,248.3438 Q725.9938,248.3438 724.7906,247.7188 Q723.8063,247.2188 723.1188,246.1484 Q722.4313,245.0781 722.4313,243.7969 L722.4313,242.6406 Q722.4313,241.3125 723.0484,240.1641 Q723.6656,239.0156 724.7594,238.3984 Q725.8531,237.7813 727.0875,237.7813 Q727.8219,237.7813 728.4703,237.9453 Q729.1188,238.1094 729.6656,238.4688 Z " fill="#000000"/><text fill="#000000" font-family="sans-serif" font-size="12" font-style="italic" lengthAdjust="spacing" textLength="53" x="754.1" y="239.957">«builder»</text><text fill="#000000" font-family="sans-serif" font-size="12" lengthAdjust="spacing" textLength="71" x="745.1" y="255.0508">TicketBuilder</text><line style="stroke:#A80036;stroke-width:1.5;" x1="694" x2="837" y1="262.6875" y2="262.6875"/><line style="stroke:#A80036;stroke-width:1.5;" x1="694" x2="837" y1="270.6875" y2="270.6875"/><ellipse cx="704" cy="281.6875" fill="#84BE84" rx="3" ry="3" style="stroke:#038048;stroke-width:1.0;"/><text fill="#000000" font-family="sans-serif" font-size="11" lengthAdjust="spacing" text-decoration="underline" textLength="119" x="713" y="286.1064">instance() : TicketBuilder</text><ellipse cx="704" cy="295.5234" fill="#84BE84" rx="3" ry="3" style="stroke:#038048;stroke-width:1.0;"/><text fill="#000000" font-family="sans-serif" font-size="11" font-style="italic" lengthAdjust="spacing" textLength="73" x="713" y="299.9424">build() : Ticket</text><!--MD5=[34e551b54d759b8458017b8e7d8bd3e0]
class SpanishMenu--><rect codeLine="49" fill="#FEFECE" filter="url(#f1tye0b78qktbx)" height="61.8359" id="SpanishMenu" style="stroke:#A80036;stroke-width:1.5;" width="131" x="1221" y="457.5"/><ellipse cx="1246.35" cy="473.5" fill="#ADD1B2" rx="11" ry="11" style="stroke:#A80036;stroke-width:1.0;"/><path d="M1249.1156,469.375 Q1249.2719,469.1563 1249.4594,469.0469 Q1249.6469,468.9375 1249.8656,468.9375 Q1250.2406,468.9375 1250.475,469.1953 Q1250.7094,469.4531 1250.7094,470.0625 L1250.7094,471.5156 Q1250.7094,472.125 1250.475,472.3906 Q1250.2406,472.6563 1249.8656,472.6563 Q1249.5219,472.6563 1249.3188,472.4531 Q1249.1156,472.2656 1249.0063,471.75 Q1248.9594,471.3906 1248.7719,471.2031 Q1248.4438,470.8281 1247.8344,470.6094 Q1247.225,470.3906 1246.6,470.3906 Q1245.8344,470.3906 1245.2016,470.7188 Q1244.5688,471.0469 1244.0766,471.7969 Q1243.5844,472.5469 1243.5844,473.5781 L1243.5844,474.6719 Q1243.5844,475.9063 1244.475,476.7266 Q1245.3656,477.5469 1246.9594,477.5469 Q1247.8969,477.5469 1248.5531,477.2969 Q1248.9438,477.1406 1249.3656,476.7031 Q1249.6313,476.4375 1249.7797,476.3594 Q1249.9281,476.2813 1250.1313,476.2813 Q1250.4594,476.2813 1250.7172,476.5391 Q1250.975,476.7969 1250.975,477.1406 Q1250.975,477.4844 1250.6313,477.8906 Q1250.1313,478.4688 1249.3344,478.7969 Q1248.2563,479.25 1246.9594,479.25 Q1245.4438,479.25 1244.2406,478.625 Q1243.2563,478.125 1242.5688,477.0547 Q1241.8813,475.9844 1241.8813,474.7031 L1241.8813,473.5469 Q1241.8813,472.2188 1242.4984,471.0703 Q1243.1156,469.9219 1244.2094,469.3047 Q1245.3031,468.6875 1246.5375,468.6875 Q1247.2719,468.6875 1247.9203,468.8516 Q1248.5688,469.0156 1249.1156,469.375 Z " fill="#000000"/><text fill="#000000" font-family="sans-serif" font-size="12" lengthAdjust="spacing" textLength="76" x="1262.65" y="478.4102">SpanishMenu</text><line style="stroke:#A80036;stroke-width:1.5;" x1="1222" x2="1351" y1="489.5" y2="489.5"/><line style="stroke:#A80036;stroke-width:1.5;" x1="1222" x2="1351" y1="497.5" y2="497.5"/><polygon fill="#FFFF44" points="1232,503.5,1236,507.5,1232,511.5,1228,507.5" style="stroke:#B38D22;stroke-width:1.0;"/><text fill="#000000" font-family="sans-serif" font-size="11" lengthAdjust="spacing" textLength="105" x="1241" y="512.9189">setCommands() : void</text><!--MD5=[9cf0a19eb3ada64a8ac2711e77522272]
class FrenchMenu--><rect codeLine="53" fill="#FEFECE" filter="url(#f1tye0b78qktbx)" height="61.8359" id="FrenchMenu" style="stroke:#A80036;stroke-width:1.5;" width="131" x="1055" y="457.5"/><ellipse cx="1083.95" cy="473.5" fill="#ADD1B2" rx="11" ry="11" style="stroke:#A80036;stroke-width:1.0;"/><path d="M1086.7156,469.375 Q1086.8719,469.1563 1087.0594,469.0469 Q1087.2469,468.9375 1087.4656,468.9375 Q1087.8406,468.9375 1088.075,469.1953 Q1088.3094,469.4531 1088.3094,470.0625 L1088.3094,471.5156 Q1088.3094,472.125 1088.075,472.3906 Q1087.8406,472.6563 1087.4656,472.6563 Q1087.1219,472.6563 1086.9188,472.4531 Q1086.7156,472.2656 1086.6063,471.75 Q1086.5594,471.3906 1086.3719,471.2031 Q1086.0438,470.8281 1085.4344,470.6094 Q1084.825,470.3906 1084.2,470.3906 Q1083.4344,470.3906 1082.8016,470.7188 Q1082.1688,471.0469 1081.6766,471.7969 Q1081.1844,472.5469 1081.1844,473.5781 L1081.1844,474.6719 Q1081.1844,475.9063 1082.075,476.7266 Q1082.9656,477.5469 1084.5594,477.5469 Q1085.4969,477.5469 1086.1531,477.2969 Q1086.5438,477.1406 1086.9656,476.7031 Q1087.2313,476.4375 1087.3797,476.3594 Q1087.5281,476.2813 1087.7313,476.2813 Q1088.0594,476.2813 1088.3172,476.5391 Q1088.575,476.7969 1088.575,477.1406 Q1088.575,477.4844 1088.2313,477.8906 Q1087.7313,478.4688 1086.9344,478.7969 Q1085.8563,479.25 1084.5594,479.25 Q1083.0438,479.25 1081.8406,478.625 Q1080.8563,478.125 1080.1688,477.0547 Q1079.4813,475.9844 1079.4813,474.7031 L1079.4813,473.5469 Q1079.4813,472.2188 1080.0984,471.0703 Q1080.7156,469.9219 1081.8094,469.3047 Q1082.9031,468.6875 1084.1375,468.6875 Q1084.8719,468.6875 1085.5203,468.8516 Q1086.1688,469.0156 1086.7156,469.375 Z " fill="#000000"/><text fill="#000000" font-family="sans-serif" font-size="12" lengthAdjust="spacing" textLength="68" x="1101.05" y="478.4102">FrenchMenu</text><line style="stroke:#A80036;stroke-width:1.5;" x1="1056" x2="1185" y1="489.5" y2="489.5"/><line style="stroke:#A80036;stroke-width:1.5;" x1="1056" x2="1185" y1="497.5" y2="497.5"/><polygon fill="#FFFF44" points="1066,503.5,1070,507.5,1066,511.5,1062,507.5" style="stroke:#B38D22;stroke-width:1.0;"/><text fill="#000000" font-family="sans-serif" font-size="11" lengthAdjust="spacing" textLength="105" x="1075" y="512.9189">setCommands() : void</text><!--MD5=[decc050d0873b7bc9f739caf72824bb0]
class SpanishTicketBuilder--><rect codeLine="57" fill="#FEFECE" filter="url(#f1tye0b78qktbx)" height="75.6719" id="SpanishTicketBuilder" style="stroke:#A80036;stroke-width:1.5;" width="149" x="871" y="450.5"/><ellipse cx="886" cy="466.5" fill="#ADD1B2" rx="11" ry="11" style="stroke:#A80036;stroke-width:1.0;"/><path d="M888.7656,462.375 Q888.9219,462.1563 889.1094,462.0469 Q889.2969,461.9375 889.5156,461.9375 Q889.8906,461.9375 890.125,462.1953 Q890.3594,462.4531 890.3594,463.0625 L890.3594,464.5156 Q890.3594,465.125 890.125,465.3906 Q889.8906,465.6563 889.5156,465.6563 Q889.1719,465.6563 888.9688,465.4531 Q888.7656,465.2656 888.6563,464.75 Q888.6094,464.3906 888.4219,464.2031 Q888.0938,463.8281 887.4844,463.6094 Q886.875,463.3906 886.25,463.3906 Q885.4844,463.3906 884.8516,463.7188 Q884.2188,464.0469 883.7266,464.7969 Q883.2344,465.5469 883.2344,466.5781 L883.2344,467.6719 Q883.2344,468.9063 884.125,469.7266 Q885.0156,470.5469 886.6094,470.5469 Q887.5469,470.5469 888.2031,470.2969 Q888.5938,470.1406 889.0156,469.7031 Q889.2813,469.4375 889.4297,469.3594 Q889.5781,469.2813 889.7813,469.2813 Q890.1094,469.2813 890.3672,469.5391 Q890.625,469.7969 890.625,470.1406 Q890.625,470.4844 890.2813,470.8906 Q889.7813,471.4688 888.9844,471.7969 Q887.9063,472.25 886.6094,472.25 Q885.0938,472.25 883.8906,471.625 Q882.9063,471.125 882.2188,470.0547 Q881.5313,468.9844 881.5313,467.7031 L881.5313,466.5469 Q881.5313,465.2188 882.1484,464.0703 Q882.7656,462.9219 883.8594,462.3047 Q884.9531,461.6875 886.1875,461.6875 Q886.9219,461.6875 887.5703,461.8516 Q888.2188,462.0156 888.7656,462.375 Z " fill="#000000"/><text fill="#000000" font-family="sans-serif" font-size="12" lengthAdjust="spacing" textLength="117" x="900" y="471.4102">SpanishTicketBuilder</text><line style="stroke:#A80036;stroke-width:1.5;" x1="872" x2="1019" y1="482.5" y2="482.5"/><line style="stroke:#A80036;stroke-width:1.5;" x1="872" x2="1019" y1="490.5" y2="490.5"/><polygon fill="#4177AF" points="882,497.5,878,503.5,886,503.5" style="stroke:#1963A0;stroke-width:1.0;"/><text fill="#000000" font-family="sans-serif" font-size="11" lengthAdjust="spacing" textLength="108" x="891" y="505.9189">SpanishTicketBuilder()</text><ellipse cx="882" cy="515.3359" fill="#84BE84" rx="3" ry="3" style="stroke:#038048;stroke-width:1.0;"/><text fill="#000000" font-family="sans-serif" font-size="11" lengthAdjust="spacing" textLength="67" x="891" y="519.7549">build() : Ticket</text><!--MD5=[1d3d19efb3b39769193e55948105daae]
class FrenchTicketBuilder--><rect codeLine="63" fill="#FEFECE" filter="url(#f1tye0b78qktbx)" height="75.6719" id="FrenchTicketBuilder" style="stroke:#A80036;stroke-width:1.5;" width="141" x="695" y="450.5"/><ellipse cx="710" cy="466.5" fill="#ADD1B2" rx="11" ry="11" style="stroke:#A80036;stroke-width:1.0;"/><path d="M712.7656,462.375 Q712.9219,462.1563 713.1094,462.0469 Q713.2969,461.9375 713.5156,461.9375 Q713.8906,461.9375 714.125,462.1953 Q714.3594,462.4531 714.3594,463.0625 L714.3594,464.5156 Q714.3594,465.125 714.125,465.3906 Q713.8906,465.6563 713.5156,465.6563 Q713.1719,465.6563 712.9688,465.4531 Q712.7656,465.2656 712.6563,464.75 Q712.6094,464.3906 712.4219,464.2031 Q712.0938,463.8281 711.4844,463.6094 Q710.875,463.3906 710.25,463.3906 Q709.4844,463.3906 708.8516,463.7188 Q708.2188,464.0469 707.7266,464.7969 Q707.2344,465.5469 707.2344,466.5781 L707.2344,467.6719 Q707.2344,468.9063 708.125,469.7266 Q709.0156,470.5469 710.6094,470.5469 Q711.5469,470.5469 712.2031,470.2969 Q712.5938,470.1406 713.0156,469.7031 Q713.2813,469.4375 713.4297,469.3594 Q713.5781,469.2813 713.7813,469.2813 Q714.1094,469.2813 714.3672,469.5391 Q714.625,469.7969 714.625,470.1406 Q714.625,470.4844 714.2813,470.8906 Q713.7813,471.4688 712.9844,471.7969 Q711.9063,472.25 710.6094,472.25 Q709.0938,472.25 707.8906,471.625 Q706.9063,471.125 706.2188,470.0547 Q705.5313,468.9844 705.5313,467.7031 L705.5313,466.5469 Q705.5313,465.2188 706.1484,464.0703 Q706.7656,462.9219 707.8594,462.3047 Q708.9531,461.6875 710.1875,461.6875 Q710.9219,461.6875 711.5703,461.8516 Q712.2188,462.0156 712.7656,462.375 Z " fill="#000000"/><text fill="#000000" font-family="sans-serif" font-size="12" lengthAdjust="spacing" textLength="109" x="724" y="471.4102">FrenchTicketBuilder</text><line style="stroke:#A80036;stroke-width:1.5;" x1="696" x2="835" y1="482.5" y2="482.5"/><line style="stroke:#A80036;stroke-width:1.5;" x1="696" x2="835" y1="490.5" y2="490.5"/><polygon fill="#4177AF" points="706,497.5,702,503.5,710,503.5" style="stroke:#1963A0;stroke-width:1.0;"/><text fill="#000000" font-family="sans-serif" font-size="11" lengthAdjust="spacing" textLength="103" x="715" y="505.9189">FrenchTicketBuilder()</text><ellipse cx="706" cy="515.3359" fill="#84BE84" rx="3" ry="3" style="stroke:#038048;stroke-width:1.0;"/><text fill="#000000" font-family="sans-serif" font-size="11" lengthAdjust="spacing" textLength="64" x="715" y="519.7549">build() :Ticket</text><!--MD5=[4fc1c0348c1427dbca66850df36dca12]
link Supermarket to CountryFactory--><path codeLine="71" d="M555.8,110.15 C543.89,119.27 532.36,129.31 522.5,140 C505.44,158.5 490.72,181.81 479.18,203.18 " fill="none" id="Supermarket-to-CountryFactory" style="stroke:#A80036;stroke-width:1.0;stroke-dasharray:7.0,7.0;"/><polygon fill="#A80036" points="476.77,207.7,484.5459,201.6556,479.1311,203.2926,477.4941,197.8778,476.77,207.7" style="stroke:#A80036;stroke-width:1.0;"/><!--MD5=[2312ce705f4aacf328758aba73082a6d]
link Supermarket to Menu--><path codeLine="73" d="M723.14,84.71 C791.68,107.07 889.99,143.12 969.5,188 C973.85,190.45 978.22,193.09 982.56,195.84 " fill="none" id="Supermarket-to-Menu" style="stroke:#A80036;stroke-width:1.0;"/><polygon fill="#A80036" points="986.9,198.64,981.4924,190.4085,982.6941,195.9362,977.1664,197.1379,986.9,198.64" style="stroke:#A80036;stroke-width:1.0;"/><!--MD5=[d48d1f3e8b7a173cad9358bea740c6cf]
reverse link CountryFactory to CountryFactory--><path codeLine="74" d="M536.24,245.37 C553.57,247.43 566,253.81 566,264.5 C566,276.2 551.13,282.73 531.23,284.1 " fill="none" id="CountryFactory-backto-CountryFactory" style="stroke:#A80036;stroke-width:1.0;"/><polygon fill="#A80036" points="531.23,244.9,539.8135,249.7295,536.2078,245.3707,540.5666,241.765,531.23,244.9" style="stroke:#A80036;stroke-width:1.0;"/><text fill="#000000" font-family="sans-serif" font-size="13" lengthAdjust="spacing" textLength="91" x="538.8612" y="240.7304">-countryFactury</text><text fill="#000000" font-family="sans-serif" font-size="13" lengthAdjust="spacing" textLength="32" x="538.8585" y="282.5419">menu</text><!--MD5=[971bcb029b937cb2e9f5764d5303b0b2]
link CountryFactory to Menu--><path codeLine="75" d="M479.84,207.8 C492.52,188.69 509.42,169.55 530.5,159 C564.68,141.89 578.31,157.43 616.5,159 C773.79,165.45 822.87,130.73 969.5,188 C973.78,189.67 978.03,191.6 982.22,193.72 " fill="none" id="CountryFactory-to-Menu" style="stroke:#A80036;stroke-width:1.0;"/><polygon fill="#A80036" points="986.74,196.09,980.6356,188.361,982.3145,193.763,976.9125,195.4419,986.74,196.09" style="stroke:#A80036;stroke-width:1.0;"/><polygon fill="none" points="536.5,144.6758,540.5,148.6758,536.5,152.6758,532.5,148.6758" style="stroke:#B38D22;stroke-width:1.0;"/><text fill="#000000" font-family="sans-serif" font-size="13" lengthAdjust="spacing" textLength="72" x="543.5" y="154.4951">ticketBuilder</text><!--MD5=[785d5a86d29fb586f704d2b5610f4c58]
link CountryFactory to TicketBuilder--><path codeLine="76" d="M531.23,264.5 C583.38,264.5 635.54,264.5 687.7,264.5 " fill="none" id="CountryFactory-to-TicketBuilder" style="stroke:#A80036;stroke-width:1.0;"/><polygon fill="#A80036" points="692.75,264.5,683.75,260.5,687.75,264.5,683.75,268.5,692.75,264.5" style="stroke:#A80036;stroke-width:1.0;"/><!--MD5=[487d2bdab1408629e659518e2fe54f95]
reverse link CountryFactory to SpanishFactory--><path codeLine="77" d="M352.58,296.7 C288.69,319.72 205.8,355.17 141.5,402 C120.47,417.32 101.06,439.35 87.12,457.21 " fill="none" id="CountryFactory-backto-SpanishFactory" style="stroke:#A80036;stroke-width:1.0;"/><polygon fill="none" points="350.56,289.99,371.75,289.96,355.21,303.2,350.56,289.99" style="stroke:#A80036;stroke-width:1.0;"/><!--MD5=[16752b70f0f45b468bd178863c6f48b3]
reverse link CountryFactory to FrenchFactory--><path codeLine="78" d="M362.27,333.87 C336.65,354.81 309.23,378.54 285.5,402 C267.97,419.32 250.11,440.5 236.57,457.45 " fill="none" id="CountryFactory-backto-FrenchFactory" style="stroke:#A80036;stroke-width:1.0;"/><polygon fill="none" points="357.98,328.33,377.94,321.21,366.78,339.22,357.98,328.33" style="stroke:#A80036;stroke-width:1.0;"/><!--MD5=[889836c582edbc057cc5f176dbdf02f6]
reverse link Menu to SpanishMenu--><path codeLine="80" d="M1157.72,355.72 C1173.03,371.13 1188.75,387 1203.5,402 C1221.49,420.29 1241.52,440.92 1257.4,457.33 " fill="none" id="Menu-backto-SpanishMenu" style="stroke:#A80036;stroke-width:1.0;"/><polygon fill="none" points="1152.35,360.25,1143.21,341.14,1162.28,350.38,1152.35,360.25" style="stroke:#A80036;stroke-width:1.0;"/><!--MD5=[2d14cfa2f315fe74bafc55eaff324d32]
reverse link Menu to FrenchMenu--><path codeLine="81" d="M1090.26,360.83 C1098.55,395.58 1107.35,432.42 1113.3,457.35 " fill="none" id="Menu-backto-FrenchMenu" style="stroke:#A80036;stroke-width:1.0;"/><polygon fill="none" points="1083.43,362.36,1085.59,341.28,1097.04,359.11,1083.43,362.36" style="stroke:#A80036;stroke-width:1.0;"/><!--MD5=[1336810a4ed5cf6a373a201ded530d00]
reverse link TicketBuilder to TicketBuilder--><path codeLine="82" d="M843.1,245.14 C860.39,246.93 873,253.38 873,264.5 C873,276.66 857.9,283.24 838.1,284.24 " fill="none" id="TicketBuilder-backto-TicketBuilder" style="stroke:#A80036;stroke-width:1.0;"/><polygon fill="#A80036" points="838.1,244.76,846.7647,249.4423,843.0851,245.1457,847.3817,241.4661,838.1,244.76" style="stroke:#A80036;stroke-width:1.0;"/><rect fill="none" height="6" style="stroke:#C82930;stroke-width:1.0;" width="6" x="881" y="262.1758"/><text fill="#000000" font-family="sans-serif" font-size="13" lengthAdjust="spacing" textLength="72" x="891" y="269.9951">ticketBuilder</text><!--MD5=[8c54851f40476c8767aa8b46f6b5f3d7]
reverse link TicketBuilder to SpanishTicketBuilder--><path codeLine="83" d="M811.53,322.28 C844.12,362.46 886.89,415.21 915.24,450.18 " fill="none" id="TicketBuilder-backto-SpanishTicketBuilder" style="stroke:#A80036;stroke-width:1.0;"/><polygon fill="none" points="806.09,326.68,798.93,306.74,816.97,317.86,806.09,326.68" style="stroke:#A80036;stroke-width:1.0;"/><!--MD5=[0b521cb538a71c520d4531cb994f797f]
reverse link TicketBuilder to FrenchTicketBuilder--><path codeLine="84" d="M765.5,326.87 C765.5,366.41 765.5,416.53 765.5,450.18 " fill="none" id="TicketBuilder-backto-FrenchTicketBuilder" style="stroke:#A80036;stroke-width:1.0;"/><polygon fill="none" points="758.5,326.74,765.5,306.74,772.5,326.74,758.5,326.74" style="stroke:#A80036;stroke-width:1.0;"/><!--MD5=[183d2ceb8f22a5f47010c2b59f6a734f]
link CountryFactory to Ticket--><path codeLine="85" d="M459.03,321.23 C462.12,344.11 465.78,371.2 469.24,396.79 " fill="none" id="CountryFactory-to-Ticket" style="stroke:#A80036;stroke-width:1.0;stroke-dasharray:7.0,7.0;"/><polygon fill="#A80036" points="469.93,401.89,472.6858,392.4346,469.2589,396.9352,464.7582,393.5083,469.93,401.89" style="stroke:#A80036;stroke-width:1.0;"/><!--MD5=[8bf2187686c37c46c0b68ce8cb633e27]
link Supermarket to Ticket--><path codeLine="86" d="M628.7,110.24 C625.28,125.62 621.38,142.53 617.5,158 C596.96,239.9 599.28,263.19 566.5,341 C558.61,359.74 548.78,379.04 538.63,397.23 " fill="none" id="Supermarket-to-Ticket" style="stroke:#A80036;stroke-width:1.0;stroke-dasharray:7.0,7.0;"/><polygon fill="#A80036" points="536.05,401.83,543.9404,395.9358,538.4952,397.4687,536.9623,392.0235,536.05,401.83" style="stroke:#A80036;stroke-width:1.0;"/><!--MD5=[ab7d7e4012ba49b40b0dedc350b3447a]
link TicketBuilder to Ticket--><path codeLine="87" d="M731.4,306.58 C713.03,327.43 689.29,352.42 665.5,372 C654.38,381.15 642.49,390.14 630.29,398.82 " fill="none" id="TicketBuilder-to-Ticket" style="stroke:#A80036;stroke-width:1.0;stroke-dasharray:7.0,7.0;"/><polygon fill="#A80036" points="626.15,401.75,635.8057,399.8091,630.2293,398.8587,631.1797,393.2823,626.15,401.75" style="stroke:#A80036;stroke-width:1.0;"/><!--MD5=[0f23917a540f9efdf87b1a29048fa9b1]
@startuml abstractFactory
class Supermarket {
-{static} CLOSING TIME: double = 20.0
- Supermarket()
- set(): void
+{static} main(srgs : String"[]"
}

class CountryFactory <<abstractFactory>> <<singleton>> {
+{static} instance() : CountryFactory
+ getTicket() : Ticket
+ getMenu() : Menu
}

class Ticket {
+ add(line : Line) : void
+ lines() : int
+ getLine (number : int) : Line
+ close() : void
+ toString() : String
+ Ticket(header, footer : Footer)
+ setLineTicketOperation (lineTicketOperation : TicketVisitor) : void
+ setGlobalTicketOperation( globalTicketOperation : TicketVisitor) : void
+ open(): void
}

class SpanishFactory {
+ SpanishFactory()
}

class FrenchFactory {
+ FrenchFactory()
}

class Menu <<factoryMethod>> {
+ Menu()
# setCommands() :void
# set(ticket: Ticket) : void
+ execute( ticket: Ticket) :void
- write(): void
- getOption() : int
+ closed() : boolean
}

class TicketBuilder <<builder>> {
+ {static} instance() : TicketBuilder
+{abstract} build() : Ticket
}

class SpanishMenu {
#setCommands() : void
}

class FrenchMenu {
#setCommands() : void
}

class SpanishTicketBuilder {

~SpanishTicketBuilder()
+build() : Ticket
}

class FrenchTicketBuilder {

~FrenchTicketBuilder()
+build() :Ticket
}



Supermarket .down.> CountryFactory

Supermarket -down-> Menu
CountryFactory "-countryFactury"<- - "menu" CountryFactory
CountryFactory -right-> Menu :#ticketBuilder
CountryFactory -right-> TicketBuilder
CountryFactory <|- - SpanishFactory
CountryFactory <|- - FrenchFactory

Menu <|- - SpanishMenu
Menu <|- - FrenchMenu
TicketBuilder <- - TicketBuilder :-ticketBuilder
TicketBuilder <|- - SpanishTicketBuilder
TicketBuilder <|- - FrenchTicketBuilder
CountryFactory .down.> Ticket
Supermarket .down.> Ticket
TicketBuilder .down.> Ticket
@enduml

PlantUML version 1.2021.7(Sun May 23 14:40:07 CEST 2021)
(GPL source distribution)
Java Runtime: Java(TM) SE Runtime Environment
JVM: Java HotSpot(TM) 64-Bit Server VM
Default Encoding: Cp1252
Language: es
Country: ES
--></g></svg>