<?xml version="1.0" encoding="UTF-8" standalone="no"?><svg xmlns="http://www.w3.org/2000/svg" xmlns:xlink="http://www.w3.org/1999/xlink" contentScriptType="application/ecmascript" contentStyleType="text/css" height="729px" preserveAspectRatio="none" style="width:2153px;height:729px;background:#FFFFFF;" version="1.1" viewBox="0 0 2153 729" width="2153px" zoomAndPan="magnify"><defs><filter height="300%" id="fujv7dxb3o7cz" width="300%" x="-1" y="-1"><feGaussianBlur result="blurOut" stdDeviation="2.0"/><feColorMatrix in="blurOut" result="blurOut2" type="matrix" values="0 0 0 0 0 0 0 0 0 0 0 0 0 0 0 0 0 0 .4 0"/><feOffset dx="4.0" dy="4.0" in="blurOut2" result="blurOut3"/><feBlend in="SourceGraphic" in2="blurOut3" mode="normal"/></filter></defs><g><!--MD5=[0851c38ccebc5bf68e448c5e4cf66cff]
class CountryFactory--><rect codeLine="2" fill="#FEFECE" filter="url(#fujv7dxb3o7cz)" height="112.7891" id="CountryFactory" style="stroke:#A80036;stroke-width:1.5;" width="159" x="753" y="7"/><ellipse cx="782.85" cy="34.6406" fill="#ADD1B2" rx="11" ry="11" style="stroke:#A80036;stroke-width:1.0;"/><path d="M785.6156,30.5156 Q785.7719,30.2969 785.9594,30.1875 Q786.1469,30.0781 786.3656,30.0781 Q786.7406,30.0781 786.975,30.3359 Q787.2094,30.5938 787.2094,31.2031 L787.2094,32.6563 Q787.2094,33.2656 786.975,33.5313 Q786.7406,33.7969 786.3656,33.7969 Q786.0219,33.7969 785.8188,33.5938 Q785.6156,33.4063 785.5063,32.8906 Q785.4594,32.5313 785.2719,32.3438 Q784.9438,31.9688 784.3344,31.75 Q783.725,31.5313 783.1,31.5313 Q782.3344,31.5313 781.7016,31.8594 Q781.0688,32.1875 780.5766,32.9375 Q780.0844,33.6875 780.0844,34.7188 L780.0844,35.8125 Q780.0844,37.0469 780.975,37.8672 Q781.8656,38.6875 783.4594,38.6875 Q784.3969,38.6875 785.0531,38.4375 Q785.4438,38.2813 785.8656,37.8438 Q786.1313,37.5781 786.2797,37.5 Q786.4281,37.4219 786.6313,37.4219 Q786.9594,37.4219 787.2172,37.6797 Q787.475,37.9375 787.475,38.2813 Q787.475,38.625 787.1313,39.0313 Q786.6313,39.6094 785.8344,39.9375 Q784.7563,40.3906 783.4594,40.3906 Q781.9438,40.3906 780.7406,39.7656 Q779.7563,39.2656 779.0688,38.1953 Q778.3813,37.125 778.3813,35.8438 L778.3813,34.6875 Q778.3813,33.3594 778.9984,32.2109 Q779.6156,31.0625 780.7094,30.4453 Q781.8031,29.8281 783.0375,29.8281 Q783.7719,29.8281 784.4203,29.9922 Q785.0688,30.1563 785.6156,30.5156 Z " fill="#000000"/><text fill="#000000" font-family="sans-serif" font-size="12" font-style="italic" lengthAdjust="spacing" textLength="98" x="798.15" y="24.457">«abstractFactory»</text><text fill="#000000" font-family="sans-serif" font-size="12" font-style="italic" lengthAdjust="spacing" textLength="64" x="815.15" y="39.5508">«singleton»</text><text fill="#000000" font-family="sans-serif" font-size="12" lengthAdjust="spacing" textLength="81" x="806.65" y="54.6445">CountryFactory</text><line style="stroke:#A80036;stroke-width:1.5;" x1="754" x2="911" y1="62.2813" y2="62.2813"/><line style="stroke:#A80036;stroke-width:1.5;" x1="754" x2="911" y1="70.2813" y2="70.2813"/><ellipse cx="764" cy="81.2813" fill="#84BE84" rx="3" ry="3" style="stroke:#038048;stroke-width:1.0;"/><text fill="#000000" font-family="sans-serif" font-size="11" lengthAdjust="spacing" text-decoration="underline" textLength="133" x="773" y="85.7002">instance() : CountryFactory</text><ellipse cx="764" cy="95.1172" fill="#84BE84" rx="3" ry="3" style="stroke:#038048;stroke-width:1.0;"/><text fill="#000000" font-family="sans-serif" font-size="11" lengthAdjust="spacing" textLength="88" x="773" y="99.5361">getTicket() : Ticket</text><ellipse cx="764" cy="108.9531" fill="#84BE84" rx="3" ry="3" style="stroke:#038048;stroke-width:1.0;"/><text fill="#000000" font-family="sans-serif" font-size="11" lengthAdjust="spacing" textLength="84" x="773" y="113.3721">getMenu() : Menu</text><!--MD5=[d233f96e9c58cc2e799a4b99873cf089]
class TicketBuilder--><rect codeLine="8" fill="#FEFECE" filter="url(#fujv7dxb3o7cz)" height="83.8594" id="TicketBuilder" style="stroke:#A80036;stroke-width:1.5;" width="142" x="761.5" y="198"/><ellipse cx="794.05" cy="218.0938" fill="#ADD1B2" rx="11" ry="11" style="stroke:#A80036;stroke-width:1.0;"/><path d="M796.8156,213.9688 Q796.9719,213.75 797.1594,213.6406 Q797.3469,213.5313 797.5656,213.5313 Q797.9406,213.5313 798.175,213.7891 Q798.4094,214.0469 798.4094,214.6563 L798.4094,216.1094 Q798.4094,216.7188 798.175,216.9844 Q797.9406,217.25 797.5656,217.25 Q797.2219,217.25 797.0188,217.0469 Q796.8156,216.8594 796.7063,216.3438 Q796.6594,215.9844 796.4719,215.7969 Q796.1438,215.4219 795.5344,215.2031 Q794.925,214.9844 794.3,214.9844 Q793.5344,214.9844 792.9016,215.3125 Q792.2688,215.6406 791.7766,216.3906 Q791.2844,217.1406 791.2844,218.1719 L791.2844,219.2656 Q791.2844,220.5 792.175,221.3203 Q793.0656,222.1406 794.6594,222.1406 Q795.5969,222.1406 796.2531,221.8906 Q796.6438,221.7344 797.0656,221.2969 Q797.3313,221.0313 797.4797,220.9531 Q797.6281,220.875 797.8313,220.875 Q798.1594,220.875 798.4172,221.1328 Q798.675,221.3906 798.675,221.7344 Q798.675,222.0781 798.3313,222.4844 Q797.8313,223.0625 797.0344,223.3906 Q795.9563,223.8438 794.6594,223.8438 Q793.1438,223.8438 791.9406,223.2188 Q790.9563,222.7188 790.2688,221.6484 Q789.5813,220.5781 789.5813,219.2969 L789.5813,218.1406 Q789.5813,216.8125 790.1984,215.6641 Q790.8156,214.5156 791.9094,213.8984 Q793.0031,213.2813 794.2375,213.2813 Q794.9719,213.2813 795.6203,213.4453 Q796.2688,213.6094 796.8156,213.9688 Z " fill="#000000"/><text fill="#000000" font-family="sans-serif" font-size="12" font-style="italic" lengthAdjust="spacing" textLength="53" x="820.95" y="215.457">«builder»</text><text fill="#000000" font-family="sans-serif" font-size="12" lengthAdjust="spacing" textLength="71" x="811.95" y="230.5508">TicketBuilder</text><line style="stroke:#A80036;stroke-width:1.5;" x1="762.5" x2="902.5" y1="238.1875" y2="238.1875"/><line style="stroke:#A80036;stroke-width:1.5;" x1="762.5" x2="902.5" y1="246.1875" y2="246.1875"/><ellipse cx="772.5" cy="257.1875" fill="#84BE84" rx="3" ry="3" style="stroke:#038048;stroke-width:1.0;"/><text fill="#000000" font-family="sans-serif" font-size="11" lengthAdjust="spacing" text-decoration="underline" textLength="116" x="781.5" y="261.6064">instance(): TicketBuilder</text><ellipse cx="772.5" cy="271.0234" fill="#84BE84" rx="3" ry="3" style="stroke:#038048;stroke-width:1.0;"/><text fill="#000000" font-family="sans-serif" font-size="11" lengthAdjust="spacing" textLength="67" x="781.5" y="275.4424">build() : Ticket</text><!--MD5=[d69a7c759bc6e4188c85d5ebdda1e900]
class TicketOperation--><rect codeLine="13" fill="#FEFECE" filter="url(#fujv7dxb3o7cz)" height="144.8516" id="TicketOperation" style="stroke:#A80036;stroke-width:1.5;" width="249" x="936" y="343"/><ellipse cx="1013.25" cy="359" fill="#ADD1B2" rx="11" ry="11" style="stroke:#A80036;stroke-width:1.0;"/><path d="M1016.0156,354.875 Q1016.1719,354.6563 1016.3594,354.5469 Q1016.5469,354.4375 1016.7656,354.4375 Q1017.1406,354.4375 1017.375,354.6953 Q1017.6094,354.9531 1017.6094,355.5625 L1017.6094,357.0156 Q1017.6094,357.625 1017.375,357.8906 Q1017.1406,358.1563 1016.7656,358.1563 Q1016.4219,358.1563 1016.2188,357.9531 Q1016.0156,357.7656 1015.9063,357.25 Q1015.8594,356.8906 1015.6719,356.7031 Q1015.3438,356.3281 1014.7344,356.1094 Q1014.125,355.8906 1013.5,355.8906 Q1012.7344,355.8906 1012.1016,356.2188 Q1011.4688,356.5469 1010.9766,357.2969 Q1010.4844,358.0469 1010.4844,359.0781 L1010.4844,360.1719 Q1010.4844,361.4063 1011.375,362.2266 Q1012.2656,363.0469 1013.8594,363.0469 Q1014.7969,363.0469 1015.4531,362.7969 Q1015.8438,362.6406 1016.2656,362.2031 Q1016.5313,361.9375 1016.6797,361.8594 Q1016.8281,361.7813 1017.0313,361.7813 Q1017.3594,361.7813 1017.6172,362.0391 Q1017.875,362.2969 1017.875,362.6406 Q1017.875,362.9844 1017.5313,363.3906 Q1017.0313,363.9688 1016.2344,364.2969 Q1015.1563,364.75 1013.8594,364.75 Q1012.3438,364.75 1011.1406,364.125 Q1010.1563,363.625 1009.4688,362.5547 Q1008.7813,361.4844 1008.7813,360.2031 L1008.7813,359.0469 Q1008.7813,357.7188 1009.3984,356.5703 Q1010.0156,355.4219 1011.1094,354.8047 Q1012.2031,354.1875 1013.4375,354.1875 Q1014.1719,354.1875 1014.8203,354.3516 Q1015.4688,354.5156 1016.0156,354.875 Z " fill="#000000"/><text fill="#000000" font-family="sans-serif" font-size="12" lengthAdjust="spacing" textLength="86" x="1033.75" y="363.9102">TicketOperation</text><line style="stroke:#A80036;stroke-width:1.5;" x1="937" x2="1184" y1="375" y2="375"/><line style="stroke:#A80036;stroke-width:1.5;" x1="937" x2="1184" y1="383" y2="383"/><ellipse cx="947" cy="394" fill="#84BE84" rx="3" ry="3" style="stroke:#038048;stroke-width:1.0;"/><text fill="#000000" font-family="sans-serif" font-size="11" lengthAdjust="spacing" textLength="117" x="956" y="398.4189">set( ticket : Ticket) : void</text><ellipse cx="947" cy="407.8359" fill="#84BE84" rx="3" ry="3" style="stroke:#038048;stroke-width:1.0;"/><text fill="#000000" font-family="sans-serif" font-size="11" lengthAdjust="spacing" textLength="149" x="956" y="412.2549">visit (saleLine : SaleLine) : void</text><ellipse cx="947" cy="421.6719" fill="#84BE84" rx="3" ry="3" style="stroke:#038048;stroke-width:1.0;"/><text fill="#000000" font-family="sans-serif" font-size="11" lengthAdjust="spacing" textLength="193" x="956" y="426.0908">visit (repetitionLine : Repetitionine) : void</text><ellipse cx="947" cy="435.5078" fill="#84BE84" rx="3" ry="3" style="stroke:#038048;stroke-width:1.0;"/><text fill="#000000" font-family="sans-serif" font-size="11" lengthAdjust="spacing" textLength="223" x="956" y="439.9268">visit( cancellationLine : CancellationLine) : void</text><ellipse cx="947" cy="449.3438" fill="#84BE84" rx="3" ry="3" style="stroke:#038048;stroke-width:1.0;"/><text fill="#000000" font-family="sans-serif" font-size="11" lengthAdjust="spacing" textLength="169" x="956" y="453.7627">visit (returnLine : ReturnLine) : void</text><ellipse cx="947" cy="463.1797" fill="#84BE84" rx="3" ry="3" style="stroke:#038048;stroke-width:1.0;"/><text fill="#000000" font-family="sans-serif" font-size="11" lengthAdjust="spacing" textLength="131" x="956" y="467.5986">visit ( footer : Footer) : void</text><ellipse cx="947" cy="477.0156" fill="#84BE84" rx="3" ry="3" style="stroke:#038048;stroke-width:1.0;"/><text fill="#000000" font-family="sans-serif" font-size="11" lengthAdjust="spacing" textLength="83" x="956" y="481.4346">visit (head) : void</text><!--MD5=[decc050d0873b7bc9f739caf72824bb0]
class SpanishTicketBuilder--><rect codeLine="23" fill="#FEFECE" filter="url(#fujv7dxb3o7cz)" height="75.6719" id="SpanishTicketBuilder" style="stroke:#A80036;stroke-width:1.5;" width="149" x="1299" y="377.5"/><ellipse cx="1314" cy="393.5" fill="#ADD1B2" rx="11" ry="11" style="stroke:#A80036;stroke-width:1.0;"/><path d="M1316.7656,389.375 Q1316.9219,389.1563 1317.1094,389.0469 Q1317.2969,388.9375 1317.5156,388.9375 Q1317.8906,388.9375 1318.125,389.1953 Q1318.3594,389.4531 1318.3594,390.0625 L1318.3594,391.5156 Q1318.3594,392.125 1318.125,392.3906 Q1317.8906,392.6563 1317.5156,392.6563 Q1317.1719,392.6563 1316.9688,392.4531 Q1316.7656,392.2656 1316.6563,391.75 Q1316.6094,391.3906 1316.4219,391.2031 Q1316.0938,390.8281 1315.4844,390.6094 Q1314.875,390.3906 1314.25,390.3906 Q1313.4844,390.3906 1312.8516,390.7188 Q1312.2188,391.0469 1311.7266,391.7969 Q1311.2344,392.5469 1311.2344,393.5781 L1311.2344,394.6719 Q1311.2344,395.9063 1312.125,396.7266 Q1313.0156,397.5469 1314.6094,397.5469 Q1315.5469,397.5469 1316.2031,397.2969 Q1316.5938,397.1406 1317.0156,396.7031 Q1317.2813,396.4375 1317.4297,396.3594 Q1317.5781,396.2813 1317.7813,396.2813 Q1318.1094,396.2813 1318.3672,396.5391 Q1318.625,396.7969 1318.625,397.1406 Q1318.625,397.4844 1318.2813,397.8906 Q1317.7813,398.4688 1316.9844,398.7969 Q1315.9063,399.25 1314.6094,399.25 Q1313.0938,399.25 1311.8906,398.625 Q1310.9063,398.125 1310.2188,397.0547 Q1309.5313,395.9844 1309.5313,394.7031 L1309.5313,393.5469 Q1309.5313,392.2188 1310.1484,391.0703 Q1310.7656,389.9219 1311.8594,389.3047 Q1312.9531,388.6875 1314.1875,388.6875 Q1314.9219,388.6875 1315.5703,388.8516 Q1316.2188,389.0156 1316.7656,389.375 Z " fill="#000000"/><text fill="#000000" font-family="sans-serif" font-size="12" lengthAdjust="spacing" textLength="117" x="1328" y="398.4102">SpanishTicketBuilder</text><line style="stroke:#A80036;stroke-width:1.5;" x1="1300" x2="1447" y1="409.5" y2="409.5"/><line style="stroke:#A80036;stroke-width:1.5;" x1="1300" x2="1447" y1="417.5" y2="417.5"/><polygon fill="#4177AF" points="1310,424.5,1306,430.5,1314,430.5" style="stroke:#1963A0;stroke-width:1.0;"/><text fill="#000000" font-family="sans-serif" font-size="11" lengthAdjust="spacing" textLength="108" x="1319" y="432.9189">SpanishTicketBuilder()</text><ellipse cx="1310" cy="442.3359" fill="#84BE84" rx="3" ry="3" style="stroke:#038048;stroke-width:1.0;"/><text fill="#000000" font-family="sans-serif" font-size="11" lengthAdjust="spacing" textLength="67" x="1319" y="446.7549">build() : Ticket</text><!--MD5=[1d3d19efb3b39769193e55948105daae]
class FrenchTicketBuilder--><rect codeLine="28" fill="#FEFECE" filter="url(#fujv7dxb3o7cz)" height="75.6719" id="FrenchTicketBuilder" style="stroke:#A80036;stroke-width:1.5;" width="141" x="281" y="377.5"/><ellipse cx="296" cy="393.5" fill="#ADD1B2" rx="11" ry="11" style="stroke:#A80036;stroke-width:1.0;"/><path d="M298.7656,389.375 Q298.9219,389.1563 299.1094,389.0469 Q299.2969,388.9375 299.5156,388.9375 Q299.8906,388.9375 300.125,389.1953 Q300.3594,389.4531 300.3594,390.0625 L300.3594,391.5156 Q300.3594,392.125 300.125,392.3906 Q299.8906,392.6563 299.5156,392.6563 Q299.1719,392.6563 298.9688,392.4531 Q298.7656,392.2656 298.6563,391.75 Q298.6094,391.3906 298.4219,391.2031 Q298.0938,390.8281 297.4844,390.6094 Q296.875,390.3906 296.25,390.3906 Q295.4844,390.3906 294.8516,390.7188 Q294.2188,391.0469 293.7266,391.7969 Q293.2344,392.5469 293.2344,393.5781 L293.2344,394.6719 Q293.2344,395.9063 294.125,396.7266 Q295.0156,397.5469 296.6094,397.5469 Q297.5469,397.5469 298.2031,397.2969 Q298.5938,397.1406 299.0156,396.7031 Q299.2813,396.4375 299.4297,396.3594 Q299.5781,396.2813 299.7813,396.2813 Q300.1094,396.2813 300.3672,396.5391 Q300.625,396.7969 300.625,397.1406 Q300.625,397.4844 300.2813,397.8906 Q299.7813,398.4688 298.9844,398.7969 Q297.9063,399.25 296.6094,399.25 Q295.0938,399.25 293.8906,398.625 Q292.9063,398.125 292.2188,397.0547 Q291.5313,395.9844 291.5313,394.7031 L291.5313,393.5469 Q291.5313,392.2188 292.1484,391.0703 Q292.7656,389.9219 293.8594,389.3047 Q294.9531,388.6875 296.1875,388.6875 Q296.9219,388.6875 297.5703,388.8516 Q298.2188,389.0156 298.7656,389.375 Z " fill="#000000"/><text fill="#000000" font-family="sans-serif" font-size="12" lengthAdjust="spacing" textLength="109" x="310" y="398.4102">FrenchTicketBuilder</text><line style="stroke:#A80036;stroke-width:1.5;" x1="282" x2="421" y1="409.5" y2="409.5"/><line style="stroke:#A80036;stroke-width:1.5;" x1="282" x2="421" y1="417.5" y2="417.5"/><polygon fill="#4177AF" points="292,424.5,288,430.5,296,430.5" style="stroke:#1963A0;stroke-width:1.0;"/><text fill="#000000" font-family="sans-serif" font-size="11" lengthAdjust="spacing" textLength="103" x="301" y="432.9189">FrenchTicketBuilder()</text><ellipse cx="292" cy="442.3359" fill="#84BE84" rx="3" ry="3" style="stroke:#038048;stroke-width:1.0;"/><text fill="#000000" font-family="sans-serif" font-size="11" lengthAdjust="spacing" textLength="67" x="301" y="446.7549">build() : Ticket</text><!--MD5=[3f8ec4fed57a3e6134cfdf5e60807eaa]
class TicketOperationComposite--><rect codeLine="33" fill="#FEFECE" filter="url(#fujv7dxb3o7cz)" height="166.875" id="TicketOperationComposite" style="stroke:#A80036;stroke-width:1.5;" width="249" x="936" y="549"/><ellipse cx="982.75" cy="569.0938" fill="#ADD1B2" rx="11" ry="11" style="stroke:#A80036;stroke-width:1.0;"/><path d="M985.5156,564.9688 Q985.6719,564.75 985.8594,564.6406 Q986.0469,564.5313 986.2656,564.5313 Q986.6406,564.5313 986.875,564.7891 Q987.1094,565.0469 987.1094,565.6563 L987.1094,567.1094 Q987.1094,567.7188 986.875,567.9844 Q986.6406,568.25 986.2656,568.25 Q985.9219,568.25 985.7188,568.0469 Q985.5156,567.8594 985.4063,567.3438 Q985.3594,566.9844 985.1719,566.7969 Q984.8438,566.4219 984.2344,566.2031 Q983.625,565.9844 983,565.9844 Q982.2344,565.9844 981.6016,566.3125 Q980.9688,566.6406 980.4766,567.3906 Q979.9844,568.1406 979.9844,569.1719 L979.9844,570.2656 Q979.9844,571.5 980.875,572.3203 Q981.7656,573.1406 983.3594,573.1406 Q984.2969,573.1406 984.9531,572.8906 Q985.3438,572.7344 985.7656,572.2969 Q986.0313,572.0313 986.1797,571.9531 Q986.3281,571.875 986.5313,571.875 Q986.8594,571.875 987.1172,572.1328 Q987.375,572.3906 987.375,572.7344 Q987.375,573.0781 987.0313,573.4844 Q986.5313,574.0625 985.7344,574.3906 Q984.6563,574.8438 983.3594,574.8438 Q981.8438,574.8438 980.6406,574.2188 Q979.6563,573.7188 978.9688,572.6484 Q978.2813,571.5781 978.2813,570.2969 L978.2813,569.1406 Q978.2813,567.8125 978.8984,566.6641 Q979.5156,565.5156 980.6094,564.8984 Q981.7031,564.2813 982.9375,564.2813 Q983.6719,564.2813 984.3203,564.4453 Q984.9688,564.6094 985.5156,564.9688 Z " fill="#000000"/><text fill="#000000" font-family="sans-serif" font-size="12" font-style="italic" lengthAdjust="spacing" textLength="71" x="1041.25" y="566.457">«composite»</text><text fill="#000000" font-family="sans-serif" font-size="12" lengthAdjust="spacing" textLength="147" x="1003.25" y="581.5508">TicketOperationComposite</text><line style="stroke:#A80036;stroke-width:1.5;" x1="937" x2="1184" y1="589.1875" y2="589.1875"/><line style="stroke:#A80036;stroke-width:1.5;" x1="937" x2="1184" y1="597.1875" y2="597.1875"/><ellipse cx="947" cy="608.1875" fill="#84BE84" rx="3" ry="3" style="stroke:#038048;stroke-width:1.0;"/><text fill="#000000" font-family="sans-serif" font-size="11" lengthAdjust="spacing" textLength="133" x="956" y="612.6064">TicketOperationComposite()</text><ellipse cx="947" cy="622.0234" fill="#84BE84" rx="3" ry="3" style="stroke:#038048;stroke-width:1.0;"/><text fill="#000000" font-family="sans-serif" font-size="11" lengthAdjust="spacing" textLength="117" x="956" y="626.4424">set( ticket : Ticket) : void</text><ellipse cx="947" cy="635.8594" fill="#84BE84" rx="3" ry="3" style="stroke:#038048;stroke-width:1.0;"/><text fill="#000000" font-family="sans-serif" font-size="11" lengthAdjust="spacing" textLength="149" x="956" y="640.2783">visit (saleLine : SaleLine) : void</text><ellipse cx="947" cy="649.6953" fill="#84BE84" rx="3" ry="3" style="stroke:#038048;stroke-width:1.0;"/><text fill="#000000" font-family="sans-serif" font-size="11" lengthAdjust="spacing" textLength="193" x="956" y="654.1143">visit (repetitionLine : Repetitionine) : void</text><ellipse cx="947" cy="663.5313" fill="#84BE84" rx="3" ry="3" style="stroke:#038048;stroke-width:1.0;"/><text fill="#000000" font-family="sans-serif" font-size="11" lengthAdjust="spacing" textLength="223" x="956" y="667.9502">visit( cancellationLine : CancellationLine) : void</text><ellipse cx="947" cy="677.3672" fill="#84BE84" rx="3" ry="3" style="stroke:#038048;stroke-width:1.0;"/><text fill="#000000" font-family="sans-serif" font-size="11" lengthAdjust="spacing" textLength="169" x="956" y="681.7861">visit (returnLine : ReturnLine) : void</text><ellipse cx="947" cy="691.2031" fill="#84BE84" rx="3" ry="3" style="stroke:#038048;stroke-width:1.0;"/><text fill="#000000" font-family="sans-serif" font-size="11" lengthAdjust="spacing" textLength="131" x="956" y="695.6221">visit ( footer : Footer) : void</text><ellipse cx="947" cy="705.0391" fill="#84BE84" rx="3" ry="3" style="stroke:#038048;stroke-width:1.0;"/><text fill="#000000" font-family="sans-serif" font-size="11" lengthAdjust="spacing" textLength="83" x="956" y="709.458">visit (head) : void</text><!--MD5=[eafe7d49e8a18a18b63f2aa9fc77d9a7]
class TaxPrinterOperation--><rect codeLine="44" fill="#FEFECE" filter="url(#fujv7dxb3o7cz)" height="131.0156" id="TaxPrinterOperation" style="stroke:#A80036;stroke-width:1.5;" width="249" x="1890" y="567"/><ellipse cx="1955.75" cy="583" fill="#ADD1B2" rx="11" ry="11" style="stroke:#A80036;stroke-width:1.0;"/><path d="M1958.5156,578.875 Q1958.6719,578.6563 1958.8594,578.5469 Q1959.0469,578.4375 1959.2656,578.4375 Q1959.6406,578.4375 1959.875,578.6953 Q1960.1094,578.9531 1960.1094,579.5625 L1960.1094,581.0156 Q1960.1094,581.625 1959.875,581.8906 Q1959.6406,582.1563 1959.2656,582.1563 Q1958.9219,582.1563 1958.7188,581.9531 Q1958.5156,581.7656 1958.4063,581.25 Q1958.3594,580.8906 1958.1719,580.7031 Q1957.8438,580.3281 1957.2344,580.1094 Q1956.625,579.8906 1956,579.8906 Q1955.2344,579.8906 1954.6016,580.2188 Q1953.9688,580.5469 1953.4766,581.2969 Q1952.9844,582.0469 1952.9844,583.0781 L1952.9844,584.1719 Q1952.9844,585.4063 1953.875,586.2266 Q1954.7656,587.0469 1956.3594,587.0469 Q1957.2969,587.0469 1957.9531,586.7969 Q1958.3438,586.6406 1958.7656,586.2031 Q1959.0313,585.9375 1959.1797,585.8594 Q1959.3281,585.7813 1959.5313,585.7813 Q1959.8594,585.7813 1960.1172,586.0391 Q1960.375,586.2969 1960.375,586.6406 Q1960.375,586.9844 1960.0313,587.3906 Q1959.5313,587.9688 1958.7344,588.2969 Q1957.6563,588.75 1956.3594,588.75 Q1954.8438,588.75 1953.6406,588.125 Q1952.6563,587.625 1951.9688,586.5547 Q1951.2813,585.4844 1951.2813,584.2031 L1951.2813,583.0469 Q1951.2813,581.7188 1951.8984,580.5703 Q1952.5156,579.4219 1953.6094,578.8047 Q1954.7031,578.1875 1955.9375,578.1875 Q1956.6719,578.1875 1957.3203,578.3516 Q1957.9688,578.5156 1958.5156,578.875 Z " fill="#000000"/><text fill="#000000" font-family="sans-serif" font-size="12" lengthAdjust="spacing" textLength="109" x="1976.25" y="587.9102">TaxPrinterOperation</text><line style="stroke:#A80036;stroke-width:1.5;" x1="1891" x2="2138" y1="599" y2="599"/><line style="stroke:#A80036;stroke-width:1.5;" x1="1891" x2="2138" y1="607" y2="607"/><ellipse cx="1901" cy="618" fill="#84BE84" rx="3" ry="3" style="stroke:#038048;stroke-width:1.0;"/><text fill="#000000" font-family="sans-serif" font-size="11" lengthAdjust="spacing" textLength="149" x="1910" y="622.4189">visit (saleLine : SaleLine) : void</text><ellipse cx="1901" cy="631.8359" fill="#84BE84" rx="3" ry="3" style="stroke:#038048;stroke-width:1.0;"/><text fill="#000000" font-family="sans-serif" font-size="11" lengthAdjust="spacing" textLength="193" x="1910" y="636.2549">visit (repetitionLine : Repetitionine) : void</text><ellipse cx="1901" cy="645.6719" fill="#84BE84" rx="3" ry="3" style="stroke:#038048;stroke-width:1.0;"/><text fill="#000000" font-family="sans-serif" font-size="11" lengthAdjust="spacing" textLength="223" x="1910" y="650.0908">visit( cancellationLine : CancellationLine) : void</text><ellipse cx="1901" cy="659.5078" fill="#84BE84" rx="3" ry="3" style="stroke:#038048;stroke-width:1.0;"/><text fill="#000000" font-family="sans-serif" font-size="11" lengthAdjust="spacing" textLength="169" x="1910" y="663.9268">visit (returnLine : ReturnLine) : void</text><ellipse cx="1901" cy="673.3438" fill="#84BE84" rx="3" ry="3" style="stroke:#038048;stroke-width:1.0;"/><text fill="#000000" font-family="sans-serif" font-size="11" lengthAdjust="spacing" textLength="131" x="1910" y="677.7627">visit ( footer : Footer) : void</text><ellipse cx="1901" cy="687.1797" fill="#84BE84" rx="3" ry="3" style="stroke:#038048;stroke-width:1.0;"/><text fill="#000000" font-family="sans-serif" font-size="11" lengthAdjust="spacing" textLength="83" x="1910" y="691.5986">visit (head) : void</text><!--MD5=[f92524ca97f8b831cc0946ed8cb17587]
class DisplayViewerOperation--><rect codeLine="53" fill="#FEFECE" filter="url(#fujv7dxb3o7cz)" height="131.0156" id="DisplayViewerOperation" style="stroke:#A80036;stroke-width:1.5;" width="188" x="257.5" y="567"/><ellipse cx="283.3" cy="583" fill="#ADD1B2" rx="11" ry="11" style="stroke:#A80036;stroke-width:1.0;"/><path d="M286.0656,578.875 Q286.2219,578.6563 286.4094,578.5469 Q286.5969,578.4375 286.8156,578.4375 Q287.1906,578.4375 287.425,578.6953 Q287.6594,578.9531 287.6594,579.5625 L287.6594,581.0156 Q287.6594,581.625 287.425,581.8906 Q287.1906,582.1563 286.8156,582.1563 Q286.4719,582.1563 286.2688,581.9531 Q286.0656,581.7656 285.9563,581.25 Q285.9094,580.8906 285.7219,580.7031 Q285.3938,580.3281 284.7844,580.1094 Q284.175,579.8906 283.55,579.8906 Q282.7844,579.8906 282.1516,580.2188 Q281.5188,580.5469 281.0266,581.2969 Q280.5344,582.0469 280.5344,583.0781 L280.5344,584.1719 Q280.5344,585.4063 281.425,586.2266 Q282.3156,587.0469 283.9094,587.0469 Q284.8469,587.0469 285.5031,586.7969 Q285.8938,586.6406 286.3156,586.2031 Q286.5813,585.9375 286.7297,585.8594 Q286.8781,585.7813 287.0813,585.7813 Q287.4094,585.7813 287.6672,586.0391 Q287.925,586.2969 287.925,586.6406 Q287.925,586.9844 287.5813,587.3906 Q287.0813,587.9688 286.2844,588.2969 Q285.2063,588.75 283.9094,588.75 Q282.3938,588.75 281.1906,588.125 Q280.2063,587.625 279.5188,586.5547 Q278.8313,585.4844 278.8313,584.2031 L278.8313,583.0469 Q278.8313,581.7188 279.4484,580.5703 Q280.0656,579.4219 281.1594,578.8047 Q282.2531,578.1875 283.4875,578.1875 Q284.2219,578.1875 284.8703,578.3516 Q285.5188,578.5156 286.0656,578.875 Z " fill="#000000"/><text fill="#000000" font-family="sans-serif" font-size="12" lengthAdjust="spacing" textLength="132" x="299.7" y="587.9102">DisplayViewerOperation</text><line style="stroke:#A80036;stroke-width:1.5;" x1="258.5" x2="444.5" y1="599" y2="599"/><line style="stroke:#A80036;stroke-width:1.5;" x1="258.5" x2="444.5" y1="607" y2="607"/><ellipse cx="268.5" cy="618" fill="#84BE84" rx="3" ry="3" style="stroke:#038048;stroke-width:1.0;"/><text fill="#000000" font-family="sans-serif" font-size="11" lengthAdjust="spacing" textLength="125" x="277.5" y="622.4189">visit (line : SaleLine) : void</text><ellipse cx="268.5" cy="631.8359" fill="#84BE84" rx="3" ry="3" style="stroke:#038048;stroke-width:1.0;"/><text fill="#000000" font-family="sans-serif" font-size="11" lengthAdjust="spacing" textLength="145" x="277.5" y="636.2549">visit (line : Repetitionine) : void</text><ellipse cx="268.5" cy="645.6719" fill="#84BE84" rx="3" ry="3" style="stroke:#038048;stroke-width:1.0;"/><text fill="#000000" font-family="sans-serif" font-size="11" lengthAdjust="spacing" textLength="162" x="277.5" y="650.0908">visit( line : CancellationLine) : void</text><ellipse cx="268.5" cy="659.5078" fill="#84BE84" rx="3" ry="3" style="stroke:#038048;stroke-width:1.0;"/><text fill="#000000" font-family="sans-serif" font-size="11" lengthAdjust="spacing" textLength="136" x="277.5" y="663.9268">visit (line : ReturnLine) : void</text><ellipse cx="268.5" cy="673.3438" fill="#84BE84" rx="3" ry="3" style="stroke:#038048;stroke-width:1.0;"/><text fill="#000000" font-family="sans-serif" font-size="11" lengthAdjust="spacing" textLength="131" x="277.5" y="677.7627">visit ( footer : Footer) : void</text><ellipse cx="268.5" cy="687.1797" fill="#84BE84" rx="3" ry="3" style="stroke:#038048;stroke-width:1.0;"/><text fill="#000000" font-family="sans-serif" font-size="11" lengthAdjust="spacing" textLength="83" x="277.5" y="691.5986">visit (head) : void</text><!--MD5=[df94c21c8f5e9ec40328deade581185a]
class BackupOperation--><rect codeLine="62" fill="#FEFECE" filter="url(#fujv7dxb3o7cz)" height="131.0156" id="BackupOperation" style="stroke:#A80036;stroke-width:1.5;" width="188" x="1666.5" y="567"/><ellipse cx="1708.95" cy="583" fill="#ADD1B2" rx="11" ry="11" style="stroke:#A80036;stroke-width:1.0;"/><path d="M1711.7156,578.875 Q1711.8719,578.6563 1712.0594,578.5469 Q1712.2469,578.4375 1712.4656,578.4375 Q1712.8406,578.4375 1713.075,578.6953 Q1713.3094,578.9531 1713.3094,579.5625 L1713.3094,581.0156 Q1713.3094,581.625 1713.075,581.8906 Q1712.8406,582.1563 1712.4656,582.1563 Q1712.1219,582.1563 1711.9188,581.9531 Q1711.7156,581.7656 1711.6063,581.25 Q1711.5594,580.8906 1711.3719,580.7031 Q1711.0438,580.3281 1710.4344,580.1094 Q1709.825,579.8906 1709.2,579.8906 Q1708.4344,579.8906 1707.8016,580.2188 Q1707.1688,580.5469 1706.6766,581.2969 Q1706.1844,582.0469 1706.1844,583.0781 L1706.1844,584.1719 Q1706.1844,585.4063 1707.075,586.2266 Q1707.9656,587.0469 1709.5594,587.0469 Q1710.4969,587.0469 1711.1531,586.7969 Q1711.5438,586.6406 1711.9656,586.2031 Q1712.2313,585.9375 1712.3797,585.8594 Q1712.5281,585.7813 1712.7313,585.7813 Q1713.0594,585.7813 1713.3172,586.0391 Q1713.575,586.2969 1713.575,586.6406 Q1713.575,586.9844 1713.2313,587.3906 Q1712.7313,587.9688 1711.9344,588.2969 Q1710.8563,588.75 1709.5594,588.75 Q1708.0438,588.75 1706.8406,588.125 Q1705.8563,587.625 1705.1688,586.5547 Q1704.4813,585.4844 1704.4813,584.2031 L1704.4813,583.0469 Q1704.4813,581.7188 1705.0984,580.5703 Q1705.7156,579.4219 1706.8094,578.8047 Q1707.9031,578.1875 1709.1375,578.1875 Q1709.8719,578.1875 1710.5203,578.3516 Q1711.1688,578.5156 1711.7156,578.875 Z " fill="#000000"/><text fill="#000000" font-family="sans-serif" font-size="12" lengthAdjust="spacing" textLength="95" x="1729.05" y="587.9102">BackupOperation</text><line style="stroke:#A80036;stroke-width:1.5;" x1="1667.5" x2="1853.5" y1="599" y2="599"/><line style="stroke:#A80036;stroke-width:1.5;" x1="1667.5" x2="1853.5" y1="607" y2="607"/><ellipse cx="1677.5" cy="618" fill="#84BE84" rx="3" ry="3" style="stroke:#038048;stroke-width:1.0;"/><text fill="#000000" font-family="sans-serif" font-size="11" lengthAdjust="spacing" textLength="125" x="1686.5" y="622.4189">visit (line : SaleLine) : void</text><ellipse cx="1677.5" cy="631.8359" fill="#84BE84" rx="3" ry="3" style="stroke:#038048;stroke-width:1.0;"/><text fill="#000000" font-family="sans-serif" font-size="11" lengthAdjust="spacing" textLength="145" x="1686.5" y="636.2549">visit (line : Repetitionine) : void</text><ellipse cx="1677.5" cy="645.6719" fill="#84BE84" rx="3" ry="3" style="stroke:#038048;stroke-width:1.0;"/><text fill="#000000" font-family="sans-serif" font-size="11" lengthAdjust="spacing" textLength="162" x="1686.5" y="650.0908">visit( line : CancellationLine) : void</text><ellipse cx="1677.5" cy="659.5078" fill="#84BE84" rx="3" ry="3" style="stroke:#038048;stroke-width:1.0;"/><text fill="#000000" font-family="sans-serif" font-size="11" lengthAdjust="spacing" textLength="136" x="1686.5" y="663.9268">visit (line : ReturnLine) : void</text><ellipse cx="1677.5" cy="673.3438" fill="#84BE84" rx="3" ry="3" style="stroke:#038048;stroke-width:1.0;"/><text fill="#000000" font-family="sans-serif" font-size="11" lengthAdjust="spacing" textLength="131" x="1686.5" y="677.7627">visit ( footer : Footer) : void</text><ellipse cx="1677.5" cy="687.1797" fill="#84BE84" rx="3" ry="3" style="stroke:#038048;stroke-width:1.0;"/><text fill="#000000" font-family="sans-serif" font-size="11" lengthAdjust="spacing" textLength="83" x="1686.5" y="691.5986">visit (head) : void</text><!--MD5=[c408097ed98e9149031383abd9650d80]
class ClientPrinterOperation--><rect codeLine="71" fill="#FEFECE" filter="url(#fujv7dxb3o7cz)" height="131.0156" id="ClientPrinterOperation" style="stroke:#A80036;stroke-width:1.5;" width="188" x="1443.5" y="567"/><ellipse cx="1473.8" cy="583" fill="#ADD1B2" rx="11" ry="11" style="stroke:#A80036;stroke-width:1.0;"/><path d="M1476.5656,578.875 Q1476.7219,578.6563 1476.9094,578.5469 Q1477.0969,578.4375 1477.3156,578.4375 Q1477.6906,578.4375 1477.925,578.6953 Q1478.1594,578.9531 1478.1594,579.5625 L1478.1594,581.0156 Q1478.1594,581.625 1477.925,581.8906 Q1477.6906,582.1563 1477.3156,582.1563 Q1476.9719,582.1563 1476.7688,581.9531 Q1476.5656,581.7656 1476.4563,581.25 Q1476.4094,580.8906 1476.2219,580.7031 Q1475.8938,580.3281 1475.2844,580.1094 Q1474.675,579.8906 1474.05,579.8906 Q1473.2844,579.8906 1472.6516,580.2188 Q1472.0188,580.5469 1471.5266,581.2969 Q1471.0344,582.0469 1471.0344,583.0781 L1471.0344,584.1719 Q1471.0344,585.4063 1471.925,586.2266 Q1472.8156,587.0469 1474.4094,587.0469 Q1475.3469,587.0469 1476.0031,586.7969 Q1476.3938,586.6406 1476.8156,586.2031 Q1477.0813,585.9375 1477.2297,585.8594 Q1477.3781,585.7813 1477.5813,585.7813 Q1477.9094,585.7813 1478.1672,586.0391 Q1478.425,586.2969 1478.425,586.6406 Q1478.425,586.9844 1478.0813,587.3906 Q1477.5813,587.9688 1476.7844,588.2969 Q1475.7063,588.75 1474.4094,588.75 Q1472.8938,588.75 1471.6906,588.125 Q1470.7063,587.625 1470.0188,586.5547 Q1469.3313,585.4844 1469.3313,584.2031 L1469.3313,583.0469 Q1469.3313,581.7188 1469.9484,580.5703 Q1470.5656,579.4219 1471.6594,578.8047 Q1472.7531,578.1875 1473.9875,578.1875 Q1474.7219,578.1875 1475.3703,578.3516 Q1476.0188,578.5156 1476.5656,578.875 Z " fill="#000000"/><text fill="#000000" font-family="sans-serif" font-size="12" lengthAdjust="spacing" textLength="122" x="1491.2" y="587.9102">ClientPrinterOperation</text><line style="stroke:#A80036;stroke-width:1.5;" x1="1444.5" x2="1630.5" y1="599" y2="599"/><line style="stroke:#A80036;stroke-width:1.5;" x1="1444.5" x2="1630.5" y1="607" y2="607"/><ellipse cx="1454.5" cy="618" fill="#84BE84" rx="3" ry="3" style="stroke:#038048;stroke-width:1.0;"/><text fill="#000000" font-family="sans-serif" font-size="11" lengthAdjust="spacing" textLength="125" x="1463.5" y="622.4189">visit (line : SaleLine) : void</text><ellipse cx="1454.5" cy="631.8359" fill="#84BE84" rx="3" ry="3" style="stroke:#038048;stroke-width:1.0;"/><text fill="#000000" font-family="sans-serif" font-size="11" lengthAdjust="spacing" textLength="145" x="1463.5" y="636.2549">visit (line : Repetitionine) : void</text><ellipse cx="1454.5" cy="645.6719" fill="#84BE84" rx="3" ry="3" style="stroke:#038048;stroke-width:1.0;"/><text fill="#000000" font-family="sans-serif" font-size="11" lengthAdjust="spacing" textLength="162" x="1463.5" y="650.0908">visit( line : CancellationLine) : void</text><ellipse cx="1454.5" cy="659.5078" fill="#84BE84" rx="3" ry="3" style="stroke:#038048;stroke-width:1.0;"/><text fill="#000000" font-family="sans-serif" font-size="11" lengthAdjust="spacing" textLength="136" x="1463.5" y="663.9268">visit (line : ReturnLine) : void</text><ellipse cx="1454.5" cy="673.3438" fill="#84BE84" rx="3" ry="3" style="stroke:#038048;stroke-width:1.0;"/><text fill="#000000" font-family="sans-serif" font-size="11" lengthAdjust="spacing" textLength="131" x="1463.5" y="677.7627">visit ( footer : Footer) : void</text><ellipse cx="1454.5" cy="687.1797" fill="#84BE84" rx="3" ry="3" style="stroke:#038048;stroke-width:1.0;"/><text fill="#000000" font-family="sans-serif" font-size="11" lengthAdjust="spacing" textLength="83" x="1463.5" y="691.5986">visit (head) : void</text><!--MD5=[d58683e2893651630d0705ff46d38868]
class PriceCalculatorOperation--><rect codeLine="80" fill="#FEFECE" filter="url(#fujv7dxb3o7cz)" height="117.1797" id="PriceCalculatorOperation" style="stroke:#A80036;stroke-width:1.5;" width="215" x="7" y="574"/><ellipse cx="42.25" cy="590" fill="#ADD1B2" rx="11" ry="11" style="stroke:#A80036;stroke-width:1.0;"/><path d="M45.0156,585.875 Q45.1719,585.6563 45.3594,585.5469 Q45.5469,585.4375 45.7656,585.4375 Q46.1406,585.4375 46.375,585.6953 Q46.6094,585.9531 46.6094,586.5625 L46.6094,588.0156 Q46.6094,588.625 46.375,588.8906 Q46.1406,589.1563 45.7656,589.1563 Q45.4219,589.1563 45.2188,588.9531 Q45.0156,588.7656 44.9063,588.25 Q44.8594,587.8906 44.6719,587.7031 Q44.3438,587.3281 43.7344,587.1094 Q43.125,586.8906 42.5,586.8906 Q41.7344,586.8906 41.1016,587.2188 Q40.4688,587.5469 39.9766,588.2969 Q39.4844,589.0469 39.4844,590.0781 L39.4844,591.1719 Q39.4844,592.4063 40.375,593.2266 Q41.2656,594.0469 42.8594,594.0469 Q43.7969,594.0469 44.4531,593.7969 Q44.8438,593.6406 45.2656,593.2031 Q45.5313,592.9375 45.6797,592.8594 Q45.8281,592.7813 46.0313,592.7813 Q46.3594,592.7813 46.6172,593.0391 Q46.875,593.2969 46.875,593.6406 Q46.875,593.9844 46.5313,594.3906 Q46.0313,594.9688 45.2344,595.2969 Q44.1563,595.75 42.8594,595.75 Q41.3438,595.75 40.1406,595.125 Q39.1563,594.625 38.4688,593.5547 Q37.7813,592.4844 37.7813,591.2031 L37.7813,590.0469 Q37.7813,588.7188 38.3984,587.5703 Q39.0156,586.4219 40.1094,585.8047 Q41.2031,585.1875 42.4375,585.1875 Q43.1719,585.1875 43.8203,585.3516 Q44.4688,585.5156 45.0156,585.875 Z " fill="#000000"/><text fill="#000000" font-family="sans-serif" font-size="12" lengthAdjust="spacing" textLength="138" x="60.75" y="594.9102">PriceCalculatorOperation</text><line style="stroke:#A80036;stroke-width:1.5;" x1="8" x2="221" y1="606" y2="606"/><line style="stroke:#A80036;stroke-width:1.5;" x1="8" x2="221" y1="614" y2="614"/><ellipse cx="18" cy="625" fill="#84BE84" rx="3" ry="3" style="stroke:#038048;stroke-width:1.0;"/><text fill="#000000" font-family="sans-serif" font-size="11" lengthAdjust="spacing" textLength="189" x="27" y="629.4189">PriceCalculatorOperation (ticket: Ticket)</text><ellipse cx="18" cy="638.8359" fill="#84BE84" rx="3" ry="3" style="stroke:#038048;stroke-width:1.0;"/><text fill="#000000" font-family="sans-serif" font-size="11" lengthAdjust="spacing" textLength="125" x="27" y="643.2549">visit (line : SaleLine) : void</text><ellipse cx="18" cy="652.6719" fill="#84BE84" rx="3" ry="3" style="stroke:#038048;stroke-width:1.0;"/><text fill="#000000" font-family="sans-serif" font-size="11" lengthAdjust="spacing" textLength="145" x="27" y="657.0908">visit (line : Repetitionine) : void</text><ellipse cx="18" cy="666.5078" fill="#84BE84" rx="3" ry="3" style="stroke:#038048;stroke-width:1.0;"/><text fill="#000000" font-family="sans-serif" font-size="11" lengthAdjust="spacing" textLength="162" x="27" y="670.9268">visit( line : CancellationLine) : void</text><ellipse cx="18" cy="680.3438" fill="#84BE84" rx="3" ry="3" style="stroke:#038048;stroke-width:1.0;"/><text fill="#000000" font-family="sans-serif" font-size="11" lengthAdjust="spacing" textLength="136" x="27" y="684.7627">visit (line : ReturnLine) : void</text><!--MD5=[c0db0ac13928b6af400cee6e7de05a96]
class ThreeXTwoOfertOperation--><rect codeLine="88" fill="#FEFECE" filter="url(#fujv7dxb3o7cz)" height="131.0156" id="ThreeXTwoOfertOperation" style="stroke:#A80036;stroke-width:1.5;" width="188" x="1220.5" y="567"/><ellipse cx="1241.8" cy="583" fill="#ADD1B2" rx="11" ry="11" style="stroke:#A80036;stroke-width:1.0;"/><path d="M1244.5656,578.875 Q1244.7219,578.6563 1244.9094,578.5469 Q1245.0969,578.4375 1245.3156,578.4375 Q1245.6906,578.4375 1245.925,578.6953 Q1246.1594,578.9531 1246.1594,579.5625 L1246.1594,581.0156 Q1246.1594,581.625 1245.925,581.8906 Q1245.6906,582.1563 1245.3156,582.1563 Q1244.9719,582.1563 1244.7688,581.9531 Q1244.5656,581.7656 1244.4563,581.25 Q1244.4094,580.8906 1244.2219,580.7031 Q1243.8938,580.3281 1243.2844,580.1094 Q1242.675,579.8906 1242.05,579.8906 Q1241.2844,579.8906 1240.6516,580.2188 Q1240.0188,580.5469 1239.5266,581.2969 Q1239.0344,582.0469 1239.0344,583.0781 L1239.0344,584.1719 Q1239.0344,585.4063 1239.925,586.2266 Q1240.8156,587.0469 1242.4094,587.0469 Q1243.3469,587.0469 1244.0031,586.7969 Q1244.3938,586.6406 1244.8156,586.2031 Q1245.0813,585.9375 1245.2297,585.8594 Q1245.3781,585.7813 1245.5813,585.7813 Q1245.9094,585.7813 1246.1672,586.0391 Q1246.425,586.2969 1246.425,586.6406 Q1246.425,586.9844 1246.0813,587.3906 Q1245.5813,587.9688 1244.7844,588.2969 Q1243.7063,588.75 1242.4094,588.75 Q1240.8938,588.75 1239.6906,588.125 Q1238.7063,587.625 1238.0188,586.5547 Q1237.3313,585.4844 1237.3313,584.2031 L1237.3313,583.0469 Q1237.3313,581.7188 1237.9484,580.5703 Q1238.5656,579.4219 1239.6594,578.8047 Q1240.7531,578.1875 1241.9875,578.1875 Q1242.7219,578.1875 1243.3703,578.3516 Q1244.0188,578.5156 1244.5656,578.875 Z " fill="#000000"/><text fill="#000000" font-family="sans-serif" font-size="12" lengthAdjust="spacing" textLength="142" x="1257.2" y="587.9102">ThreeXTwoOfertOperation</text><line style="stroke:#A80036;stroke-width:1.5;" x1="1221.5" x2="1407.5" y1="599" y2="599"/><line style="stroke:#A80036;stroke-width:1.5;" x1="1221.5" x2="1407.5" y1="607" y2="607"/><ellipse cx="1231.5" cy="618" fill="#84BE84" rx="3" ry="3" style="stroke:#038048;stroke-width:1.0;"/><text fill="#000000" font-family="sans-serif" font-size="11" lengthAdjust="spacing" textLength="125" x="1240.5" y="622.4189">visit (line : SaleLine) : void</text><ellipse cx="1231.5" cy="631.8359" fill="#84BE84" rx="3" ry="3" style="stroke:#038048;stroke-width:1.0;"/><text fill="#000000" font-family="sans-serif" font-size="11" lengthAdjust="spacing" textLength="145" x="1240.5" y="636.2549">visit (line : Repetitionine) : void</text><ellipse cx="1231.5" cy="645.6719" fill="#84BE84" rx="3" ry="3" style="stroke:#038048;stroke-width:1.0;"/><text fill="#000000" font-family="sans-serif" font-size="11" lengthAdjust="spacing" textLength="162" x="1240.5" y="650.0908">visit( line : CancellationLine) : void</text><ellipse cx="1231.5" cy="659.5078" fill="#84BE84" rx="3" ry="3" style="stroke:#038048;stroke-width:1.0;"/><text fill="#000000" font-family="sans-serif" font-size="11" lengthAdjust="spacing" textLength="136" x="1240.5" y="663.9268">visit (line : ReturnLine) : void</text><ellipse cx="1231.5" cy="673.3438" fill="#84BE84" rx="3" ry="3" style="stroke:#038048;stroke-width:1.0;"/><text fill="#000000" font-family="sans-serif" font-size="11" lengthAdjust="spacing" textLength="131" x="1240.5" y="677.7627">visit ( footer : Footer) : void</text><ellipse cx="1231.5" cy="687.1797" fill="#84BE84" rx="3" ry="3" style="stroke:#038048;stroke-width:1.0;"/><text fill="#000000" font-family="sans-serif" font-size="11" lengthAdjust="spacing" textLength="83" x="1240.5" y="691.5986">visit (head) : void</text><!--MD5=[130607901f079c1c5b28a66eb21d2c6d]
class ScreenViewerOperation--><rect codeLine="97" fill="#FEFECE" filter="url(#fujv7dxb3o7cz)" height="131.0156" id="ScreenViewerOperation" style="stroke:#A80036;stroke-width:1.5;" width="188" x="480.5" y="567"/><ellipse cx="507.2" cy="583" fill="#ADD1B2" rx="11" ry="11" style="stroke:#A80036;stroke-width:1.0;"/><path d="M509.9656,578.875 Q510.1219,578.6563 510.3094,578.5469 Q510.4969,578.4375 510.7156,578.4375 Q511.0906,578.4375 511.325,578.6953 Q511.5594,578.9531 511.5594,579.5625 L511.5594,581.0156 Q511.5594,581.625 511.325,581.8906 Q511.0906,582.1563 510.7156,582.1563 Q510.3719,582.1563 510.1688,581.9531 Q509.9656,581.7656 509.8563,581.25 Q509.8094,580.8906 509.6219,580.7031 Q509.2938,580.3281 508.6844,580.1094 Q508.075,579.8906 507.45,579.8906 Q506.6844,579.8906 506.0516,580.2188 Q505.4188,580.5469 504.9266,581.2969 Q504.4344,582.0469 504.4344,583.0781 L504.4344,584.1719 Q504.4344,585.4063 505.325,586.2266 Q506.2156,587.0469 507.8094,587.0469 Q508.7469,587.0469 509.4031,586.7969 Q509.7938,586.6406 510.2156,586.2031 Q510.4813,585.9375 510.6297,585.8594 Q510.7781,585.7813 510.9813,585.7813 Q511.3094,585.7813 511.5672,586.0391 Q511.825,586.2969 511.825,586.6406 Q511.825,586.9844 511.4813,587.3906 Q510.9813,587.9688 510.1844,588.2969 Q509.1063,588.75 507.8094,588.75 Q506.2938,588.75 505.0906,588.125 Q504.1063,587.625 503.4188,586.5547 Q502.7313,585.4844 502.7313,584.2031 L502.7313,583.0469 Q502.7313,581.7188 503.3484,580.5703 Q503.9656,579.4219 505.0594,578.8047 Q506.1531,578.1875 507.3875,578.1875 Q508.1219,578.1875 508.7703,578.3516 Q509.4188,578.5156 509.9656,578.875 Z " fill="#000000"/><text fill="#000000" font-family="sans-serif" font-size="12" lengthAdjust="spacing" textLength="130" x="523.8" y="587.9102">ScreenViewerOperation</text><line style="stroke:#A80036;stroke-width:1.5;" x1="481.5" x2="667.5" y1="599" y2="599"/><line style="stroke:#A80036;stroke-width:1.5;" x1="481.5" x2="667.5" y1="607" y2="607"/><ellipse cx="491.5" cy="618" fill="#84BE84" rx="3" ry="3" style="stroke:#038048;stroke-width:1.0;"/><text fill="#000000" font-family="sans-serif" font-size="11" lengthAdjust="spacing" textLength="125" x="500.5" y="622.4189">visit (line : SaleLine) : void</text><ellipse cx="491.5" cy="631.8359" fill="#84BE84" rx="3" ry="3" style="stroke:#038048;stroke-width:1.0;"/><text fill="#000000" font-family="sans-serif" font-size="11" lengthAdjust="spacing" textLength="145" x="500.5" y="636.2549">visit (line : Repetitionine) : void</text><ellipse cx="491.5" cy="645.6719" fill="#84BE84" rx="3" ry="3" style="stroke:#038048;stroke-width:1.0;"/><text fill="#000000" font-family="sans-serif" font-size="11" lengthAdjust="spacing" textLength="162" x="500.5" y="650.0908">visit( line : CancellationLine) : void</text><ellipse cx="491.5" cy="659.5078" fill="#84BE84" rx="3" ry="3" style="stroke:#038048;stroke-width:1.0;"/><text fill="#000000" font-family="sans-serif" font-size="11" lengthAdjust="spacing" textLength="136" x="500.5" y="663.9268">visit (line : ReturnLine) : void</text><ellipse cx="491.5" cy="673.3438" fill="#84BE84" rx="3" ry="3" style="stroke:#038048;stroke-width:1.0;"/><text fill="#000000" font-family="sans-serif" font-size="11" lengthAdjust="spacing" textLength="131" x="500.5" y="677.7627">visit ( footer : Footer) : void</text><ellipse cx="491.5" cy="687.1797" fill="#84BE84" rx="3" ry="3" style="stroke:#038048;stroke-width:1.0;"/><text fill="#000000" font-family="sans-serif" font-size="11" lengthAdjust="spacing" textLength="83" x="500.5" y="691.5986">visit (head) : void</text><!--MD5=[21ae400bd2363cb8ce36b06a85eac84a]
class TotalPriceCalculatorOperation--><rect codeLine="106" fill="#FEFECE" filter="url(#fujv7dxb3o7cz)" height="48" id="TotalPriceCalculatorOperation" style="stroke:#A80036;stroke-width:1.5;" width="197" x="704" y="608.5"/><ellipse cx="719" cy="624.5" fill="#ADD1B2" rx="11" ry="11" style="stroke:#A80036;stroke-width:1.0;"/><path d="M721.7656,620.375 Q721.9219,620.1563 722.1094,620.0469 Q722.2969,619.9375 722.5156,619.9375 Q722.8906,619.9375 723.125,620.1953 Q723.3594,620.4531 723.3594,621.0625 L723.3594,622.5156 Q723.3594,623.125 723.125,623.3906 Q722.8906,623.6563 722.5156,623.6563 Q722.1719,623.6563 721.9688,623.4531 Q721.7656,623.2656 721.6563,622.75 Q721.6094,622.3906 721.4219,622.2031 Q721.0938,621.8281 720.4844,621.6094 Q719.875,621.3906 719.25,621.3906 Q718.4844,621.3906 717.8516,621.7188 Q717.2188,622.0469 716.7266,622.7969 Q716.2344,623.5469 716.2344,624.5781 L716.2344,625.6719 Q716.2344,626.9063 717.125,627.7266 Q718.0156,628.5469 719.6094,628.5469 Q720.5469,628.5469 721.2031,628.2969 Q721.5938,628.1406 722.0156,627.7031 Q722.2813,627.4375 722.4297,627.3594 Q722.5781,627.2813 722.7813,627.2813 Q723.1094,627.2813 723.3672,627.5391 Q723.625,627.7969 723.625,628.1406 Q723.625,628.4844 723.2813,628.8906 Q722.7813,629.4688 721.9844,629.7969 Q720.9063,630.25 719.6094,630.25 Q718.0938,630.25 716.8906,629.625 Q715.9063,629.125 715.2188,628.0547 Q714.5313,626.9844 714.5313,625.7031 L714.5313,624.5469 Q714.5313,623.2188 715.1484,622.0703 Q715.7656,620.9219 716.8594,620.3047 Q717.9531,619.6875 719.1875,619.6875 Q719.9219,619.6875 720.5703,619.8516 Q721.2188,620.0156 721.7656,620.375 Z " fill="#000000"/><text fill="#000000" font-family="sans-serif" font-size="12" lengthAdjust="spacing" textLength="165" x="733" y="629.4102">TotalPriceCalculatorOperation</text><line style="stroke:#A80036;stroke-width:1.5;" x1="705" x2="900" y1="640.5" y2="640.5"/><line style="stroke:#A80036;stroke-width:1.5;" x1="705" x2="900" y1="648.5" y2="648.5"/><!--MD5=[785d5a86d29fb586f704d2b5610f4c58]
link CountryFactory to TicketBuilder--><path codeLine="108" d="M832.5,120.19 C832.5,143.55 832.5,170.41 832.5,192.66 " fill="none" id="CountryFactory-to-TicketBuilder" style="stroke:#A80036;stroke-width:1.0;"/><polygon fill="#A80036" points="832.5,197.92,836.5,188.92,832.5,192.92,828.5,188.92,832.5,197.92" style="stroke:#A80036;stroke-width:1.0;"/><polygon fill="none" points="838.5,154.6758,842.5,158.6758,838.5,162.6758,834.5,158.6758" style="stroke:#B38D22;stroke-width:1.0;"/><text fill="#000000" font-family="sans-serif" font-size="13" lengthAdjust="spacing" textLength="72" x="845.5" y="164.4951">ticketBuilder</text><!--MD5=[1336810a4ed5cf6a373a201ded530d00]
reverse link TicketBuilder to TicketBuilder--><path codeLine="109" d="M909.02,226.85 C926.06,228.07 938.5,232.45 938.5,240 C938.5,248.33 923.36,252.81 903.59,253.43 " fill="none" id="TicketBuilder-backto-TicketBuilder" style="stroke:#A80036;stroke-width:1.0;"/><polygon fill="#A80036" points="903.59,226.57,912.3727,231.027,908.5834,226.8268,912.7836,223.0375,903.59,226.57" style="stroke:#A80036;stroke-width:1.0;"/><text fill="#000000" font-family="sans-serif" font-size="13" lengthAdjust="spacing" textLength="76" x="911.6013" y="222.5094">-ticketBuilder</text><!--MD5=[8c54851f40476c8767aa8b46f6b5f3d7]
reverse link TicketBuilder to SpanishTicketBuilder--><path codeLine="110" d="M923.42,262.63 C998.93,281.41 1108.75,310.62 1202.5,343 C1234.59,354.08 1269.27,368.17 1298.96,380.91 " fill="none" id="TicketBuilder-backto-SpanishTicketBuilder" style="stroke:#A80036;stroke-width:1.0;"/><polygon fill="none" points="921.3,269.32,903.56,257.74,924.65,255.73,921.3,269.32" style="stroke:#A80036;stroke-width:1.0;"/><!--MD5=[0b521cb538a71c520d4531cb994f797f]
reverse link TicketBuilder to FrenchTicketBuilder--><path codeLine="111" d="M742.28,273.54 C649.58,306.98 507.18,358.35 422.29,388.97 " fill="none" id="TicketBuilder-backto-FrenchTicketBuilder" style="stroke:#A80036;stroke-width:1.0;"/><polygon fill="none" points="740.08,266.9,761.27,266.69,744.83,280.06,740.08,266.9" style="stroke:#A80036;stroke-width:1.0;"/><!--MD5=[baefa3f9ee3726a709343cafb0148b1f]
link SpanishTicketBuilder to TicketOperationComposite--><path codeLine="112" d="M1319.34,453.7 C1282.31,479.14 1231.68,513.92 1185.01,545.98 " fill="none" id="SpanishTicketBuilder-to-TicketOperationComposite" style="stroke:#A80036;stroke-width:1.0;stroke-dasharray:7.0,7.0;"/><polygon fill="#A80036" points="1180.79,548.87,1190.4725,547.0674,1184.9102,546.0374,1185.9403,540.4751,1180.79,548.87" style="stroke:#A80036;stroke-width:1.0;"/><!--MD5=[16eee8c93fd1cfbd06f936d26d685f3b]
link SpanishTicketBuilder to TaxPrinterOperation--><path codeLine="113" d="M1448.24,429.86 C1547.62,449.08 1727.59,488.94 1872.5,549 C1883.66,553.63 1895.02,558.98 1906.2,564.7 " fill="none" id="SpanishTicketBuilder-to-TaxPrinterOperation" style="stroke:#A80036;stroke-width:1.0;stroke-dasharray:7.0,7.0;"/><polygon fill="#A80036" points="1910.64,566.99,1904.4669,559.3158,1906.1939,564.7026,1900.8071,566.4296,1910.64,566.99" style="stroke:#A80036;stroke-width:1.0;"/><!--MD5=[f7a2571fad7524178f1966ae3e84a1a5]
link FrenchTicketBuilder to DisplayViewerOperation--><path codeLine="114" d="M351.5,453.95 C351.5,483.54 351.5,525.66 351.5,561.45 " fill="none" id="FrenchTicketBuilder-to-DisplayViewerOperation" style="stroke:#A80036;stroke-width:1.0;stroke-dasharray:7.0,7.0;"/><polygon fill="#A80036" points="351.5,566.68,355.5,557.68,351.5,561.68,347.5,557.68,351.5,566.68" style="stroke:#A80036;stroke-width:1.0;"/><!--MD5=[a07a8f487e3ca95b78041e7d5985dc12]
link SpanishTicketBuilder to BackupOperation--><path codeLine="115" d="M1448.14,447.67 C1504.85,472.45 1583.98,509.43 1649.5,549 C1657.22,553.66 1665.06,558.73 1672.82,563.99 " fill="none" id="SpanishTicketBuilder-to-BackupOperation" style="stroke:#A80036;stroke-width:1.0;stroke-dasharray:7.0,7.0;"/><polygon fill="#A80036" points="1677.12,566.92,1671.9364,558.5456,1672.9886,564.1038,1667.4304,565.1559,1677.12,566.92" style="stroke:#A80036;stroke-width:1.0;"/><!--MD5=[2a1853b1f3130c844cf31280990e62e5]
link SpanishTicketBuilder to ClientPrinterOperation--><path codeLine="116" d="M1402.07,453.95 C1424.82,483.78 1457.29,526.35 1484.74,562.33 " fill="none" id="SpanishTicketBuilder-to-ClientPrinterOperation" style="stroke:#A80036;stroke-width:1.0;stroke-dasharray:7.0,7.0;"/><polygon fill="#A80036" points="1488.06,566.68,1485.7998,557.094,1485.0349,562.6989,1479.43,561.9341,1488.06,566.68" style="stroke:#A80036;stroke-width:1.0;"/><!--MD5=[1cbeee6f6414872e036b21ef092e49c8]
link FrenchTicketBuilder to PriceCalculatorOperation--><path codeLine="117" d="M310.49,453.7 C275.19,485.72 223.57,532.56 182.16,570.12 " fill="none" id="FrenchTicketBuilder-to-PriceCalculatorOperation" style="stroke:#A80036;stroke-width:1.0;stroke-dasharray:7.0,7.0;"/><polygon fill="#A80036" points="178.19,573.73,187.5431,570.6447,181.8929,570.3702,182.1674,564.72,178.19,573.73" style="stroke:#A80036;stroke-width:1.0;"/><!--MD5=[4eaf0bf2e7adfb2cf12de6cd8011b93f]
link SpanishTicketBuilder to ThreeXTwoOfertOperation--><path codeLine="118" d="M1363.22,453.95 C1355.1,483.54 1343.55,525.66 1333.72,561.45 " fill="none" id="SpanishTicketBuilder-to-ThreeXTwoOfertOperation" style="stroke:#A80036;stroke-width:1.0;stroke-dasharray:7.0,7.0;"/><polygon fill="#A80036" points="1332.29,566.68,1338.5133,559.0465,1333.6032,561.8555,1330.7941,556.9454,1332.29,566.68" style="stroke:#A80036;stroke-width:1.0;"/><!--MD5=[4f28311278cc97b3283a5042a9b8c754]
reverse link TicketOperation to TicketOperationComposite--><path codeLine="119" d="M1048.23,493.14 C1047.66,511.15 1047.6,530.42 1048.05,548.69 " fill="none" id="TicketOperation-backto-TicketOperationComposite" style="stroke:#A80036;stroke-width:1.0;"/><polygon fill="#A80036" points="1048.4,488.09,1044.094,496.9477,1048.2287,493.0871,1052.0893,497.2218,1048.4,488.09" style="stroke:#A80036;stroke-width:1.0;"/><text fill="#000000" font-family="sans-serif" font-size="13" lengthAdjust="spacing" textLength="137" x="903.7178" y="509.2902">-ticketOperationList 0..*</text><!--MD5=[4f28311278cc97b3283a5042a9b8c754]
reverse link TicketOperation to TicketOperationComposite--><path codeLine="120" d="M1073.87,508.15 C1074.09,521.62 1074.03,535.42 1073.68,548.69 " fill="none" id="TicketOperation-backto-TicketOperationComposite-1" style="stroke:#A80036;stroke-width:1.0;"/><polygon fill="none" points="1066.87,508.28,1073.31,488.09,1080.86,507.89,1066.87,508.28" style="stroke:#A80036;stroke-width:1.0;"/><!--MD5=[d9442aa7828225b94ecd079888da8356]
reverse link TicketOperation to TaxPrinterOperation--><path codeLine="121" d="M1204.4,467.91 C1229.84,475.6 1256.26,482.71 1281.5,488 C1539.95,542.17 1621.5,466.97 1872.5,549 C1886.86,553.69 1901.37,559.98 1915.33,567 " fill="none" id="TicketOperation-backto-TaxPrinterOperation" style="stroke:#A80036;stroke-width:1.0;"/><polygon fill="none" points="1202.2,474.56,1185.18,461.94,1206.36,461.19,1202.2,474.56" style="stroke:#A80036;stroke-width:1.0;"/><!--MD5=[f18660f674e463a4855aab81bc61c610]
reverse link TicketOperation to DisplayViewerOperation--><path codeLine="122" d="M916.12,431.25 C791.52,447.94 609.01,482.05 462.5,549 C451.58,553.99 440.69,560.18 430.24,566.9 " fill="none" id="TicketOperation-backto-DisplayViewerOperation" style="stroke:#A80036;stroke-width:1.0;"/><polygon fill="none" points="915.26,424.3,935.99,428.67,917.06,438.18,915.26,424.3" style="stroke:#A80036;stroke-width:1.0;"/><!--MD5=[b3dd725856bdc3b5a183c7f3815d7a2f]
reverse link TicketOperation to BackupOperation--><path codeLine="123" d="M1204.47,466.48 C1229.95,474.35 1256.36,481.89 1281.5,488 C1442.59,527.18 1496.91,484.18 1649.5,549 C1660.88,553.83 1672.18,560.06 1682.96,566.93 " fill="none" id="TicketOperation-backto-BackupOperation" style="stroke:#A80036;stroke-width:1.0;"/><polygon fill="none" points="1202.19,473.1,1185.21,460.42,1206.39,459.75,1202.19,473.1" style="stroke:#A80036;stroke-width:1.0;"/><!--MD5=[e78e727e5c6a40e416d6662319d477c5]
reverse link TicketOperation to ClientPrinterOperation--><path codeLine="124" d="M1204.42,463.81 C1288.94,492.53 1386.77,527.64 1426.5,549 C1436.33,554.29 1446.26,560.37 1455.91,566.8 " fill="none" id="TicketOperation-backto-ClientPrinterOperation" style="stroke:#A80036;stroke-width:1.0;"/><polygon fill="none" points="1201.92,470.36,1185.22,457.32,1206.41,457.09,1201.92,470.36" style="stroke:#A80036;stroke-width:1.0;"/><!--MD5=[db5ff064ba1d7e71583b97d6f6c5a554]
reverse link TicketOperation to PriceCalculatorOperation--><path codeLine="125" d="M916.08,432.39 C714.54,455.83 360.1,501.99 239.5,549 C222.9,555.47 206.24,564.38 190.73,573.97 " fill="none" id="TicketOperation-backto-PriceCalculatorOperation" style="stroke:#A80036;stroke-width:1.0;"/><polygon fill="none" points="915.32,425.43,935.99,430.09,916.92,439.34,915.32,425.43" style="stroke:#A80036;stroke-width:1.0;"/><!--MD5=[e2fd2e43e347c76fd817e0584ea045e7]
reverse link TicketOperation to ThreeXTwoOfertOperation--><path codeLine="126" d="M1160.47,501.12 C1186.26,522.95 1213.61,546.1 1237.99,566.74 " fill="none" id="TicketOperation-backto-ThreeXTwoOfertOperation" style="stroke:#A80036;stroke-width:1.0;"/><polygon fill="none" points="1155.82,506.36,1145.08,488.09,1164.87,495.67,1155.82,506.36" style="stroke:#A80036;stroke-width:1.0;"/><!--MD5=[79fad71e8ac620d69a5ade40bb891cb7]
reverse link TicketOperation to ScreenViewerOperation--><path codeLine="127" d="M916.59,456.55 C845.27,479.09 759.11,510.49 686.5,549 C676.47,554.32 666.35,560.47 656.51,566.96 " fill="none" id="TicketOperation-backto-ScreenViewerOperation" style="stroke:#A80036;stroke-width:1.0;"/><polygon fill="none" points="914.63,449.83,935.81,450.57,918.79,463.19,914.63,449.83" style="stroke:#A80036;stroke-width:1.0;"/><!--MD5=[2c702c3d1858621d4d8e07c6ef0c875b]
reverse link TicketOperation to TotalPriceCalculatorOperation--><path codeLine="128" d="M959.05,501.04 C912.55,539.79 861.03,582.72 830.24,608.39 " fill="none" id="TicketOperation-backto-TotalPriceCalculatorOperation" style="stroke:#A80036;stroke-width:1.0;"/><polygon fill="none" points="954.74,495.52,974.59,488.09,963.71,506.27,954.74,495.52" style="stroke:#A80036;stroke-width:1.0;"/><!--MD5=[26a43cb1f42a4c81d59ec06fdfe18f19]
@startuml builder

class CountryFactory <<abstractFactory>> <<singleton>> {
+{static} instance() : CountryFactory
+ getTicket() : Ticket
+ getMenu() : Menu
}

class TicketBuilder <<builder>> {
+{static}instance(): TicketBuilder
+ build() : Ticket
}

class TicketOperation {
+ set( ticket : Ticket) : void
+ visit (saleLine : SaleLine) : void
+ visit (repetitionLine : Repetitionine) : void
+ visit( cancellationLine : CancellationLine) : void
+ visit (returnLine : ReturnLine) : void
+ visit ( footer : Footer) : void
+ visit (head) : void
}

class SpanishTicketBuilder {
~ SpanishTicketBuilder()
+ build() : Ticket
}

class FrenchTicketBuilder {
~ FrenchTicketBuilder()
+ build() : Ticket
}

class TicketOperationComposite <<composite>> {
+ TicketOperationComposite()
+ set( ticket : Ticket) : void
+ visit (saleLine : SaleLine) : void
+ visit (repetitionLine : Repetitionine) : void
+ visit( cancellationLine : CancellationLine) : void
+ visit (returnLine : ReturnLine) : void
+ visit ( footer : Footer) : void
+ visit (head) : void
}

class TaxPrinterOperation {
+ visit (saleLine : SaleLine) : void
+ visit (repetitionLine : Repetitionine) : void
+ visit( cancellationLine : CancellationLine) : void
+ visit (returnLine : ReturnLine) : void
+ visit ( footer : Footer) : void
+ visit (head) : void
}

class DisplayViewerOperation {
+ visit (line : SaleLine) : void
+ visit (line : Repetitionine) : void
+ visit( line : CancellationLine) : void
+ visit (line : ReturnLine) : void
+ visit ( footer : Footer) : void
+ visit (head) : void
}

class BackupOperation {
+ visit (line : SaleLine) : void
+ visit (line : Repetitionine) : void
+ visit( line : CancellationLine) : void
+ visit (line : ReturnLine) : void
+ visit ( footer : Footer) : void
+ visit (head) : void
}

class ClientPrinterOperation {
+ visit (line : SaleLine) : void
+ visit (line : Repetitionine) : void
+ visit( line : CancellationLine) : void
+ visit (line : ReturnLine) : void
+ visit ( footer : Footer) : void
+ visit (head) : void
}

class PriceCalculatorOperation {
+PriceCalculatorOperation (ticket: Ticket)
+ visit (line : SaleLine) : void
+ visit (line : Repetitionine) : void
+ visit( line : CancellationLine) : void
+ visit (line : ReturnLine) : void
}

class ThreeXTwoOfertOperation {
+ visit (line : SaleLine) : void
+ visit (line : Repetitionine) : void
+ visit( line : CancellationLine) : void
+ visit (line : ReturnLine) : void
+ visit ( footer : Footer) : void
+ visit (head) : void
}

class ScreenViewerOperation {
+ visit (line : SaleLine) : void
+ visit (line : Repetitionine) : void
+ visit( line : CancellationLine) : void
+ visit (line : ReturnLine) : void
+ visit ( footer : Footer) : void
+ visit (head) : void
}

class TotalPriceCalculatorOperation

CountryFactory - -> TicketBuilder : #ticketBuilder
TicketBuilder "-ticketBuilder" <- - TicketBuilder
TicketBuilder <|- - SpanishTicketBuilder
TicketBuilder <|- - FrenchTicketBuilder
SpanishTicketBuilder ..> TicketOperationComposite
SpanishTicketBuilder ..> TaxPrinterOperation
FrenchTicketBuilder ..> DisplayViewerOperation
SpanishTicketBuilder ..> BackupOperation
SpanishTicketBuilder ..> ClientPrinterOperation
FrenchTicketBuilder ..> PriceCalculatorOperation
SpanishTicketBuilder ..> ThreeXTwoOfertOperation
TicketOperation "-ticketOperationList 0..*" <- - TicketOperationComposite
TicketOperation <|- - TicketOperationComposite
TicketOperation <|- - TaxPrinterOperation
TicketOperation <|- - DisplayViewerOperation
TicketOperation <|- - BackupOperation
TicketOperation <|- - ClientPrinterOperation
TicketOperation <|- - PriceCalculatorOperation
TicketOperation <|- - ThreeXTwoOfertOperation
TicketOperation <|- - ScreenViewerOperation
TicketOperation <|- - TotalPriceCalculatorOperation

@enduml

PlantUML version 1.2021.7(Sun May 23 14:40:07 CEST 2021)
(GPL source distribution)
Java Runtime: Java(TM) SE Runtime Environment
JVM: Java HotSpot(TM) 64-Bit Server VM
Default Encoding: Cp1252
Language: es
Country: ES
--></g></svg>