<?xml version="1.0" encoding="UTF-8" standalone="no"?><svg xmlns="http://www.w3.org/2000/svg" xmlns:xlink="http://www.w3.org/1999/xlink" contentScriptType="application/ecmascript" contentStyleType="text/css" height="536px" preserveAspectRatio="none" style="width:937px;height:536px;background:#FFFFFF;" version="1.1" viewBox="0 0 937 536" width="937px" zoomAndPan="magnify"><defs><filter height="300%" id="f1kcxffhicnajo" width="300%" x="-1" y="-1"><feGaussianBlur result="blurOut" stdDeviation="2.0"/><feColorMatrix in="blurOut" result="blurOut2" type="matrix" values="0 0 0 0 0 0 0 0 0 0 0 0 0 0 0 0 0 0 .4 0"/><feOffset dx="4.0" dy="4.0" in="blurOut2" result="blurOut3"/><feBlend in="SourceGraphic" in2="blurOut3" mode="normal"/></filter></defs><g><!--MD5=[8abb8a37461013dd54f8b6ff9203b957]
class Supermarket--><rect codeLine="1" fill="#FEFECE" filter="url(#f1kcxffhicnajo)" height="103.3438" id="Supermarket" style="stroke:#A80036;stroke-width:1.5;" width="167" x="356.7779" y="7"/><ellipse cx="400.5779" cy="23" fill="#ADD1B2" rx="11" ry="11" style="stroke:#A80036;stroke-width:1.0;"/><path d="M403.3435,18.875 Q403.4998,18.6563 403.6873,18.5469 Q403.8748,18.4375 404.0935,18.4375 Q404.4685,18.4375 404.7029,18.6953 Q404.9373,18.9531 404.9373,19.5625 L404.9373,21.0156 Q404.9373,21.625 404.7029,21.8906 Q404.4685,22.1563 404.0935,22.1563 Q403.7498,22.1563 403.5466,21.9531 Q403.3435,21.7656 403.2341,21.25 Q403.1873,20.8906 402.9998,20.7031 Q402.6716,20.3281 402.0623,20.1094 Q401.4529,19.8906 400.8279,19.8906 Q400.0623,19.8906 399.4294,20.2188 Q398.7966,20.5469 398.3044,21.2969 Q397.8123,22.0469 397.8123,23.0781 L397.8123,24.1719 Q397.8123,25.4063 398.7029,26.2266 Q399.5935,27.0469 401.1873,27.0469 Q402.1248,27.0469 402.781,26.7969 Q403.1716,26.6406 403.5935,26.2031 Q403.8591,25.9375 404.0076,25.8594 Q404.156,25.7813 404.3591,25.7813 Q404.6873,25.7813 404.9451,26.0391 Q405.2029,26.2969 405.2029,26.6406 Q405.2029,26.9844 404.8591,27.3906 Q404.3591,27.9688 403.5623,28.2969 Q402.4841,28.75 401.1873,28.75 Q399.6716,28.75 398.4685,28.125 Q397.4841,27.625 396.7966,26.5547 Q396.1091,25.4844 396.1091,24.2031 L396.1091,23.0469 Q396.1091,21.7188 396.7263,20.5703 Q397.3435,19.4219 398.4373,18.8047 Q399.531,18.1875 400.7654,18.1875 Q401.4998,18.1875 402.1482,18.3516 Q402.7966,18.5156 403.3435,18.875 Z " fill="#000000"/><text fill="#000000" font-family="sans-serif" font-size="12" lengthAdjust="spacing" textLength="71" x="420.9779" y="27.9102">Supermarket</text><line style="stroke:#A80036;stroke-width:1.5;" x1="357.7779" x2="522.7779" y1="39" y2="39"/><rect fill="none" height="6" style="stroke:#C82930;stroke-width:1.0;" width="6" x="364.7779" y="47"/><text fill="#000000" font-family="sans-serif" font-size="11" lengthAdjust="spacing" text-decoration="underline" textLength="141" x="376.7779" y="54.4189">CLOSING TIME: double = 20.0</text><line style="stroke:#A80036;stroke-width:1.5;" x1="357.7779" x2="522.7779" y1="60.8359" y2="60.8359"/><rect fill="#F24D5C" height="6" style="stroke:#C82930;stroke-width:1.0;" width="6" x="364.7779" y="68.8359"/><text fill="#000000" font-family="sans-serif" font-size="11" lengthAdjust="spacing" textLength="69" x="376.7779" y="76.2549">Supermarket()</text><rect fill="#F24D5C" height="6" style="stroke:#C82930;stroke-width:1.0;" width="6" x="364.7779" y="82.6719"/><text fill="#000000" font-family="sans-serif" font-size="11" lengthAdjust="spacing" textLength="49" x="376.7779" y="90.0908">set(): void</text><ellipse cx="367.7779" cy="99.5078" fill="#84BE84" rx="3" ry="3" style="stroke:#038048;stroke-width:1.0;"/><text fill="#000000" font-family="sans-serif" font-size="11" lengthAdjust="spacing" text-decoration="underline" textLength="129" x="376.7779" y="103.9268">main(args : String"[]") :void</text><!--MD5=[f0268dd29ee89052933f031546cb1cab]
class Menu--><rect codeLine="8" fill="#FEFECE" filter="url(#f1kcxffhicnajo)" height="153.0391" id="Menu" style="stroke:#A80036;stroke-width:1.5;" width="161" x="57.7779" y="181"/><ellipse cx="92.1279" cy="201.0938" fill="#ADD1B2" rx="11" ry="11" style="stroke:#A80036;stroke-width:1.0;"/><path d="M94.8935,196.9688 Q95.0498,196.75 95.2373,196.6406 Q95.4248,196.5313 95.6435,196.5313 Q96.0185,196.5313 96.2529,196.7891 Q96.4873,197.0469 96.4873,197.6563 L96.4873,199.1094 Q96.4873,199.7188 96.2529,199.9844 Q96.0185,200.25 95.6435,200.25 Q95.2998,200.25 95.0966,200.0469 Q94.8935,199.8594 94.7841,199.3438 Q94.7373,198.9844 94.5498,198.7969 Q94.2216,198.4219 93.6123,198.2031 Q93.0029,197.9844 92.3779,197.9844 Q91.6123,197.9844 90.9794,198.3125 Q90.3466,198.6406 89.8544,199.3906 Q89.3623,200.1406 89.3623,201.1719 L89.3623,202.2656 Q89.3623,203.5 90.2529,204.3203 Q91.1435,205.1406 92.7373,205.1406 Q93.6748,205.1406 94.331,204.8906 Q94.7216,204.7344 95.1435,204.2969 Q95.4091,204.0313 95.5576,203.9531 Q95.706,203.875 95.9091,203.875 Q96.2373,203.875 96.4951,204.1328 Q96.7529,204.3906 96.7529,204.7344 Q96.7529,205.0781 96.4091,205.4844 Q95.9091,206.0625 95.1123,206.3906 Q94.0341,206.8438 92.7373,206.8438 Q91.2216,206.8438 90.0185,206.2188 Q89.0341,205.7188 88.3466,204.6484 Q87.6591,203.5781 87.6591,202.2969 L87.6591,201.1406 Q87.6591,199.8125 88.2763,198.6641 Q88.8935,197.5156 89.9873,196.8984 Q91.081,196.2813 92.3154,196.2813 Q93.0498,196.2813 93.6982,196.4453 Q94.3466,196.6094 94.8935,196.9688 Z " fill="#000000"/><text fill="#000000" font-family="sans-serif" font-size="12" font-style="italic" lengthAdjust="spacing" textLength="90" x="108.4279" y="198.457">«factoryMethod»</text><text fill="#000000" font-family="sans-serif" font-size="12" lengthAdjust="spacing" textLength="30" x="138.4279" y="213.5508">Menu</text><line style="stroke:#A80036;stroke-width:1.5;" x1="58.7779" x2="217.7779" y1="221.1875" y2="221.1875"/><line style="stroke:#A80036;stroke-width:1.5;" x1="58.7779" x2="217.7779" y1="229.1875" y2="229.1875"/><ellipse cx="68.7779" cy="240.1875" fill="#84BE84" rx="3" ry="3" style="stroke:#038048;stroke-width:1.0;"/><text fill="#000000" font-family="sans-serif" font-size="11" lengthAdjust="spacing" textLength="34" x="77.7779" y="244.6064">Menu()</text><polygon fill="#FFFF44" points="68.7779,249.0234,72.7779,253.0234,68.7779,257.0234,64.7779,253.0234" style="stroke:#B38D22;stroke-width:1.0;"/><text fill="#000000" font-family="sans-serif" font-size="11" lengthAdjust="spacing" textLength="102" x="77.7779" y="258.4424">setCommands() :void</text><polygon fill="#FFFF44" points="68.7779,262.8594,72.7779,266.8594,68.7779,270.8594,64.7779,266.8594" style="stroke:#B38D22;stroke-width:1.0;"/><text fill="#000000" font-family="sans-serif" font-size="11" lengthAdjust="spacing" textLength="111" x="77.7779" y="272.2783">set(ticket: Ticket) : void</text><ellipse cx="68.7779" cy="281.6953" fill="#84BE84" rx="3" ry="3" style="stroke:#038048;stroke-width:1.0;"/><text fill="#000000" font-family="sans-serif" font-size="11" lengthAdjust="spacing" textLength="135" x="77.7779" y="286.1143">execute( ticket: Ticket) :void</text><rect fill="#F24D5C" height="6" style="stroke:#C82930;stroke-width:1.0;" width="6" x="65.7779" y="292.5313"/><text fill="#000000" font-family="sans-serif" font-size="11" lengthAdjust="spacing" textLength="59" x="77.7779" y="299.9502">write(): void</text><rect fill="#F24D5C" height="6" style="stroke:#C82930;stroke-width:1.0;" width="6" x="65.7779" y="306.3672"/><text fill="#000000" font-family="sans-serif" font-size="11" lengthAdjust="spacing" textLength="74" x="77.7779" y="313.7861">getOption() : int</text><ellipse cx="68.7779" cy="323.2031" fill="#84BE84" rx="3" ry="3" style="stroke:#038048;stroke-width:1.0;"/><text fill="#000000" font-family="sans-serif" font-size="11" lengthAdjust="spacing" textLength="87" x="77.7779" y="327.6221">closed() : boolean</text><!--MD5=[521817ab83e81da341a3f4b5e91bae41]
class Command--><rect codeLine="18" fill="#FEFECE" filter="url(#f1kcxffhicnajo)" height="111.5313" id="Command" style="stroke:#A80036;stroke-width:1.5;" width="140" x="345.2779" y="201.5"/><ellipse cx="379.1779" cy="221.5938" fill="#ADD1B2" rx="11" ry="11" style="stroke:#A80036;stroke-width:1.0;"/><path d="M381.9435,217.4688 Q382.0998,217.25 382.2873,217.1406 Q382.4748,217.0313 382.6935,217.0313 Q383.0685,217.0313 383.3029,217.2891 Q383.5373,217.5469 383.5373,218.1563 L383.5373,219.6094 Q383.5373,220.2188 383.3029,220.4844 Q383.0685,220.75 382.6935,220.75 Q382.3498,220.75 382.1466,220.5469 Q381.9435,220.3594 381.8341,219.8438 Q381.7873,219.4844 381.5998,219.2969 Q381.2716,218.9219 380.6623,218.7031 Q380.0529,218.4844 379.4279,218.4844 Q378.6623,218.4844 378.0294,218.8125 Q377.3966,219.1406 376.9044,219.8906 Q376.4123,220.6406 376.4123,221.6719 L376.4123,222.7656 Q376.4123,224 377.3029,224.8203 Q378.1935,225.6406 379.7873,225.6406 Q380.7248,225.6406 381.381,225.3906 Q381.7716,225.2344 382.1935,224.7969 Q382.4591,224.5313 382.6076,224.4531 Q382.756,224.375 382.9591,224.375 Q383.2873,224.375 383.5451,224.6328 Q383.8029,224.8906 383.8029,225.2344 Q383.8029,225.5781 383.4591,225.9844 Q382.9591,226.5625 382.1623,226.8906 Q381.0841,227.3438 379.7873,227.3438 Q378.2716,227.3438 377.0685,226.7188 Q376.0841,226.2188 375.3966,225.1484 Q374.7091,224.0781 374.7091,222.7969 L374.7091,221.6406 Q374.7091,220.3125 375.3263,219.1641 Q375.9435,218.0156 377.0373,217.3984 Q378.131,216.7813 379.3654,216.7813 Q380.0998,216.7813 380.7482,216.9453 Q381.3966,217.1094 381.9435,217.4688 Z " fill="#000000"/><text fill="#000000" font-family="sans-serif" font-size="12" font-style="italic" lengthAdjust="spacing" textLength="70" x="395.3779" y="218.957">«command»</text><text fill="#000000" font-family="sans-serif" font-size="12" lengthAdjust="spacing" textLength="59" x="400.8779" y="234.0508">Command</text><line style="stroke:#A80036;stroke-width:1.5;" x1="346.2779" x2="484.2779" y1="241.6875" y2="241.6875"/><line style="stroke:#A80036;stroke-width:1.5;" x1="346.2779" x2="484.2779" y1="249.6875" y2="249.6875"/><polygon fill="#FFFF44" points="356.2779,255.6875,360.2779,259.6875,356.2779,263.6875,352.2779,259.6875" style="stroke:#B38D22;stroke-width:1.0;"/><text fill="#000000" font-family="sans-serif" font-size="11" lengthAdjust="spacing" textLength="111" x="365.2779" y="265.1064">Command (title : String)</text><ellipse cx="356.2779" cy="274.5234" fill="#84BE84" rx="3" ry="3" style="stroke:#038048;stroke-width:1.0;"/><text fill="#000000" font-family="sans-serif" font-size="11" lengthAdjust="spacing" textLength="114" x="365.2779" y="278.9424">set(ticket : Ticket) : void</text><ellipse cx="356.2779" cy="288.3594" fill="#84BE84" rx="3" ry="3" style="stroke:#038048;stroke-width:1.0;"/><text fill="#000000" font-family="sans-serif" font-size="11" lengthAdjust="spacing" textLength="79" x="365.2779" y="292.7783">getTitle() : String</text><ellipse cx="356.2779" cy="302.1953" fill="#84BE84" rx="3" ry="3" style="stroke:#038048;stroke-width:1.0;"/><text fill="#000000" font-family="sans-serif" font-size="11" lengthAdjust="spacing" textLength="76" x="365.2779" y="306.6143">execute() : void</text><!--MD5=[ac6bea31e13c94c7baa9ad18feb7405e]
class Ticket--><rect codeLine="25" fill="#FEFECE" filter="url(#f1kcxffhicnajo)" height="172.5234" id="Ticket" style="stroke:#A80036;stroke-width:1.5;" width="357" x="565.7779" y="171"/><ellipse cx="724.0279" cy="187" fill="#ADD1B2" rx="11" ry="11" style="stroke:#A80036;stroke-width:1.0;"/><path d="M726.7935,182.875 Q726.9498,182.6563 727.1373,182.5469 Q727.3248,182.4375 727.5435,182.4375 Q727.9185,182.4375 728.1529,182.6953 Q728.3873,182.9531 728.3873,183.5625 L728.3873,185.0156 Q728.3873,185.625 728.1529,185.8906 Q727.9185,186.1563 727.5435,186.1563 Q727.1998,186.1563 726.9966,185.9531 Q726.7935,185.7656 726.6841,185.25 Q726.6373,184.8906 726.4498,184.7031 Q726.1216,184.3281 725.5123,184.1094 Q724.9029,183.8906 724.2779,183.8906 Q723.5123,183.8906 722.8794,184.2188 Q722.2466,184.5469 721.7544,185.2969 Q721.2623,186.0469 721.2623,187.0781 L721.2623,188.1719 Q721.2623,189.4063 722.1529,190.2266 Q723.0435,191.0469 724.6373,191.0469 Q725.5748,191.0469 726.231,190.7969 Q726.6216,190.6406 727.0435,190.2031 Q727.3091,189.9375 727.4576,189.8594 Q727.606,189.7813 727.8091,189.7813 Q728.1373,189.7813 728.3951,190.0391 Q728.6529,190.2969 728.6529,190.6406 Q728.6529,190.9844 728.3091,191.3906 Q727.8091,191.9688 727.0123,192.2969 Q725.9341,192.75 724.6373,192.75 Q723.1216,192.75 721.9185,192.125 Q720.9341,191.625 720.2466,190.5547 Q719.5591,189.4844 719.5591,188.2031 L719.5591,187.0469 Q719.5591,185.7188 720.1763,184.5703 Q720.7935,183.4219 721.8873,182.8047 Q722.981,182.1875 724.2154,182.1875 Q724.9498,182.1875 725.5982,182.3516 Q726.2466,182.5156 726.7935,182.875 Z " fill="#000000"/><text fill="#000000" font-family="sans-serif" font-size="12" lengthAdjust="spacing" textLength="32" x="744.5279" y="191.9102">Ticket</text><line style="stroke:#A80036;stroke-width:1.5;" x1="566.7779" x2="921.7779" y1="203" y2="203"/><line style="stroke:#A80036;stroke-width:1.5;" x1="566.7779" x2="921.7779" y1="211" y2="211"/><ellipse cx="576.7779" cy="222" fill="#84BE84" rx="3" ry="3" style="stroke:#038048;stroke-width:1.0;"/><text fill="#000000" font-family="sans-serif" font-size="11" lengthAdjust="spacing" textLength="100" x="585.7779" y="226.4189">add(line : Line) : void</text><ellipse cx="576.7779" cy="235.8359" fill="#84BE84" rx="3" ry="3" style="stroke:#038048;stroke-width:1.0;"/><text fill="#000000" font-family="sans-serif" font-size="11" lengthAdjust="spacing" textLength="50" x="585.7779" y="240.2549">lines() : int</text><ellipse cx="576.7779" cy="249.6719" fill="#84BE84" rx="3" ry="3" style="stroke:#038048;stroke-width:1.0;"/><text fill="#000000" font-family="sans-serif" font-size="11" lengthAdjust="spacing" textLength="131" x="585.7779" y="254.0908">getLine (number : int) : Line</text><ellipse cx="576.7779" cy="263.5078" fill="#84BE84" rx="3" ry="3" style="stroke:#038048;stroke-width:1.0;"/><text fill="#000000" font-family="sans-serif" font-size="11" lengthAdjust="spacing" textLength="63" x="585.7779" y="267.9268">close() : void</text><ellipse cx="576.7779" cy="277.3438" fill="#84BE84" rx="3" ry="3" style="stroke:#038048;stroke-width:1.0;"/><text fill="#000000" font-family="sans-serif" font-size="11" lengthAdjust="spacing" textLength="82" x="585.7779" y="281.7627">toString() : String</text><ellipse cx="576.7779" cy="291.1797" fill="#84BE84" rx="3" ry="3" style="stroke:#038048;stroke-width:1.0;"/><text fill="#000000" font-family="sans-serif" font-size="11" lengthAdjust="spacing" textLength="145" x="585.7779" y="295.5986">Ticket(header, footer : Footer)</text><ellipse cx="576.7779" cy="305.0156" fill="#84BE84" rx="3" ry="3" style="stroke:#038048;stroke-width:1.0;"/><text fill="#000000" font-family="sans-serif" font-size="11" lengthAdjust="spacing" textLength="309" x="585.7779" y="309.4346">setLineTicketOperation (lineTicketOperation : TicketVisitor) : void</text><ellipse cx="576.7779" cy="318.8516" fill="#84BE84" rx="3" ry="3" style="stroke:#038048;stroke-width:1.0;"/><text fill="#000000" font-family="sans-serif" font-size="11" lengthAdjust="spacing" textLength="331" x="585.7779" y="323.2705">setGlobalTicketOperation( globalTicketOperation : TicketVisitor) : void</text><ellipse cx="576.7779" cy="332.6875" fill="#84BE84" rx="3" ry="3" style="stroke:#038048;stroke-width:1.0;"/><text fill="#000000" font-family="sans-serif" font-size="11" lengthAdjust="spacing" textLength="58" x="585.7779" y="337.1064">open(): void</text><!--MD5=[e40388dd56f3eba72af3e3cbb6f3c87a]
class ExitCommand--><rect codeLine="37" fill="#FEFECE" filter="url(#f1kcxffhicnajo)" height="117.1797" id="ExitCommand" style="stroke:#A80036;stroke-width:1.5;" width="113" x="24.7779" y="405"/><ellipse cx="41.1279" cy="421" fill="#ADD1B2" rx="11" ry="11" style="stroke:#A80036;stroke-width:1.0;"/><path d="M43.8935,416.875 Q44.0498,416.6563 44.2373,416.5469 Q44.4248,416.4375 44.6435,416.4375 Q45.0185,416.4375 45.2529,416.6953 Q45.4873,416.9531 45.4873,417.5625 L45.4873,419.0156 Q45.4873,419.625 45.2529,419.8906 Q45.0185,420.1563 44.6435,420.1563 Q44.2998,420.1563 44.0966,419.9531 Q43.8935,419.7656 43.7841,419.25 Q43.7373,418.8906 43.5498,418.7031 Q43.2216,418.3281 42.6123,418.1094 Q42.0029,417.8906 41.3779,417.8906 Q40.6123,417.8906 39.9794,418.2188 Q39.3466,418.5469 38.8544,419.2969 Q38.3623,420.0469 38.3623,421.0781 L38.3623,422.1719 Q38.3623,423.4063 39.2529,424.2266 Q40.1435,425.0469 41.7373,425.0469 Q42.6748,425.0469 43.331,424.7969 Q43.7216,424.6406 44.1435,424.2031 Q44.4091,423.9375 44.5576,423.8594 Q44.706,423.7813 44.9091,423.7813 Q45.2373,423.7813 45.4951,424.0391 Q45.7529,424.2969 45.7529,424.6406 Q45.7529,424.9844 45.4091,425.3906 Q44.9091,425.9688 44.1123,426.2969 Q43.0341,426.75 41.7373,426.75 Q40.2216,426.75 39.0185,426.125 Q38.0341,425.625 37.3466,424.5547 Q36.6591,423.4844 36.6591,422.2031 L36.6591,421.0469 Q36.6591,419.7188 37.2763,418.5703 Q37.8935,417.4219 38.9873,416.8047 Q40.081,416.1875 41.3154,416.1875 Q42.0498,416.1875 42.6982,416.3516 Q43.3466,416.5156 43.8935,416.875 Z " fill="#000000"/><text fill="#000000" font-family="sans-serif" font-size="12" lengthAdjust="spacing" textLength="78" x="55.4279" y="425.9102">ExitCommand</text><line style="stroke:#A80036;stroke-width:1.5;" x1="25.7779" x2="136.7779" y1="437" y2="437"/><rect fill="none" height="6" style="stroke:#C82930;stroke-width:1.0;" width="6" x="32.7779" y="445"/><text fill="#000000" font-family="sans-serif" font-size="11" lengthAdjust="spacing" textLength="79" x="44.7779" y="452.4189">closed : boolean</text><line style="stroke:#A80036;stroke-width:1.5;" x1="25.7779" x2="136.7779" y1="458.8359" y2="458.8359"/><polygon fill="#FFFF44" points="35.7779,464.8359,39.7779,468.8359,35.7779,472.8359,31.7779,468.8359" style="stroke:#B38D22;stroke-width:1.0;"/><text fill="#000000" font-family="sans-serif" font-size="11" lengthAdjust="spacing" textLength="72" x="44.7779" y="474.2549">ExitCommand()</text><ellipse cx="35.7779" cy="483.6719" fill="#84BE84" rx="3" ry="3" style="stroke:#038048;stroke-width:1.0;"/><text fill="#000000" font-family="sans-serif" font-size="11" lengthAdjust="spacing" textLength="76" x="44.7779" y="488.0908">execute() : void</text><ellipse cx="35.7779" cy="497.5078" fill="#84BE84" rx="3" ry="3" style="stroke:#038048;stroke-width:1.0;"/><text fill="#000000" font-family="sans-serif" font-size="11" lengthAdjust="spacing" textLength="87" x="44.7779" y="501.9268">closed() : boolean</text><ellipse cx="35.7779" cy="511.3438" fill="#84BE84" rx="3" ry="3" style="stroke:#038048;stroke-width:1.0;"/><text fill="#000000" font-family="sans-serif" font-size="11" lengthAdjust="spacing" textLength="62" x="44.7779" y="515.7627">reset() : void</text><!--MD5=[26bd714db0b772b818134506cda43b10]
class SaleLineCommand--><rect codeLine="45" fill="#FEFECE" filter="url(#f1kcxffhicnajo)" height="75.6719" id="SaleLineCommand" style="stroke:#A80036;stroke-width:1.5;" width="140" x="173.2779" y="425.5"/><ellipse cx="188.2779" cy="441.5" fill="#ADD1B2" rx="11" ry="11" style="stroke:#A80036;stroke-width:1.0;"/><path d="M191.0435,437.375 Q191.1998,437.1563 191.3873,437.0469 Q191.5748,436.9375 191.7935,436.9375 Q192.1685,436.9375 192.4029,437.1953 Q192.6373,437.4531 192.6373,438.0625 L192.6373,439.5156 Q192.6373,440.125 192.4029,440.3906 Q192.1685,440.6563 191.7935,440.6563 Q191.4498,440.6563 191.2466,440.4531 Q191.0435,440.2656 190.9341,439.75 Q190.8873,439.3906 190.6998,439.2031 Q190.3716,438.8281 189.7623,438.6094 Q189.1529,438.3906 188.5279,438.3906 Q187.7623,438.3906 187.1294,438.7188 Q186.4966,439.0469 186.0044,439.7969 Q185.5123,440.5469 185.5123,441.5781 L185.5123,442.6719 Q185.5123,443.9063 186.4029,444.7266 Q187.2935,445.5469 188.8873,445.5469 Q189.8248,445.5469 190.481,445.2969 Q190.8716,445.1406 191.2935,444.7031 Q191.5591,444.4375 191.7076,444.3594 Q191.856,444.2813 192.0591,444.2813 Q192.3873,444.2813 192.6451,444.5391 Q192.9029,444.7969 192.9029,445.1406 Q192.9029,445.4844 192.5591,445.8906 Q192.0591,446.4688 191.2623,446.7969 Q190.1841,447.25 188.8873,447.25 Q187.3716,447.25 186.1685,446.625 Q185.1841,446.125 184.4966,445.0547 Q183.8091,443.9844 183.8091,442.7031 L183.8091,441.5469 Q183.8091,440.2188 184.4263,439.0703 Q185.0435,437.9219 186.1373,437.3047 Q187.231,436.6875 188.4654,436.6875 Q189.1998,436.6875 189.8482,436.8516 Q190.4966,437.0156 191.0435,437.375 Z " fill="#000000"/><text fill="#000000" font-family="sans-serif" font-size="12" lengthAdjust="spacing" textLength="108" x="202.2779" y="446.4102">SaleLineCommand</text><line style="stroke:#A80036;stroke-width:1.5;" x1="174.2779" x2="312.2779" y1="457.5" y2="457.5"/><line style="stroke:#A80036;stroke-width:1.5;" x1="174.2779" x2="312.2779" y1="465.5" y2="465.5"/><ellipse cx="184.2779" cy="476.5" fill="#84BE84" rx="3" ry="3" style="stroke:#038048;stroke-width:1.0;"/><text fill="#000000" font-family="sans-serif" font-size="11" lengthAdjust="spacing" textLength="96" x="193.2779" y="480.9189">SaleLineCommand()</text><ellipse cx="184.2779" cy="490.3359" fill="#84BE84" rx="3" ry="3" style="stroke:#038048;stroke-width:1.0;"/><text fill="#000000" font-family="sans-serif" font-size="11" lengthAdjust="spacing" textLength="76" x="193.2779" y="494.7549">execute() : void</text><!--MD5=[a1cb9b9cc8ec094ffd32179ba48d40c1]
class RepetitionLineCommand--><rect codeLine="50" fill="#FEFECE" filter="url(#f1kcxffhicnajo)" height="75.6719" id="RepetitionLineCommand" style="stroke:#A80036;stroke-width:1.5;" width="171" x="348.7779" y="425.5"/><ellipse cx="363.7779" cy="441.5" fill="#ADD1B2" rx="11" ry="11" style="stroke:#A80036;stroke-width:1.0;"/><path d="M366.5435,437.375 Q366.6998,437.1563 366.8873,437.0469 Q367.0748,436.9375 367.2935,436.9375 Q367.6685,436.9375 367.9029,437.1953 Q368.1373,437.4531 368.1373,438.0625 L368.1373,439.5156 Q368.1373,440.125 367.9029,440.3906 Q367.6685,440.6563 367.2935,440.6563 Q366.9498,440.6563 366.7466,440.4531 Q366.5435,440.2656 366.4341,439.75 Q366.3873,439.3906 366.1998,439.2031 Q365.8716,438.8281 365.2623,438.6094 Q364.6529,438.3906 364.0279,438.3906 Q363.2623,438.3906 362.6294,438.7188 Q361.9966,439.0469 361.5044,439.7969 Q361.0123,440.5469 361.0123,441.5781 L361.0123,442.6719 Q361.0123,443.9063 361.9029,444.7266 Q362.7935,445.5469 364.3873,445.5469 Q365.3248,445.5469 365.981,445.2969 Q366.3716,445.1406 366.7935,444.7031 Q367.0591,444.4375 367.2076,444.3594 Q367.356,444.2813 367.5591,444.2813 Q367.8873,444.2813 368.1451,444.5391 Q368.4029,444.7969 368.4029,445.1406 Q368.4029,445.4844 368.0591,445.8906 Q367.5591,446.4688 366.7623,446.7969 Q365.6841,447.25 364.3873,447.25 Q362.8716,447.25 361.6685,446.625 Q360.6841,446.125 359.9966,445.0547 Q359.3091,443.9844 359.3091,442.7031 L359.3091,441.5469 Q359.3091,440.2188 359.9263,439.0703 Q360.5435,437.9219 361.6373,437.3047 Q362.731,436.6875 363.9654,436.6875 Q364.6998,436.6875 365.3482,436.8516 Q365.9966,437.0156 366.5435,437.375 Z " fill="#000000"/><text fill="#000000" font-family="sans-serif" font-size="12" lengthAdjust="spacing" textLength="139" x="377.7779" y="446.4102">RepetitionLineCommand</text><line style="stroke:#A80036;stroke-width:1.5;" x1="349.7779" x2="518.7779" y1="457.5" y2="457.5"/><line style="stroke:#A80036;stroke-width:1.5;" x1="349.7779" x2="518.7779" y1="465.5" y2="465.5"/><ellipse cx="359.7779" cy="476.5" fill="#84BE84" rx="3" ry="3" style="stroke:#038048;stroke-width:1.0;"/><text fill="#000000" font-family="sans-serif" font-size="11" lengthAdjust="spacing" textLength="122" x="368.7779" y="480.9189">RepetitionLineCommand()</text><ellipse cx="359.7779" cy="490.3359" fill="#84BE84" rx="3" ry="3" style="stroke:#038048;stroke-width:1.0;"/><text fill="#000000" font-family="sans-serif" font-size="11" lengthAdjust="spacing" textLength="76" x="368.7779" y="494.7549">execute() : void</text><!--MD5=[ca0cb4773383ab6176b5490858a65d28]
class CancelationLineCommand--><rect codeLine="55" fill="#FEFECE" filter="url(#f1kcxffhicnajo)" height="75.6719" id="CancelationLineCommand" style="stroke:#A80036;stroke-width:1.5;" width="181" x="554.7779" y="425.5"/><ellipse cx="569.7779" cy="441.5" fill="#ADD1B2" rx="11" ry="11" style="stroke:#A80036;stroke-width:1.0;"/><path d="M572.5435,437.375 Q572.6998,437.1563 572.8873,437.0469 Q573.0748,436.9375 573.2935,436.9375 Q573.6685,436.9375 573.9029,437.1953 Q574.1373,437.4531 574.1373,438.0625 L574.1373,439.5156 Q574.1373,440.125 573.9029,440.3906 Q573.6685,440.6563 573.2935,440.6563 Q572.9498,440.6563 572.7466,440.4531 Q572.5435,440.2656 572.4341,439.75 Q572.3873,439.3906 572.1998,439.2031 Q571.8716,438.8281 571.2623,438.6094 Q570.6529,438.3906 570.0279,438.3906 Q569.2623,438.3906 568.6294,438.7188 Q567.9966,439.0469 567.5044,439.7969 Q567.0123,440.5469 567.0123,441.5781 L567.0123,442.6719 Q567.0123,443.9063 567.9029,444.7266 Q568.7935,445.5469 570.3873,445.5469 Q571.3248,445.5469 571.981,445.2969 Q572.3716,445.1406 572.7935,444.7031 Q573.0591,444.4375 573.2076,444.3594 Q573.356,444.2813 573.5591,444.2813 Q573.8873,444.2813 574.1451,444.5391 Q574.4029,444.7969 574.4029,445.1406 Q574.4029,445.4844 574.0591,445.8906 Q573.5591,446.4688 572.7623,446.7969 Q571.6841,447.25 570.3873,447.25 Q568.8716,447.25 567.6685,446.625 Q566.6841,446.125 565.9966,445.0547 Q565.3091,443.9844 565.3091,442.7031 L565.3091,441.5469 Q565.3091,440.2188 565.9263,439.0703 Q566.5435,437.9219 567.6373,437.3047 Q568.731,436.6875 569.9654,436.6875 Q570.6998,436.6875 571.3482,436.8516 Q571.9966,437.0156 572.5435,437.375 Z " fill="#000000"/><text fill="#000000" font-family="sans-serif" font-size="12" lengthAdjust="spacing" textLength="149" x="583.7779" y="446.4102">CancelationLineCommand</text><line style="stroke:#A80036;stroke-width:1.5;" x1="555.7779" x2="734.7779" y1="457.5" y2="457.5"/><line style="stroke:#A80036;stroke-width:1.5;" x1="555.7779" x2="734.7779" y1="465.5" y2="465.5"/><ellipse cx="565.7779" cy="476.5" fill="#84BE84" rx="3" ry="3" style="stroke:#038048;stroke-width:1.0;"/><text fill="#000000" font-family="sans-serif" font-size="11" lengthAdjust="spacing" textLength="131" x="574.7779" y="480.9189">CancelationLineCommand()</text><ellipse cx="565.7779" cy="490.3359" fill="#84BE84" rx="3" ry="3" style="stroke:#038048;stroke-width:1.0;"/><text fill="#000000" font-family="sans-serif" font-size="11" lengthAdjust="spacing" textLength="76" x="574.7779" y="494.7549">execute() : void</text><!--MD5=[bbdb907f32b2818631dfb56b1af1cb40]
class ReturnLineCommand--><rect codeLine="60" fill="#FEFECE" filter="url(#f1kcxffhicnajo)" height="75.6719" id="ReturnLineCommand" style="stroke:#A80036;stroke-width:1.5;" width="152" x="771.2779" y="425.5"/><ellipse cx="786.2779" cy="441.5" fill="#ADD1B2" rx="11" ry="11" style="stroke:#A80036;stroke-width:1.0;"/><path d="M789.0435,437.375 Q789.1998,437.1563 789.3873,437.0469 Q789.5748,436.9375 789.7935,436.9375 Q790.1685,436.9375 790.4029,437.1953 Q790.6373,437.4531 790.6373,438.0625 L790.6373,439.5156 Q790.6373,440.125 790.4029,440.3906 Q790.1685,440.6563 789.7935,440.6563 Q789.4498,440.6563 789.2466,440.4531 Q789.0435,440.2656 788.9341,439.75 Q788.8873,439.3906 788.6998,439.2031 Q788.3716,438.8281 787.7623,438.6094 Q787.1529,438.3906 786.5279,438.3906 Q785.7623,438.3906 785.1294,438.7188 Q784.4966,439.0469 784.0044,439.7969 Q783.5123,440.5469 783.5123,441.5781 L783.5123,442.6719 Q783.5123,443.9063 784.4029,444.7266 Q785.2935,445.5469 786.8873,445.5469 Q787.8248,445.5469 788.481,445.2969 Q788.8716,445.1406 789.2935,444.7031 Q789.5591,444.4375 789.7076,444.3594 Q789.856,444.2813 790.0591,444.2813 Q790.3873,444.2813 790.6451,444.5391 Q790.9029,444.7969 790.9029,445.1406 Q790.9029,445.4844 790.5591,445.8906 Q790.0591,446.4688 789.2623,446.7969 Q788.1841,447.25 786.8873,447.25 Q785.3716,447.25 784.1685,446.625 Q783.1841,446.125 782.4966,445.0547 Q781.8091,443.9844 781.8091,442.7031 L781.8091,441.5469 Q781.8091,440.2188 782.4263,439.0703 Q783.0435,437.9219 784.1373,437.3047 Q785.231,436.6875 786.4654,436.6875 Q787.1998,436.6875 787.8482,436.8516 Q788.4966,437.0156 789.0435,437.375 Z " fill="#000000"/><text fill="#000000" font-family="sans-serif" font-size="12" lengthAdjust="spacing" textLength="120" x="800.2779" y="446.4102">ReturnLineCommand</text><line style="stroke:#A80036;stroke-width:1.5;" x1="772.2779" x2="922.2779" y1="457.5" y2="457.5"/><line style="stroke:#A80036;stroke-width:1.5;" x1="772.2779" x2="922.2779" y1="465.5" y2="465.5"/><ellipse cx="782.2779" cy="476.5" fill="#84BE84" rx="3" ry="3" style="stroke:#038048;stroke-width:1.0;"/><text fill="#000000" font-family="sans-serif" font-size="11" lengthAdjust="spacing" textLength="107" x="791.2779" y="480.9189">ReturnLineCommand()</text><ellipse cx="782.2779" cy="490.3359" fill="#84BE84" rx="3" ry="3" style="stroke:#038048;stroke-width:1.0;"/><text fill="#000000" font-family="sans-serif" font-size="11" lengthAdjust="spacing" textLength="76" x="791.2779" y="494.7549">execute() : void</text><!--MD5=[2312ce705f4aacf328758aba73082a6d]
link Supermarket to Menu--><path codeLine="65" d="M362.5079,110.23 C319.8379,138.06 266.8879,172.61 223.1479,201.14 " fill="none" id="Supermarket-to-Menu" style="stroke:#A80036;stroke-width:1.0;"/><polygon fill="#A80036" points="218.9479,203.88,228.6718,202.3161,223.1365,201.1495,224.303,195.6143,218.9479,203.88" style="stroke:#A80036;stroke-width:1.0;"/><text fill="#000000" font-family="sans-serif" font-size="13" lengthAdjust="spacing" textLength="40" x="226.6554" y="196.6693">- menu</text><!--MD5=[8bf2187686c37c46c0b68ce8cb633e27]
link Supermarket to Ticket--><path codeLine="66" d="M518.5679,110.23 C545.8179,127.89 577.2279,148.25 607.7979,168.06 " fill="none" id="Supermarket-to-Ticket" style="stroke:#A80036;stroke-width:1.0;stroke-dasharray:7.0,7.0;"/><polygon fill="#A80036" points="612.3079,170.98,606.9201,162.7355,608.1085,168.2661,602.5779,169.4545,612.3079,170.98" style="stroke:#A80036;stroke-width:1.0;"/><!--MD5=[98c4a24fe9e49a0a8a74bd94a1940f41]
link Menu to Command--><path codeLine="67" d="M219.1379,257.5 C257.1979,257.5 302.3079,257.5 339.6679,257.5 " fill="none" id="Menu-to-Command" style="stroke:#A80036;stroke-width:1.0;"/><polygon fill="#A80036" points="345.1279,257.5,336.1279,253.5,340.1279,257.5,336.1279,261.5,345.1279,257.5" style="stroke:#A80036;stroke-width:1.0;"/><polygon fill="none" points="242.0279,241.1758,246.0279,245.1758,242.0279,249.1758,238.0279,245.1758" style="stroke:#B38D22;stroke-width:1.0;"/><text fill="#000000" font-family="sans-serif" font-size="13" lengthAdjust="spacing" textLength="78" x="249.0279" y="250.9951">commandList</text><text fill="#000000" font-family="sans-serif" font-size="13" lengthAdjust="spacing" textLength="16" x="321.0687" y="254.2124">0.*</text><!--MD5=[750f527e0499205eca5a2c9485184a7d]
link Command to Ticket--><path codeLine="68" d="M485.4579,257.5 C507.8379,257.5 533.7379,257.5 560.3179,257.5 " fill="none" id="Command-to-Ticket" style="stroke:#A80036;stroke-width:1.0;"/><polygon fill="#A80036" points="565.6479,257.5,556.6479,253.5,560.6479,257.5,556.6479,261.5,565.6479,257.5" style="stroke:#A80036;stroke-width:1.0;"/><polygon fill="none" points="508.5279,241.1758,512.5279,245.1758,508.5279,249.1758,504.5279,245.1758" style="stroke:#B38D22;stroke-width:1.0;"/><text fill="#000000" font-family="sans-serif" font-size="13" lengthAdjust="spacing" textLength="32" x="515.5279" y="250.9951">ticket</text><!--MD5=[beb053380ff3c9907a3d1287a1c168a5]
link Menu to ExitCommand--><path codeLine="69" d="M117.1379,334.17 C111.0879,355.8 104.5779,379.12 98.7779,399.87 " fill="none" id="Menu-to-ExitCommand" style="stroke:#A80036;stroke-width:1.0;"/><polygon fill="#A80036" points="97.3979,404.81,103.6689,397.2156,98.7413,399.9938,95.963,395.0662,97.3979,404.81" style="stroke:#A80036;stroke-width:1.0;"/><text fill="#000000" font-family="sans-serif" font-size="13" lengthAdjust="spacing" textLength="88" x="6" y="394.1877">- exitCommand</text><!--MD5=[e0ffea9f9ee189e5b060c1c2b241b02c]
reverse link Command to ExitCommand--><path codeLine="70" d="M327.3279,303.87 C276.0379,331.35 210.7279,368.12 155.2779,405 C149.5879,408.78 143.7779,412.87 138.0279,417.07 " fill="none" id="Command-backto-ExitCommand" style="stroke:#A80036;stroke-width:1.0;"/><polygon fill="none" points="324.2579,297.57,345.1979,294.36,330.8279,309.94,324.2579,297.57" style="stroke:#A80036;stroke-width:1.0;"/><!--MD5=[092fc7246f2e43899b833d7b6eb9c166]
reverse link Command to SaleLineCommand--><path codeLine="71" d="M355.7179,329.14 C328.4479,361.49 297.2479,398.49 274.6379,425.3 " fill="none" id="Command-backto-SaleLineCommand" style="stroke:#A80036;stroke-width:1.0;"/><polygon fill="none" points="350.4879,324.48,368.7279,313.71,361.1879,333.51,350.4879,324.48" style="stroke:#A80036;stroke-width:1.0;"/><!--MD5=[2e733f3379859edabad27f08ede6b747]
reverse link Command to RepetitionLineCommand--><path codeLine="72" d="M422.3079,334.03 C425.2079,365.16 428.4379,399.83 430.8179,425.3 " fill="none" id="Command-backto-RepetitionLineCommand" style="stroke:#A80036;stroke-width:1.0;"/><polygon fill="none" points="415.3079,334.27,420.4179,313.71,429.2479,332.97,415.3079,334.27" style="stroke:#A80036;stroke-width:1.0;"/><!--MD5=[2d42a12e76f57257b472fa09e1069663]
reverse link Command to CancelationLineCommand--><path codeLine="73" d="M492.9379,327.38 C529.8679,360.14 572.5579,398 603.3379,425.3 " fill="none" id="Command-backto-CancelationLineCommand" style="stroke:#A80036;stroke-width:1.0;"/><polygon fill="none" points="487.8379,332.21,477.5179,313.71,497.1279,321.74,487.8379,332.21" style="stroke:#A80036;stroke-width:1.0;"/><!--MD5=[c5afed720c94444c070cdfdb0097c267]
reverse link Command to ReturnLineCommand--><path codeLine="74" d="M502.4079,319.39 C517.3079,328.38 532.9479,336.96 548.2779,344 C634.6679,383.65 666.4479,366.32 753.2779,405 C766.2079,410.76 779.5179,418 791.9079,425.37 " fill="none" id="Command-backto-ReturnLineCommand" style="stroke:#A80036;stroke-width:1.0;"/><polygon fill="none" points="498.5679,325.25,485.2979,308.73,505.9679,313.37,498.5679,325.25" style="stroke:#A80036;stroke-width:1.0;"/><!--MD5=[0e394ae99fab175f71c7f64cb21e1d44]
@startuml Command
class Supermarket {
-{static} CLOSING TIME: double = 20.0
- Supermarket()
- set(): void
+{static} main(args : String"[]") :void
}

class Menu <<factoryMethod>> {
+ Menu()
# setCommands() :void
# set(ticket: Ticket) : void
+ execute( ticket: Ticket) :void
- write(): void
- getOption() : int
+ closed() : boolean
}

class Command <<command>> {
#Command (title : String)
+ set(ticket : Ticket) : void
+ getTitle() : String
+ execute() : void
}

class Ticket {
+ add(line : Line) : void
+ lines() : int
+ getLine (number : int) : Line
+ close() : void
+ toString() : String
+ Ticket(header, footer : Footer)
+ setLineTicketOperation (lineTicketOperation : TicketVisitor) : void
+ setGlobalTicketOperation( globalTicketOperation : TicketVisitor) : void
+ open(): void
}

class ExitCommand {
- closed : boolean
# ExitCommand()
+ execute() : void
+ closed() : boolean
+ reset() : void
}

class SaleLineCommand {
+ SaleLineCommand()
+ execute() : void
}

class RepetitionLineCommand {
+ RepetitionLineCommand()
+ execute() : void
}

class CancelationLineCommand {
+ CancelationLineCommand()
+ execute() : void
}

class ReturnLineCommand {
+ ReturnLineCommand()
+ execute() : void
}

Supermarket -down-> "- menu" Menu
Supermarket .down.> Ticket
Menu -right-> "0.*" Command :#commandList
Command -right-> Ticket :#ticket
Menu -down-> "- exitCommand" ExitCommand 
Command <|-down- ExitCommand
Command <|-down- SaleLineCommand
Command <|-down- RepetitionLineCommand
Command <|-down- CancelationLineCommand
Command <|-down- ReturnLineCommand
@enduml

PlantUML version 1.2021.7(Sun May 23 14:40:07 CEST 2021)
(GPL source distribution)
Java Runtime: Java(TM) SE Runtime Environment
JVM: Java HotSpot(TM) 64-Bit Server VM
Default Encoding: Cp1252
Language: es
Country: ES
--></g></svg>