<?xml version="1.0" encoding="UTF-8" standalone="no"?><svg xmlns="http://www.w3.org/2000/svg" xmlns:xlink="http://www.w3.org/1999/xlink" contentScriptType="application/ecmascript" contentStyleType="text/css" height="542px" preserveAspectRatio="none" style="width:1126px;height:542px;background:#FFFFFF;" version="1.1" viewBox="0 0 1126 542" width="1126px" zoomAndPan="magnify"><defs><filter height="300%" id="f1sosbs8m3jcb5" width="300%" x="-1" y="-1"><feGaussianBlur result="blurOut" stdDeviation="2.0"/><feColorMatrix in="blurOut" result="blurOut2" type="matrix" values="0 0 0 0 0 0 0 0 0 0 0 0 0 0 0 0 0 0 .4 0"/><feOffset dx="4.0" dy="4.0" in="blurOut2" result="blurOut3"/><feBlend in="SourceGraphic" in2="blurOut3" mode="normal"/></filter></defs><g><!--MD5=[0851c38ccebc5bf68e448c5e4cf66cff]
class CountryFactory--><rect codeLine="2" fill="#FEFECE" filter="url(#f1sosbs8m3jcb5)" height="112.7891" id="CountryFactory" style="stroke:#A80036;stroke-width:1.5;" width="159" x="134" y="27"/><ellipse cx="163.85" cy="54.6406" fill="#ADD1B2" rx="11" ry="11" style="stroke:#A80036;stroke-width:1.0;"/><path d="M166.6156,50.5156 Q166.7719,50.2969 166.9594,50.1875 Q167.1469,50.0781 167.3656,50.0781 Q167.7406,50.0781 167.975,50.3359 Q168.2094,50.5938 168.2094,51.2031 L168.2094,52.6563 Q168.2094,53.2656 167.975,53.5313 Q167.7406,53.7969 167.3656,53.7969 Q167.0219,53.7969 166.8188,53.5938 Q166.6156,53.4063 166.5063,52.8906 Q166.4594,52.5313 166.2719,52.3438 Q165.9438,51.9688 165.3344,51.75 Q164.725,51.5313 164.1,51.5313 Q163.3344,51.5313 162.7016,51.8594 Q162.0688,52.1875 161.5766,52.9375 Q161.0844,53.6875 161.0844,54.7188 L161.0844,55.8125 Q161.0844,57.0469 161.975,57.8672 Q162.8656,58.6875 164.4594,58.6875 Q165.3969,58.6875 166.0531,58.4375 Q166.4438,58.2813 166.8656,57.8438 Q167.1313,57.5781 167.2797,57.5 Q167.4281,57.4219 167.6313,57.4219 Q167.9594,57.4219 168.2172,57.6797 Q168.475,57.9375 168.475,58.2813 Q168.475,58.625 168.1313,59.0313 Q167.6313,59.6094 166.8344,59.9375 Q165.7563,60.3906 164.4594,60.3906 Q162.9438,60.3906 161.7406,59.7656 Q160.7563,59.2656 160.0688,58.1953 Q159.3813,57.125 159.3813,55.8438 L159.3813,54.6875 Q159.3813,53.3594 159.9984,52.2109 Q160.6156,51.0625 161.7094,50.4453 Q162.8031,49.8281 164.0375,49.8281 Q164.7719,49.8281 165.4203,49.9922 Q166.0688,50.1563 166.6156,50.5156 Z " fill="#000000"/><text fill="#000000" font-family="sans-serif" font-size="12" font-style="italic" lengthAdjust="spacing" textLength="98" x="179.15" y="44.457">«abstractFactory»</text><text fill="#000000" font-family="sans-serif" font-size="12" font-style="italic" lengthAdjust="spacing" textLength="64" x="196.15" y="59.5508">«singleton»</text><text fill="#000000" font-family="sans-serif" font-size="12" lengthAdjust="spacing" textLength="81" x="187.65" y="74.6445">CountryFactory</text><line style="stroke:#A80036;stroke-width:1.5;" x1="135" x2="292" y1="82.2813" y2="82.2813"/><line style="stroke:#A80036;stroke-width:1.5;" x1="135" x2="292" y1="90.2813" y2="90.2813"/><ellipse cx="145" cy="101.2813" fill="#84BE84" rx="3" ry="3" style="stroke:#038048;stroke-width:1.0;"/><text fill="#000000" font-family="sans-serif" font-size="11" lengthAdjust="spacing" textLength="133" x="154" y="105.7002">instance() : CountryFactory</text><ellipse cx="145" cy="115.1172" fill="#84BE84" rx="3" ry="3" style="stroke:#038048;stroke-width:1.0;"/><text fill="#000000" font-family="sans-serif" font-size="11" lengthAdjust="spacing" textLength="88" x="154" y="119.5361">getTicket() : Ticket</text><ellipse cx="145" cy="128.9531" fill="#84BE84" rx="3" ry="3" style="stroke:#038048;stroke-width:1.0;"/><text fill="#000000" font-family="sans-serif" font-size="11" lengthAdjust="spacing" textLength="84" x="154" y="133.3721">getMenu() : Menu</text><!--MD5=[f0268dd29ee89052933f031546cb1cab]
class Menu--><rect codeLine="8" fill="#FEFECE" filter="url(#f1sosbs8m3jcb5)" height="153.0391" id="Menu" style="stroke:#A80036;stroke-width:1.5;" width="167" x="374" y="7"/><ellipse cx="411.05" cy="27.0938" fill="#ADD1B2" rx="11" ry="11" style="stroke:#A80036;stroke-width:1.0;"/><path d="M413.8156,22.9688 Q413.9719,22.75 414.1594,22.6406 Q414.3469,22.5313 414.5656,22.5313 Q414.9406,22.5313 415.175,22.7891 Q415.4094,23.0469 415.4094,23.6563 L415.4094,25.1094 Q415.4094,25.7188 415.175,25.9844 Q414.9406,26.25 414.5656,26.25 Q414.2219,26.25 414.0188,26.0469 Q413.8156,25.8594 413.7063,25.3438 Q413.6594,24.9844 413.4719,24.7969 Q413.1438,24.4219 412.5344,24.2031 Q411.925,23.9844 411.3,23.9844 Q410.5344,23.9844 409.9016,24.3125 Q409.2688,24.6406 408.7766,25.3906 Q408.2844,26.1406 408.2844,27.1719 L408.2844,28.2656 Q408.2844,29.5 409.175,30.3203 Q410.0656,31.1406 411.6594,31.1406 Q412.5969,31.1406 413.2531,30.8906 Q413.6438,30.7344 414.0656,30.2969 Q414.3313,30.0313 414.4797,29.9531 Q414.6281,29.875 414.8313,29.875 Q415.1594,29.875 415.4172,30.1328 Q415.675,30.3906 415.675,30.7344 Q415.675,31.0781 415.3313,31.4844 Q414.8313,32.0625 414.0344,32.3906 Q412.9563,32.8438 411.6594,32.8438 Q410.1438,32.8438 408.9406,32.2188 Q407.9563,31.7188 407.2688,30.6484 Q406.5813,29.5781 406.5813,28.2969 L406.5813,27.1406 Q406.5813,25.8125 407.1984,24.6641 Q407.8156,23.5156 408.9094,22.8984 Q410.0031,22.2813 411.2375,22.2813 Q411.9719,22.2813 412.6203,22.4453 Q413.2688,22.6094 413.8156,22.9688 Z " fill="#000000"/><text fill="#000000" font-family="sans-serif" font-size="12" font-style="italic" lengthAdjust="spacing" textLength="90" x="427.95" y="24.457">«factoryMethod»</text><text fill="#000000" font-family="sans-serif" font-size="12" lengthAdjust="spacing" textLength="30" x="457.95" y="39.5508">Menu</text><line style="stroke:#A80036;stroke-width:1.5;" x1="375" x2="540" y1="47.1875" y2="47.1875"/><line style="stroke:#A80036;stroke-width:1.5;" x1="375" x2="540" y1="55.1875" y2="55.1875"/><ellipse cx="385" cy="66.1875" fill="#84BE84" rx="3" ry="3" style="stroke:#038048;stroke-width:1.0;"/><text fill="#000000" font-family="sans-serif" font-size="11" lengthAdjust="spacing" textLength="34" x="394" y="70.6064">Menu()</text><polygon fill="#FFFF44" points="385,75.0234,389,79.0234,385,83.0234,381,79.0234" style="stroke:#B38D22;stroke-width:1.0;"/><text fill="#000000" font-family="sans-serif" font-size="11" lengthAdjust="spacing" textLength="99" x="394" y="84.4424">setCommand() : void</text><polygon fill="#FFFF44" points="385,88.8594,389,92.8594,385,96.8594,381,92.8594" style="stroke:#B38D22;stroke-width:1.0;"/><text fill="#000000" font-family="sans-serif" font-size="11" lengthAdjust="spacing" textLength="114" x="394" y="98.2783">set(ticket : Ticket) : void</text><ellipse cx="385" cy="107.6953" fill="#84BE84" rx="3" ry="3" style="stroke:#038048;stroke-width:1.0;"/><text fill="#000000" font-family="sans-serif" font-size="11" lengthAdjust="spacing" textLength="141" x="394" y="112.1143">execute (ticket : Ticket) : void</text><rect fill="#F24D5C" height="6" style="stroke:#C82930;stroke-width:1.0;" width="6" x="382" y="118.5313"/><text fill="#000000" font-family="sans-serif" font-size="11" lengthAdjust="spacing" textLength="62" x="394" y="125.9502">write() : void</text><rect fill="#F24D5C" height="6" style="stroke:#C82930;stroke-width:1.0;" width="6" x="382" y="132.3672"/><text fill="#000000" font-family="sans-serif" font-size="11" lengthAdjust="spacing" textLength="74" x="394" y="139.7861">getOption() : int</text><ellipse cx="385" cy="149.2031" fill="#84BE84" rx="3" ry="3" style="stroke:#038048;stroke-width:1.0;"/><text fill="#000000" font-family="sans-serif" font-size="11" lengthAdjust="spacing" textLength="87" x="394" y="153.6221">closed() : boolean</text><!--MD5=[521817ab83e81da341a3f4b5e91bae41]
class Command--><rect codeLine="18" fill="#FEFECE" filter="url(#f1sosbs8m3jcb5)" height="111.5313" id="Command" style="stroke:#A80036;stroke-width:1.5;" width="143" x="301" y="238"/><ellipse cx="336.25" cy="258.0938" fill="#ADD1B2" rx="11" ry="11" style="stroke:#A80036;stroke-width:1.0;"/><path d="M339.0156,253.9688 Q339.1719,253.75 339.3594,253.6406 Q339.5469,253.5313 339.7656,253.5313 Q340.1406,253.5313 340.375,253.7891 Q340.6094,254.0469 340.6094,254.6563 L340.6094,256.1094 Q340.6094,256.7188 340.375,256.9844 Q340.1406,257.25 339.7656,257.25 Q339.4219,257.25 339.2188,257.0469 Q339.0156,256.8594 338.9063,256.3438 Q338.8594,255.9844 338.6719,255.7969 Q338.3438,255.4219 337.7344,255.2031 Q337.125,254.9844 336.5,254.9844 Q335.7344,254.9844 335.1016,255.3125 Q334.4688,255.6406 333.9766,256.3906 Q333.4844,257.1406 333.4844,258.1719 L333.4844,259.2656 Q333.4844,260.5 334.375,261.3203 Q335.2656,262.1406 336.8594,262.1406 Q337.7969,262.1406 338.4531,261.8906 Q338.8438,261.7344 339.2656,261.2969 Q339.5313,261.0313 339.6797,260.9531 Q339.8281,260.875 340.0313,260.875 Q340.3594,260.875 340.6172,261.1328 Q340.875,261.3906 340.875,261.7344 Q340.875,262.0781 340.5313,262.4844 Q340.0313,263.0625 339.2344,263.3906 Q338.1563,263.8438 336.8594,263.8438 Q335.3438,263.8438 334.1406,263.2188 Q333.1563,262.7188 332.4688,261.6484 Q331.7813,260.5781 331.7813,259.2969 L331.7813,258.1406 Q331.7813,256.8125 332.3984,255.6641 Q333.0156,254.5156 334.1094,253.8984 Q335.2031,253.2813 336.4375,253.2813 Q337.1719,253.2813 337.8203,253.4453 Q338.4688,253.6094 339.0156,253.9688 Z " fill="#000000"/><text fill="#000000" font-family="sans-serif" font-size="12" font-style="italic" lengthAdjust="spacing" textLength="70" x="352.75" y="255.457">«command»</text><text fill="#000000" font-family="sans-serif" font-size="12" lengthAdjust="spacing" textLength="59" x="358.25" y="270.5508">Command</text><line style="stroke:#A80036;stroke-width:1.5;" x1="302" x2="443" y1="278.1875" y2="278.1875"/><line style="stroke:#A80036;stroke-width:1.5;" x1="302" x2="443" y1="286.1875" y2="286.1875"/><polygon fill="#FFFF44" points="312,292.1875,316,296.1875,312,300.1875,308,296.1875" style="stroke:#B38D22;stroke-width:1.0;"/><text fill="#000000" font-family="sans-serif" font-size="11" lengthAdjust="spacing" textLength="111" x="321" y="301.6064">Command (title : String)</text><ellipse cx="312" cy="311.0234" fill="#84BE84" rx="3" ry="3" style="stroke:#038048;stroke-width:1.0;"/><text fill="#000000" font-family="sans-serif" font-size="11" lengthAdjust="spacing" textLength="117" x="321" y="315.4424">set (ticket : Ticket) : void</text><ellipse cx="312" cy="324.8594" fill="#84BE84" rx="3" ry="3" style="stroke:#038048;stroke-width:1.0;"/><text fill="#000000" font-family="sans-serif" font-size="11" lengthAdjust="spacing" textLength="79" x="321" y="329.2783">getTitle() : String</text><ellipse cx="312" cy="338.6953" fill="#84BE84" rx="3" ry="3" style="stroke:#038048;stroke-width:1.0;"/><text fill="#000000" font-family="sans-serif" font-size="11" lengthAdjust="spacing" textLength="82" x="321" y="343.1143">exeocute() : void</text><!--MD5=[34e551b54d759b8458017b8e7d8bd3e0]
class SpanishMenu--><rect codeLine="25" fill="#FEFECE" filter="url(#f1sosbs8m3jcb5)" height="61.8359" id="SpanishMenu" style="stroke:#A80036;stroke-width:1.5;" width="131" x="645" y="263"/><ellipse cx="670.35" cy="279" fill="#ADD1B2" rx="11" ry="11" style="stroke:#A80036;stroke-width:1.0;"/><path d="M673.1156,274.875 Q673.2719,274.6563 673.4594,274.5469 Q673.6469,274.4375 673.8656,274.4375 Q674.2406,274.4375 674.475,274.6953 Q674.7094,274.9531 674.7094,275.5625 L674.7094,277.0156 Q674.7094,277.625 674.475,277.8906 Q674.2406,278.1563 673.8656,278.1563 Q673.5219,278.1563 673.3188,277.9531 Q673.1156,277.7656 673.0063,277.25 Q672.9594,276.8906 672.7719,276.7031 Q672.4438,276.3281 671.8344,276.1094 Q671.225,275.8906 670.6,275.8906 Q669.8344,275.8906 669.2016,276.2188 Q668.5688,276.5469 668.0766,277.2969 Q667.5844,278.0469 667.5844,279.0781 L667.5844,280.1719 Q667.5844,281.4063 668.475,282.2266 Q669.3656,283.0469 670.9594,283.0469 Q671.8969,283.0469 672.5531,282.7969 Q672.9438,282.6406 673.3656,282.2031 Q673.6313,281.9375 673.7797,281.8594 Q673.9281,281.7813 674.1313,281.7813 Q674.4594,281.7813 674.7172,282.0391 Q674.975,282.2969 674.975,282.6406 Q674.975,282.9844 674.6313,283.3906 Q674.1313,283.9688 673.3344,284.2969 Q672.2563,284.75 670.9594,284.75 Q669.4438,284.75 668.2406,284.125 Q667.2563,283.625 666.5688,282.5547 Q665.8813,281.4844 665.8813,280.2031 L665.8813,279.0469 Q665.8813,277.7188 666.4984,276.5703 Q667.1156,275.4219 668.2094,274.8047 Q669.3031,274.1875 670.5375,274.1875 Q671.2719,274.1875 671.9203,274.3516 Q672.5688,274.5156 673.1156,274.875 Z " fill="#000000"/><text fill="#000000" font-family="sans-serif" font-size="12" lengthAdjust="spacing" textLength="76" x="686.65" y="283.9102">SpanishMenu</text><line style="stroke:#A80036;stroke-width:1.5;" x1="646" x2="775" y1="295" y2="295"/><line style="stroke:#A80036;stroke-width:1.5;" x1="646" x2="775" y1="303" y2="303"/><polygon fill="#FFFF44" points="656,309,660,313,656,317,652,313" style="stroke:#B38D22;stroke-width:1.0;"/><text fill="#000000" font-family="sans-serif" font-size="11" lengthAdjust="spacing" textLength="105" x="665" y="318.4189">setCommands() : void</text><!--MD5=[9cf0a19eb3ada64a8ac2711e77522272]
class FrenchMenu--><rect codeLine="29" fill="#FEFECE" filter="url(#f1sosbs8m3jcb5)" height="61.8359" id="FrenchMenu" style="stroke:#A80036;stroke-width:1.5;" width="131" x="479" y="263"/><ellipse cx="507.95" cy="279" fill="#ADD1B2" rx="11" ry="11" style="stroke:#A80036;stroke-width:1.0;"/><path d="M510.7156,274.875 Q510.8719,274.6563 511.0594,274.5469 Q511.2469,274.4375 511.4656,274.4375 Q511.8406,274.4375 512.075,274.6953 Q512.3094,274.9531 512.3094,275.5625 L512.3094,277.0156 Q512.3094,277.625 512.075,277.8906 Q511.8406,278.1563 511.4656,278.1563 Q511.1219,278.1563 510.9188,277.9531 Q510.7156,277.7656 510.6063,277.25 Q510.5594,276.8906 510.3719,276.7031 Q510.0438,276.3281 509.4344,276.1094 Q508.825,275.8906 508.2,275.8906 Q507.4344,275.8906 506.8016,276.2188 Q506.1688,276.5469 505.6766,277.2969 Q505.1844,278.0469 505.1844,279.0781 L505.1844,280.1719 Q505.1844,281.4063 506.075,282.2266 Q506.9656,283.0469 508.5594,283.0469 Q509.4969,283.0469 510.1531,282.7969 Q510.5438,282.6406 510.9656,282.2031 Q511.2313,281.9375 511.3797,281.8594 Q511.5281,281.7813 511.7313,281.7813 Q512.0594,281.7813 512.3172,282.0391 Q512.575,282.2969 512.575,282.6406 Q512.575,282.9844 512.2313,283.3906 Q511.7313,283.9688 510.9344,284.2969 Q509.8563,284.75 508.5594,284.75 Q507.0438,284.75 505.8406,284.125 Q504.8563,283.625 504.1688,282.5547 Q503.4813,281.4844 503.4813,280.2031 L503.4813,279.0469 Q503.4813,277.7188 504.0984,276.5703 Q504.7156,275.4219 505.8094,274.8047 Q506.9031,274.1875 508.1375,274.1875 Q508.8719,274.1875 509.5203,274.3516 Q510.1688,274.5156 510.7156,274.875 Z " fill="#000000"/><text fill="#000000" font-family="sans-serif" font-size="12" lengthAdjust="spacing" textLength="68" x="525.05" y="283.9102">FrenchMenu</text><line style="stroke:#A80036;stroke-width:1.5;" x1="480" x2="609" y1="295" y2="295"/><line style="stroke:#A80036;stroke-width:1.5;" x1="480" x2="609" y1="303" y2="303"/><polygon fill="#FFFF44" points="490,309,494,313,490,317,486,313" style="stroke:#B38D22;stroke-width:1.0;"/><text fill="#000000" font-family="sans-serif" font-size="11" lengthAdjust="spacing" textLength="105" x="499" y="318.4189">setCommands() : void</text><!--MD5=[e40388dd56f3eba72af3e3cbb6f3c87a]
class ExitCommand--><rect codeLine="33" fill="#FEFECE" filter="url(#f1sosbs8m3jcb5)" height="117.1797" id="ExitCommand" style="stroke:#A80036;stroke-width:1.5;" width="113" x="9" y="411"/><ellipse cx="25.35" cy="427" fill="#ADD1B2" rx="11" ry="11" style="stroke:#A80036;stroke-width:1.0;"/><path d="M28.1156,422.875 Q28.2719,422.6563 28.4594,422.5469 Q28.6469,422.4375 28.8656,422.4375 Q29.2406,422.4375 29.475,422.6953 Q29.7094,422.9531 29.7094,423.5625 L29.7094,425.0156 Q29.7094,425.625 29.475,425.8906 Q29.2406,426.1563 28.8656,426.1563 Q28.5219,426.1563 28.3188,425.9531 Q28.1156,425.7656 28.0063,425.25 Q27.9594,424.8906 27.7719,424.7031 Q27.4438,424.3281 26.8344,424.1094 Q26.225,423.8906 25.6,423.8906 Q24.8344,423.8906 24.2016,424.2188 Q23.5688,424.5469 23.0766,425.2969 Q22.5844,426.0469 22.5844,427.0781 L22.5844,428.1719 Q22.5844,429.4063 23.475,430.2266 Q24.3656,431.0469 25.9594,431.0469 Q26.8969,431.0469 27.5531,430.7969 Q27.9438,430.6406 28.3656,430.2031 Q28.6313,429.9375 28.7797,429.8594 Q28.9281,429.7813 29.1313,429.7813 Q29.4594,429.7813 29.7172,430.0391 Q29.975,430.2969 29.975,430.6406 Q29.975,430.9844 29.6313,431.3906 Q29.1313,431.9688 28.3344,432.2969 Q27.2563,432.75 25.9594,432.75 Q24.4438,432.75 23.2406,432.125 Q22.2563,431.625 21.5688,430.5547 Q20.8813,429.4844 20.8813,428.2031 L20.8813,427.0469 Q20.8813,425.7188 21.4984,424.5703 Q22.1156,423.4219 23.2094,422.8047 Q24.3031,422.1875 25.5375,422.1875 Q26.2719,422.1875 26.9203,422.3516 Q27.5688,422.5156 28.1156,422.875 Z " fill="#000000"/><text fill="#000000" font-family="sans-serif" font-size="12" lengthAdjust="spacing" textLength="78" x="39.65" y="431.9102">ExitCommand</text><line style="stroke:#A80036;stroke-width:1.5;" x1="10" x2="121" y1="443" y2="443"/><rect fill="none" height="6" style="stroke:#C82930;stroke-width:1.0;" width="6" x="17" y="451"/><text fill="#000000" font-family="sans-serif" font-size="11" lengthAdjust="spacing" textLength="79" x="29" y="458.4189">closed : boolean</text><line style="stroke:#A80036;stroke-width:1.5;" x1="10" x2="121" y1="464.8359" y2="464.8359"/><polygon fill="#FFFF44" points="20,470.8359,24,474.8359,20,478.8359,16,474.8359" style="stroke:#B38D22;stroke-width:1.0;"/><text fill="#000000" font-family="sans-serif" font-size="11" lengthAdjust="spacing" textLength="72" x="29" y="480.2549">ExitCommand()</text><ellipse cx="20" cy="489.6719" fill="#84BE84" rx="3" ry="3" style="stroke:#038048;stroke-width:1.0;"/><text fill="#000000" font-family="sans-serif" font-size="11" lengthAdjust="spacing" textLength="76" x="29" y="494.0908">execute() : void</text><ellipse cx="20" cy="503.5078" fill="#84BE84" rx="3" ry="3" style="stroke:#038048;stroke-width:1.0;"/><text fill="#000000" font-family="sans-serif" font-size="11" lengthAdjust="spacing" textLength="87" x="29" y="507.9268">closed() : boolean</text><ellipse cx="20" cy="517.3438" fill="#84BE84" rx="3" ry="3" style="stroke:#038048;stroke-width:1.0;"/><text fill="#000000" font-family="sans-serif" font-size="11" lengthAdjust="spacing" textLength="62" x="29" y="521.7627">reset() : void</text><!--MD5=[26bd714db0b772b818134506cda43b10]
class SaleLineCommand--><rect codeLine="41" fill="#FEFECE" filter="url(#f1sosbs8m3jcb5)" height="75.6719" id="SaleLineCommand" style="stroke:#A80036;stroke-width:1.5;" width="140" x="550.5" y="431.5"/><ellipse cx="565.5" cy="447.5" fill="#ADD1B2" rx="11" ry="11" style="stroke:#A80036;stroke-width:1.0;"/><path d="M568.2656,443.375 Q568.4219,443.1563 568.6094,443.0469 Q568.7969,442.9375 569.0156,442.9375 Q569.3906,442.9375 569.625,443.1953 Q569.8594,443.4531 569.8594,444.0625 L569.8594,445.5156 Q569.8594,446.125 569.625,446.3906 Q569.3906,446.6563 569.0156,446.6563 Q568.6719,446.6563 568.4688,446.4531 Q568.2656,446.2656 568.1563,445.75 Q568.1094,445.3906 567.9219,445.2031 Q567.5938,444.8281 566.9844,444.6094 Q566.375,444.3906 565.75,444.3906 Q564.9844,444.3906 564.3516,444.7188 Q563.7188,445.0469 563.2266,445.7969 Q562.7344,446.5469 562.7344,447.5781 L562.7344,448.6719 Q562.7344,449.9063 563.625,450.7266 Q564.5156,451.5469 566.1094,451.5469 Q567.0469,451.5469 567.7031,451.2969 Q568.0938,451.1406 568.5156,450.7031 Q568.7813,450.4375 568.9297,450.3594 Q569.0781,450.2813 569.2813,450.2813 Q569.6094,450.2813 569.8672,450.5391 Q570.125,450.7969 570.125,451.1406 Q570.125,451.4844 569.7813,451.8906 Q569.2813,452.4688 568.4844,452.7969 Q567.4063,453.25 566.1094,453.25 Q564.5938,453.25 563.3906,452.625 Q562.4063,452.125 561.7188,451.0547 Q561.0313,449.9844 561.0313,448.7031 L561.0313,447.5469 Q561.0313,446.2188 561.6484,445.0703 Q562.2656,443.9219 563.3594,443.3047 Q564.4531,442.6875 565.6875,442.6875 Q566.4219,442.6875 567.0703,442.8516 Q567.7188,443.0156 568.2656,443.375 Z " fill="#000000"/><text fill="#000000" font-family="sans-serif" font-size="12" lengthAdjust="spacing" textLength="108" x="579.5" y="452.4102">SaleLineCommand</text><line style="stroke:#A80036;stroke-width:1.5;" x1="551.5" x2="689.5" y1="463.5" y2="463.5"/><line style="stroke:#A80036;stroke-width:1.5;" x1="551.5" x2="689.5" y1="471.5" y2="471.5"/><ellipse cx="561.5" cy="482.5" fill="#84BE84" rx="3" ry="3" style="stroke:#038048;stroke-width:1.0;"/><text fill="#000000" font-family="sans-serif" font-size="11" lengthAdjust="spacing" textLength="95" x="570.5" y="486.9189">saleLineCommand()</text><ellipse cx="561.5" cy="496.3359" fill="#84BE84" rx="3" ry="3" style="stroke:#038048;stroke-width:1.0;"/><text fill="#000000" font-family="sans-serif" font-size="11" lengthAdjust="spacing" textLength="76" x="570.5" y="500.7549">execute() : void</text><!--MD5=[45a3f41e567269fed2fd2676b0e34dd2]
class CancellationLineCommand--><rect codeLine="46" fill="#FEFECE" filter="url(#f1sosbs8m3jcb5)" height="75.6719" id="CancellationLineCommand" style="stroke:#A80036;stroke-width:1.5;" width="184" x="725.5" y="431.5"/><ellipse cx="740.5" cy="447.5" fill="#ADD1B2" rx="11" ry="11" style="stroke:#A80036;stroke-width:1.0;"/><path d="M743.2656,443.375 Q743.4219,443.1563 743.6094,443.0469 Q743.7969,442.9375 744.0156,442.9375 Q744.3906,442.9375 744.625,443.1953 Q744.8594,443.4531 744.8594,444.0625 L744.8594,445.5156 Q744.8594,446.125 744.625,446.3906 Q744.3906,446.6563 744.0156,446.6563 Q743.6719,446.6563 743.4688,446.4531 Q743.2656,446.2656 743.1563,445.75 Q743.1094,445.3906 742.9219,445.2031 Q742.5938,444.8281 741.9844,444.6094 Q741.375,444.3906 740.75,444.3906 Q739.9844,444.3906 739.3516,444.7188 Q738.7188,445.0469 738.2266,445.7969 Q737.7344,446.5469 737.7344,447.5781 L737.7344,448.6719 Q737.7344,449.9063 738.625,450.7266 Q739.5156,451.5469 741.1094,451.5469 Q742.0469,451.5469 742.7031,451.2969 Q743.0938,451.1406 743.5156,450.7031 Q743.7813,450.4375 743.9297,450.3594 Q744.0781,450.2813 744.2813,450.2813 Q744.6094,450.2813 744.8672,450.5391 Q745.125,450.7969 745.125,451.1406 Q745.125,451.4844 744.7813,451.8906 Q744.2813,452.4688 743.4844,452.7969 Q742.4063,453.25 741.1094,453.25 Q739.5938,453.25 738.3906,452.625 Q737.4063,452.125 736.7188,451.0547 Q736.0313,449.9844 736.0313,448.7031 L736.0313,447.5469 Q736.0313,446.2188 736.6484,445.0703 Q737.2656,443.9219 738.3594,443.3047 Q739.4531,442.6875 740.6875,442.6875 Q741.4219,442.6875 742.0703,442.8516 Q742.7188,443.0156 743.2656,443.375 Z " fill="#000000"/><text fill="#000000" font-family="sans-serif" font-size="12" lengthAdjust="spacing" textLength="152" x="754.5" y="452.4102">CancellationLineCommand</text><line style="stroke:#A80036;stroke-width:1.5;" x1="726.5" x2="908.5" y1="463.5" y2="463.5"/><line style="stroke:#A80036;stroke-width:1.5;" x1="726.5" x2="908.5" y1="471.5" y2="471.5"/><ellipse cx="736.5" cy="482.5" fill="#84BE84" rx="3" ry="3" style="stroke:#038048;stroke-width:1.0;"/><text fill="#000000" font-family="sans-serif" font-size="11" lengthAdjust="spacing" textLength="133" x="745.5" y="486.9189">CancellationLineCommand()</text><ellipse cx="736.5" cy="496.3359" fill="#84BE84" rx="3" ry="3" style="stroke:#038048;stroke-width:1.0;"/><text fill="#000000" font-family="sans-serif" font-size="11" lengthAdjust="spacing" textLength="76" x="745.5" y="500.7549">execute() : void</text><!--MD5=[a1cb9b9cc8ec094ffd32179ba48d40c1]
class RepetitionLineCommand--><rect codeLine="51" fill="#FEFECE" filter="url(#f1sosbs8m3jcb5)" height="75.6719" id="RepetitionLineCommand" style="stroke:#A80036;stroke-width:1.5;" width="171" x="157" y="431.5"/><ellipse cx="172" cy="447.5" fill="#ADD1B2" rx="11" ry="11" style="stroke:#A80036;stroke-width:1.0;"/><path d="M174.7656,443.375 Q174.9219,443.1563 175.1094,443.0469 Q175.2969,442.9375 175.5156,442.9375 Q175.8906,442.9375 176.125,443.1953 Q176.3594,443.4531 176.3594,444.0625 L176.3594,445.5156 Q176.3594,446.125 176.125,446.3906 Q175.8906,446.6563 175.5156,446.6563 Q175.1719,446.6563 174.9688,446.4531 Q174.7656,446.2656 174.6563,445.75 Q174.6094,445.3906 174.4219,445.2031 Q174.0938,444.8281 173.4844,444.6094 Q172.875,444.3906 172.25,444.3906 Q171.4844,444.3906 170.8516,444.7188 Q170.2188,445.0469 169.7266,445.7969 Q169.2344,446.5469 169.2344,447.5781 L169.2344,448.6719 Q169.2344,449.9063 170.125,450.7266 Q171.0156,451.5469 172.6094,451.5469 Q173.5469,451.5469 174.2031,451.2969 Q174.5938,451.1406 175.0156,450.7031 Q175.2813,450.4375 175.4297,450.3594 Q175.5781,450.2813 175.7813,450.2813 Q176.1094,450.2813 176.3672,450.5391 Q176.625,450.7969 176.625,451.1406 Q176.625,451.4844 176.2813,451.8906 Q175.7813,452.4688 174.9844,452.7969 Q173.9063,453.25 172.6094,453.25 Q171.0938,453.25 169.8906,452.625 Q168.9063,452.125 168.2188,451.0547 Q167.5313,449.9844 167.5313,448.7031 L167.5313,447.5469 Q167.5313,446.2188 168.1484,445.0703 Q168.7656,443.9219 169.8594,443.3047 Q170.9531,442.6875 172.1875,442.6875 Q172.9219,442.6875 173.5703,442.8516 Q174.2188,443.0156 174.7656,443.375 Z " fill="#000000"/><text fill="#000000" font-family="sans-serif" font-size="12" lengthAdjust="spacing" textLength="139" x="186" y="452.4102">RepetitionLineCommand</text><line style="stroke:#A80036;stroke-width:1.5;" x1="158" x2="327" y1="463.5" y2="463.5"/><line style="stroke:#A80036;stroke-width:1.5;" x1="158" x2="327" y1="471.5" y2="471.5"/><ellipse cx="168" cy="482.5" fill="#84BE84" rx="3" ry="3" style="stroke:#038048;stroke-width:1.0;"/><text fill="#000000" font-family="sans-serif" font-size="11" lengthAdjust="spacing" textLength="122" x="177" y="486.9189">RepetitionLineCommand()</text><ellipse cx="168" cy="496.3359" fill="#84BE84" rx="3" ry="3" style="stroke:#038048;stroke-width:1.0;"/><text fill="#000000" font-family="sans-serif" font-size="11" lengthAdjust="spacing" textLength="76" x="177" y="500.7549">execute() : void</text><!--MD5=[bbdb907f32b2818631dfb56b1af1cb40]
class ReturnLineCommand--><rect codeLine="56" fill="#FEFECE" filter="url(#f1sosbs8m3jcb5)" height="75.6719" id="ReturnLineCommand" style="stroke:#A80036;stroke-width:1.5;" width="152" x="363.5" y="431.5"/><ellipse cx="378.5" cy="447.5" fill="#ADD1B2" rx="11" ry="11" style="stroke:#A80036;stroke-width:1.0;"/><path d="M381.2656,443.375 Q381.4219,443.1563 381.6094,443.0469 Q381.7969,442.9375 382.0156,442.9375 Q382.3906,442.9375 382.625,443.1953 Q382.8594,443.4531 382.8594,444.0625 L382.8594,445.5156 Q382.8594,446.125 382.625,446.3906 Q382.3906,446.6563 382.0156,446.6563 Q381.6719,446.6563 381.4688,446.4531 Q381.2656,446.2656 381.1563,445.75 Q381.1094,445.3906 380.9219,445.2031 Q380.5938,444.8281 379.9844,444.6094 Q379.375,444.3906 378.75,444.3906 Q377.9844,444.3906 377.3516,444.7188 Q376.7188,445.0469 376.2266,445.7969 Q375.7344,446.5469 375.7344,447.5781 L375.7344,448.6719 Q375.7344,449.9063 376.625,450.7266 Q377.5156,451.5469 379.1094,451.5469 Q380.0469,451.5469 380.7031,451.2969 Q381.0938,451.1406 381.5156,450.7031 Q381.7813,450.4375 381.9297,450.3594 Q382.0781,450.2813 382.2813,450.2813 Q382.6094,450.2813 382.8672,450.5391 Q383.125,450.7969 383.125,451.1406 Q383.125,451.4844 382.7813,451.8906 Q382.2813,452.4688 381.4844,452.7969 Q380.4063,453.25 379.1094,453.25 Q377.5938,453.25 376.3906,452.625 Q375.4063,452.125 374.7188,451.0547 Q374.0313,449.9844 374.0313,448.7031 L374.0313,447.5469 Q374.0313,446.2188 374.6484,445.0703 Q375.2656,443.9219 376.3594,443.3047 Q377.4531,442.6875 378.6875,442.6875 Q379.4219,442.6875 380.0703,442.8516 Q380.7188,443.0156 381.2656,443.375 Z " fill="#000000"/><text fill="#000000" font-family="sans-serif" font-size="12" lengthAdjust="spacing" textLength="120" x="392.5" y="452.4102">ReturnLineCommand</text><line style="stroke:#A80036;stroke-width:1.5;" x1="364.5" x2="514.5" y1="463.5" y2="463.5"/><line style="stroke:#A80036;stroke-width:1.5;" x1="364.5" x2="514.5" y1="471.5" y2="471.5"/><ellipse cx="374.5" cy="482.5" fill="#84BE84" rx="3" ry="3" style="stroke:#038048;stroke-width:1.0;"/><text fill="#000000" font-family="sans-serif" font-size="11" lengthAdjust="spacing" textLength="107" x="383.5" y="486.9189">ReturnLineCommand()</text><ellipse cx="374.5" cy="496.3359" fill="#84BE84" rx="3" ry="3" style="stroke:#038048;stroke-width:1.0;"/><text fill="#000000" font-family="sans-serif" font-size="11" lengthAdjust="spacing" textLength="79" x="383.5" y="500.7549">execute () : void</text><!--MD5=[19ff37c197861f72fea205b91456fde8]
class RepititionLineCommand--><rect fill="#FEFECE" filter="url(#f1sosbs8m3jcb5)" height="48" id="RepititionLineCommand" style="stroke:#A80036;stroke-width:1.5;" width="167" x="945" y="445.5"/><ellipse cx="960" cy="461.5" fill="#ADD1B2" rx="11" ry="11" style="stroke:#A80036;stroke-width:1.0;"/><path d="M962.7656,457.375 Q962.9219,457.1563 963.1094,457.0469 Q963.2969,456.9375 963.5156,456.9375 Q963.8906,456.9375 964.125,457.1953 Q964.3594,457.4531 964.3594,458.0625 L964.3594,459.5156 Q964.3594,460.125 964.125,460.3906 Q963.8906,460.6563 963.5156,460.6563 Q963.1719,460.6563 962.9688,460.4531 Q962.7656,460.2656 962.6563,459.75 Q962.6094,459.3906 962.4219,459.2031 Q962.0938,458.8281 961.4844,458.6094 Q960.875,458.3906 960.25,458.3906 Q959.4844,458.3906 958.8516,458.7188 Q958.2188,459.0469 957.7266,459.7969 Q957.2344,460.5469 957.2344,461.5781 L957.2344,462.6719 Q957.2344,463.9063 958.125,464.7266 Q959.0156,465.5469 960.6094,465.5469 Q961.5469,465.5469 962.2031,465.2969 Q962.5938,465.1406 963.0156,464.7031 Q963.2813,464.4375 963.4297,464.3594 Q963.5781,464.2813 963.7813,464.2813 Q964.1094,464.2813 964.3672,464.5391 Q964.625,464.7969 964.625,465.1406 Q964.625,465.4844 964.2813,465.8906 Q963.7813,466.4688 962.9844,466.7969 Q961.9063,467.25 960.6094,467.25 Q959.0938,467.25 957.8906,466.625 Q956.9063,466.125 956.2188,465.0547 Q955.5313,463.9844 955.5313,462.7031 L955.5313,461.5469 Q955.5313,460.2188 956.1484,459.0703 Q956.7656,457.9219 957.8594,457.3047 Q958.9531,456.6875 960.1875,456.6875 Q960.9219,456.6875 961.5703,456.8516 Q962.2188,457.0156 962.7656,457.375 Z " fill="#000000"/><text fill="#000000" font-family="sans-serif" font-size="12" lengthAdjust="spacing" textLength="135" x="974" y="466.4102">RepititionLineCommand</text><line style="stroke:#A80036;stroke-width:1.5;" x1="946" x2="1111" y1="477.5" y2="477.5"/><line style="stroke:#A80036;stroke-width:1.5;" x1="946" x2="1111" y1="485.5" y2="485.5"/><!--MD5=[971bcb029b937cb2e9f5764d5303b0b2]
link CountryFactory to Menu--><path codeLine="61" d="M293.06,83.5 C317.21,83.5 343.89,83.5 368.61,83.5 " fill="none" id="CountryFactory-to-Menu" style="stroke:#A80036;stroke-width:1.0;"/><polygon fill="#A80036" points="373.86,83.5,364.86,79.5,368.86,83.5,364.86,87.5,373.86,83.5" style="stroke:#A80036;stroke-width:1.0;"/><polygon fill="none" points="316.5,67.1758,320.5,71.1758,316.5,75.1758,312.5,71.1758" style="stroke:#B38D22;stroke-width:1.0;"/><text fill="#000000" font-family="sans-serif" font-size="13" lengthAdjust="spacing" textLength="32" x="323.5" y="76.9951">menu</text><!--MD5=[98c4a24fe9e49a0a8a74bd94a1940f41]
link Menu to Command--><path codeLine="62" d="M424.01,160.09 C419.72,170.12 415.45,180.28 411.5,190 C405.87,203.84 400.04,218.83 394.66,232.98 " fill="none" id="Menu-to-Command" style="stroke:#A80036;stroke-width:1.0;"/><polygon fill="#A80036" points="392.85,237.75,399.7812,230.753,394.6228,233.0748,392.301,227.9165,392.85,237.75" style="stroke:#A80036;stroke-width:1.0;"/><polygon fill="none" points="417.5,194.6758,421.5,198.6758,417.5,202.6758,413.5,198.6758" style="stroke:#B38D22;stroke-width:1.0;"/><text fill="#000000" font-family="sans-serif" font-size="13" lengthAdjust="spacing" textLength="78" x="424.5" y="204.4951">commandList</text><text fill="#000000" font-family="sans-serif" font-size="13" lengthAdjust="spacing" textLength="16" x="378.4323" y="227.0656">0.*</text><!--MD5=[beb053380ff3c9907a3d1287a1c168a5]
link Menu to ExitCommand--><path codeLine="63" d="M373.8,129.42 C300.72,169.12 204.11,222.99 189.5,238 C142.51,286.25 108.37,355.9 87.95,405.99 " fill="none" id="Menu-to-ExitCommand" style="stroke:#A80036;stroke-width:1.0;"/><polygon fill="#A80036" points="86.01,410.78,93.0846,403.928,87.8792,406.1426,85.6647,400.9372,86.01,410.78" style="stroke:#A80036;stroke-width:1.0;"/><rect fill="none" height="6" style="stroke:#C82930;stroke-width:1.0;" width="6" x="192.5" y="291.6758"/><text fill="#000000" font-family="sans-serif" font-size="13" lengthAdjust="spacing" textLength="80" x="202.5" y="299.4951">exitCommand</text><!--MD5=[889836c582edbc057cc5f176dbdf02f6]
reverse link Menu to SpanishMenu--><path codeLine="64" d="M556.63,166.2 C597.93,200.23 643.32,237.63 674.02,262.94 " fill="none" id="Menu-backto-SpanishMenu" style="stroke:#A80036;stroke-width:1.0;"/><polygon fill="none" points="552.03,171.47,541.04,153.35,560.93,160.67,552.03,171.47" style="stroke:#A80036;stroke-width:1.0;"/><!--MD5=[2d14cfa2f315fe74bafc55eaff324d32]
reverse link Menu to FrenchMenu--><path codeLine="65" d="M502.59,178.44 C504.28,182.33 505.92,186.2 507.5,190 C517.56,214.21 527.53,242.25 534.58,262.96 " fill="none" id="Menu-backto-FrenchMenu" style="stroke:#A80036;stroke-width:1.0;"/><polygon fill="none" points="496.19,181.28,494.45,160.17,508.98,175.59,496.19,181.28" style="stroke:#A80036;stroke-width:1.0;"/><!--MD5=[e0ffea9f9ee189e5b060c1c2b241b02c]
reverse link Command to ExitCommand--><path codeLine="66" d="M282.6,334.63 C238.37,355.4 184.94,382.43 139.5,411 C133.72,414.64 127.84,418.63 122.05,422.76 " fill="none" id="Command-backto-ExitCommand" style="stroke:#A80036;stroke-width:1.0;"/><polygon fill="none" points="279.85,328.19,300.94,326.13,285.74,340.89,279.85,328.19" style="stroke:#A80036;stroke-width:1.0;"/><!--MD5=[092fc7246f2e43899b833d7b6eb9c166]
reverse link Command to SaleLineCommand--><path codeLine="67" d="M460.8,356.77 C496.45,381.72 536.42,409.68 567.45,431.38 " fill="none" id="Command-backto-SaleLineCommand" style="stroke:#A80036;stroke-width:1.0;"/><polygon fill="none" points="456.61,362.38,444.23,345.18,464.63,350.91,456.61,362.38" style="stroke:#A80036;stroke-width:1.0;"/><!--MD5=[2e733f3379859edabad27f08ede6b747]
reverse link Command to RepetitionLineCommand--><path codeLine="68" d="M318.82,366.64 C302.14,388.91 284.43,412.54 270.28,431.43 " fill="none" id="Command-backto-RepetitionLineCommand" style="stroke:#A80036;stroke-width:1.0;"/><polygon fill="none" points="313.42,362.18,331.01,350.37,324.62,370.58,313.42,362.18" style="stroke:#A80036;stroke-width:1.0;"/><!--MD5=[9d47bebb7e8bf164449ecf1223637882]
reverse link Command to CancellationLineCommand--><path codeLine="69" d="M462.94,349.55 C569.48,391.44 607.83,373.21 707.5,411 C722.51,416.69 738.1,423.94 752.66,431.36 " fill="none" id="Command-backto-CancellationLineCommand" style="stroke:#A80036;stroke-width:1.0;"/><polygon fill="none" points="459.95,355.89,444.11,341.81,465.27,342.94,459.95,355.89" style="stroke:#A80036;stroke-width:1.0;"/><!--MD5=[c5afed720c94444c070cdfdb0097c267]
reverse link Command to ReturnLineCommand--><path codeLine="70" d="M401.17,369.25 C409.47,390.74 418.17,413.28 425.18,431.43 " fill="none" id="Command-backto-ReturnLineCommand" style="stroke:#A80036;stroke-width:1.0;"/><polygon fill="none" points="394.56,371.55,393.88,350.37,407.62,366.51,394.56,371.55" style="stroke:#A80036;stroke-width:1.0;"/><!--MD5=[4d1006ffd35b8fc6a807d4a444853f31]
link SpanishMenu to SaleLineCommand--><path codeLine="71" d="M694.82,325.22 C680.23,353.35 658.35,395.53 642.11,426.85 " fill="none" id="SpanishMenu-to-SaleLineCommand" style="stroke:#A80036;stroke-width:1.0;stroke-dasharray:7.0,7.0;"/><polygon fill="#A80036" points="639.75,431.39,647.4398,425.2364,642.0487,426.9497,640.3354,421.5586,639.75,431.39" style="stroke:#A80036;stroke-width:1.0;"/><!--MD5=[31ef5b568066a3c2f0abbe2cee82cc49]
link SpanishMenu to RepititionLineCommand--><path codeLine="72" d="M767.52,325.21 C811.17,348.44 872.8,381.45 926.5,411 C945.22,421.3 965.76,432.83 983.47,442.85 " fill="none" id="SpanishMenu-to-RepititionLineCommand" style="stroke:#A80036;stroke-width:1.0;stroke-dasharray:7.0,7.0;"/><polygon fill="#A80036" points="987.91,445.36,982.0663,437.4321,983.5644,442.887,978.1095,444.3851,987.91,445.36" style="stroke:#A80036;stroke-width:1.0;"/><!--MD5=[389dfdfb26920e445c9aa48b54f5b2eb]
link SpanishMenu to CancellationLineCommand--><path codeLine="73" d="M729.14,325.22 C746.49,353.35 772.5,395.53 791.81,426.85 " fill="none" id="SpanishMenu-to-CancellationLineCommand" style="stroke:#A80036;stroke-width:1.0;stroke-dasharray:7.0,7.0;"/><polygon fill="#A80036" points="794.61,431.39,793.2852,421.6307,791.9831,427.1356,786.4782,425.8336,794.61,431.39" style="stroke:#A80036;stroke-width:1.0;"/><!--MD5=[529c20218b645a3eeb47eff0e43d5ebb]
link SpanishMenu to ReturnLineCommand--><path codeLine="74" d="M665.39,325.16 C653.14,333.28 639.84,342.02 627.5,350 C586.4,376.57 539.87,405.9 503.39,428.73 " fill="none" id="SpanishMenu-to-ReturnLineCommand" style="stroke:#A80036;stroke-width:1.0;stroke-dasharray:7.0,7.0;"/><polygon fill="#A80036" points="498.99,431.49,508.7407,430.1032,503.2276,428.8362,504.4946,423.323,498.99,431.49" style="stroke:#A80036;stroke-width:1.0;"/><!--MD5=[9667301b7ba5ca792b2295509e66e7ce]
link FrenchMenu to SaleLineCommand--><path codeLine="75" d="M557.74,325.22 C570.01,353.24 588.39,395.19 602.09,426.46 " fill="none" id="FrenchMenu-to-SaleLineCommand" style="stroke:#A80036;stroke-width:1.0;stroke-dasharray:7.0,7.0;"/><polygon fill="#A80036" points="604.24,431.39,604.2828,421.5412,602.2292,426.8122,596.9582,424.7586,604.24,431.39" style="stroke:#A80036;stroke-width:1.0;"/><!--MD5=[de2091a1d7abb268a246abe48de7acd2]
link FrenchMenu to RepetitionLineCommand--><path codeLine="76" d="M500.66,325.24 C488.17,333.53 474.44,342.34 461.5,350 C411.38,379.68 396.71,383.25 345.5,411 C334.94,416.72 323.82,422.84 312.95,428.87 " fill="none" id="FrenchMenu-to-RepetitionLineCommand" style="stroke:#A80036;stroke-width:1.0;stroke-dasharray:7.0,7.0;"/><polygon fill="#A80036" points="308.3,431.44,318.11,430.5658,312.6708,429.0118,314.2248,423.5726,308.3,431.44" style="stroke:#A80036;stroke-width:1.0;"/><!--MD5=[f8a262395886300d3f5a15905336e0cb]
link FrenchMenu to CancellationLineCommand--><path codeLine="77" d="M589.58,325.2 C601.84,333.32 615.14,342.05 627.5,350 C668.82,376.57 715.64,405.78 752.47,428.55 " fill="none" id="FrenchMenu-to-CancellationLineCommand" style="stroke:#A80036;stroke-width:1.0;stroke-dasharray:7.0,7.0;"/><polygon fill="#A80036" points="756.91,431.3,751.3536,423.1682,752.6556,428.6731,747.1507,429.9752,756.91,431.3" style="stroke:#A80036;stroke-width:1.0;"/><!--MD5=[561c8f19f3f3f598e3695ec032d357b9]
link FrenchMenu to ReturnLineCommand--><path codeLine="78" d="M526.21,325.22 C509.19,353.35 483.66,395.53 464.71,426.85 " fill="none" id="FrenchMenu-to-ReturnLineCommand" style="stroke:#A80036;stroke-width:1.0;stroke-dasharray:7.0,7.0;"/><polygon fill="#A80036" points="461.96,431.39,470.0343,425.7503,464.543,427.1088,463.1844,421.6175,461.96,431.39" style="stroke:#A80036;stroke-width:1.0;"/><!--MD5=[37380b5c95eb43764d69e2ee7fc0d5ff]
@startuml templateMethod

class CountryFactory <<abstractFactory>> <<singleton>> {
+ instance() : CountryFactory
+ getTicket() : Ticket
+ getMenu() : Menu
}

class Menu <<factoryMethod>> {
+ Menu()
# setCommand() : void
# set(ticket : Ticket) : void
+ execute (ticket : Ticket) : void
- write() : void
- getOption() : int
+ closed() : boolean
}

class Command <<command>> {
# Command (title : String)
+ set (ticket : Ticket) : void
+ getTitle() : String
+ exeocute() : void
}

class SpanishMenu {
# setCommands() : void
}

class FrenchMenu {
# setCommands() : void
}

class ExitCommand {
- closed : boolean
# ExitCommand()
+ execute() : void
+ closed() : boolean
+ reset() : void
}

class SaleLineCommand {
+ saleLineCommand()
+ execute() : void
}

class CancellationLineCommand {
+ CancellationLineCommand()
+ execute() : void
}

class RepetitionLineCommand {
+ RepetitionLineCommand()
+ execute() : void
}

class ReturnLineCommand {
+ ReturnLineCommand()
+ execute () : void
}

CountryFactory -right-> Menu : #menu
Menu -right-> "0.*" Command :#commandList
Menu -down-> ExitCommand : - exitCommand
Menu <|-down- SpanishMenu
Menu <|-down- FrenchMenu
Command <|-down- ExitCommand
Command <|-down- SaleLineCommand
Command <|-down- RepetitionLineCommand
Command <|-down- CancellationLineCommand
Command <|-down- ReturnLineCommand
SpanishMenu ..> SaleLineCommand
SpanishMenu ..> RepititionLineCommand
SpanishMenu ..> CancellationLineCommand
SpanishMenu ..> ReturnLineCommand
FrenchMenu ..> SaleLineCommand
FrenchMenu ..> RepetitionLineCommand
FrenchMenu ..> CancellationLineCommand
FrenchMenu ..> ReturnLineCommand
@enduml

PlantUML version 1.2021.7(Sun May 23 14:40:07 CEST 2021)
(GPL source distribution)
Java Runtime: Java(TM) SE Runtime Environment
JVM: Java HotSpot(TM) 64-Bit Server VM
Default Encoding: Cp1252
Language: es
Country: ES
--></g></svg>