<?xml version="1.0" encoding="UTF-8" standalone="no"?><svg xmlns="http://www.w3.org/2000/svg" xmlns:xlink="http://www.w3.org/1999/xlink" contentScriptType="application/ecmascript" contentStyleType="text/css" height="1123px" preserveAspectRatio="none" style="width:3101px;height:1123px;background:#FFFFFF;" version="1.1" viewBox="0 0 3101 1123" width="3101px" zoomAndPan="magnify"><defs><filter height="300%" id="f5zwni5abfu78" width="300%" x="-1" y="-1"><feGaussianBlur result="blurOut" stdDeviation="2.0"/><feColorMatrix in="blurOut" result="blurOut2" type="matrix" values="0 0 0 0 0 0 0 0 0 0 0 0 0 0 0 0 0 0 .4 0"/><feOffset dx="4.0" dy="4.0" in="blurOut2" result="blurOut3"/><feBlend in="SourceGraphic" in2="blurOut3" mode="normal"/></filter></defs><g><!--MD5=[30d5fb49a2a8c031d41d1f53b5a42632]
class TicketVisitor--><rect codeLine="2" fill="#FEFECE" filter="url(#f5zwni5abfu78)" height="139.2031" id="TicketVisitor" style="stroke:#A80036;stroke-width:1.5;" width="245" x="2385.36" y="7"/><ellipse cx="2470.61" cy="27.0938" fill="#ADD1B2" rx="11" ry="11" style="stroke:#A80036;stroke-width:1.0;"/><path d="M2473.3756,22.9688 Q2473.5319,22.75 2473.7194,22.6406 Q2473.9069,22.5313 2474.1256,22.5313 Q2474.5006,22.5313 2474.735,22.7891 Q2474.9694,23.0469 2474.9694,23.6563 L2474.9694,25.1094 Q2474.9694,25.7188 2474.735,25.9844 Q2474.5006,26.25 2474.1256,26.25 Q2473.7819,26.25 2473.5788,26.0469 Q2473.3756,25.8594 2473.2663,25.3438 Q2473.2194,24.9844 2473.0319,24.7969 Q2472.7038,24.4219 2472.0944,24.2031 Q2471.485,23.9844 2470.86,23.9844 Q2470.0944,23.9844 2469.4616,24.3125 Q2468.8288,24.6406 2468.3366,25.3906 Q2467.8444,26.1406 2467.8444,27.1719 L2467.8444,28.2656 Q2467.8444,29.5 2468.735,30.3203 Q2469.6256,31.1406 2471.2194,31.1406 Q2472.1569,31.1406 2472.8131,30.8906 Q2473.2038,30.7344 2473.6256,30.2969 Q2473.8913,30.0313 2474.0397,29.9531 Q2474.1881,29.875 2474.3913,29.875 Q2474.7194,29.875 2474.9772,30.1328 Q2475.235,30.3906 2475.235,30.7344 Q2475.235,31.0781 2474.8913,31.4844 Q2474.3913,32.0625 2473.5944,32.3906 Q2472.5163,32.8438 2471.2194,32.8438 Q2469.7038,32.8438 2468.5006,32.2188 Q2467.5163,31.7188 2466.8288,30.6484 Q2466.1413,29.5781 2466.1413,28.2969 L2466.1413,27.1406 Q2466.1413,25.8125 2466.7584,24.6641 Q2467.3756,23.5156 2468.4694,22.8984 Q2469.5631,22.2813 2470.7975,22.2813 Q2471.5319,22.2813 2472.1803,22.4453 Q2472.8288,22.6094 2473.3756,22.9688 Z " fill="#000000"/><text fill="#000000" font-family="sans-serif" font-size="12" font-style="italic" lengthAdjust="spacing" textLength="46" x="2501.11" y="24.457">«visitor»</text><text fill="#000000" font-family="sans-serif" font-size="12" lengthAdjust="spacing" textLength="66" x="2491.11" y="39.5508">TicketVisitor</text><line style="stroke:#A80036;stroke-width:1.5;" x1="2386.36" x2="2629.36" y1="47.1875" y2="47.1875"/><line style="stroke:#A80036;stroke-width:1.5;" x1="2386.36" x2="2629.36" y1="55.1875" y2="55.1875"/><ellipse cx="2396.36" cy="66.1875" fill="#84BE84" rx="3" ry="3" style="stroke:#038048;stroke-width:1.0;"/><text fill="#000000" font-family="sans-serif" font-size="11" lengthAdjust="spacing" textLength="149" x="2405.36" y="70.6064">visit (saleLine : SaleLine) : void</text><ellipse cx="2396.36" cy="80.0234" fill="#84BE84" rx="3" ry="3" style="stroke:#038048;stroke-width:1.0;"/><text fill="#000000" font-family="sans-serif" font-size="11" lengthAdjust="spacing" textLength="198" x="2405.36" y="84.4424">visit ( repetitionLine : RepititionLine) : void</text><ellipse cx="2396.36" cy="93.8594" fill="#84BE84" rx="3" ry="3" style="stroke:#038048;stroke-width:1.0;"/><text fill="#000000" font-family="sans-serif" font-size="11" lengthAdjust="spacing" textLength="219" x="2405.36" y="98.2783">visit (cancelationLine : CancelationLine) : void</text><ellipse cx="2396.36" cy="107.6953" fill="#84BE84" rx="3" ry="3" style="stroke:#038048;stroke-width:1.0;"/><text fill="#000000" font-family="sans-serif" font-size="11" lengthAdjust="spacing" textLength="172" x="2405.36" y="112.1143">visit ( returnLine : ReturnLine) : void</text><ellipse cx="2396.36" cy="121.5313" fill="#84BE84" rx="3" ry="3" style="stroke:#038048;stroke-width:1.0;"/><text fill="#000000" font-family="sans-serif" font-size="11" lengthAdjust="spacing" textLength="128" x="2405.36" y="125.9502">visit (footer : Footer) : void</text><ellipse cx="2396.36" cy="135.3672" fill="#84BE84" rx="3" ry="3" style="stroke:#038048;stroke-width:1.0;"/><text fill="#000000" font-family="sans-serif" font-size="11" lengthAdjust="spacing" textLength="83" x="2405.36" y="139.7861">visit (head) : void</text><!--MD5=[d69a7c759bc6e4188c85d5ebdda1e900]
class TicketOperation--><rect codeLine="11" fill="#FEFECE" filter="url(#f5zwni5abfu78)" height="144.8516" id="TicketOperation" style="stroke:#A80036;stroke-width:1.5;" width="245" x="1365.36" y="206"/><ellipse cx="1440.61" cy="222" fill="#ADD1B2" rx="11" ry="11" style="stroke:#A80036;stroke-width:1.0;"/><path d="M1443.3756,217.875 Q1443.5319,217.6563 1443.7194,217.5469 Q1443.9069,217.4375 1444.1256,217.4375 Q1444.5006,217.4375 1444.735,217.6953 Q1444.9694,217.9531 1444.9694,218.5625 L1444.9694,220.0156 Q1444.9694,220.625 1444.735,220.8906 Q1444.5006,221.1563 1444.1256,221.1563 Q1443.7819,221.1563 1443.5788,220.9531 Q1443.3756,220.7656 1443.2663,220.25 Q1443.2194,219.8906 1443.0319,219.7031 Q1442.7038,219.3281 1442.0944,219.1094 Q1441.485,218.8906 1440.86,218.8906 Q1440.0944,218.8906 1439.4616,219.2188 Q1438.8288,219.5469 1438.3366,220.2969 Q1437.8444,221.0469 1437.8444,222.0781 L1437.8444,223.1719 Q1437.8444,224.4063 1438.735,225.2266 Q1439.6256,226.0469 1441.2194,226.0469 Q1442.1569,226.0469 1442.8131,225.7969 Q1443.2038,225.6406 1443.6256,225.2031 Q1443.8913,224.9375 1444.0397,224.8594 Q1444.1881,224.7813 1444.3913,224.7813 Q1444.7194,224.7813 1444.9772,225.0391 Q1445.235,225.2969 1445.235,225.6406 Q1445.235,225.9844 1444.8913,226.3906 Q1444.3913,226.9688 1443.5944,227.2969 Q1442.5163,227.75 1441.2194,227.75 Q1439.7038,227.75 1438.5006,227.125 Q1437.5163,226.625 1436.8288,225.5547 Q1436.1413,224.4844 1436.1413,223.2031 L1436.1413,222.0469 Q1436.1413,220.7188 1436.7584,219.5703 Q1437.3756,218.4219 1438.4694,217.8047 Q1439.5631,217.1875 1440.7975,217.1875 Q1441.5319,217.1875 1442.1803,217.3516 Q1442.8288,217.5156 1443.3756,217.875 Z " fill="#000000"/><text fill="#000000" font-family="sans-serif" font-size="12" lengthAdjust="spacing" textLength="86" x="1461.11" y="226.9102">TicketOperation</text><line style="stroke:#A80036;stroke-width:1.5;" x1="1366.36" x2="1609.36" y1="238" y2="238"/><line style="stroke:#A80036;stroke-width:1.5;" x1="1366.36" x2="1609.36" y1="246" y2="246"/><ellipse cx="1376.36" cy="257" fill="#84BE84" rx="3" ry="3" style="stroke:#038048;stroke-width:1.0;"/><text fill="#000000" font-family="sans-serif" font-size="11" lengthAdjust="spacing" textLength="120" x="1385.36" y="261.4189">set ( ticket : Ticket) : void</text><ellipse cx="1376.36" cy="270.8359" fill="#84BE84" rx="3" ry="3" style="stroke:#038048;stroke-width:1.0;"/><text fill="#000000" font-family="sans-serif" font-size="11" lengthAdjust="spacing" textLength="149" x="1385.36" y="275.2549">visit (saleLine : SaleLine) : void</text><ellipse cx="1376.36" cy="284.6719" fill="#84BE84" rx="3" ry="3" style="stroke:#038048;stroke-width:1.0;"/><text fill="#000000" font-family="sans-serif" font-size="11" lengthAdjust="spacing" textLength="198" x="1385.36" y="289.0908">visit ( repetitionLine : RepititionLine) : void</text><ellipse cx="1376.36" cy="298.5078" fill="#84BE84" rx="3" ry="3" style="stroke:#038048;stroke-width:1.0;"/><text fill="#000000" font-family="sans-serif" font-size="11" lengthAdjust="spacing" textLength="219" x="1385.36" y="302.9268">visit (cancelationLine : CancelationLine) : void</text><ellipse cx="1376.36" cy="312.3438" fill="#84BE84" rx="3" ry="3" style="stroke:#038048;stroke-width:1.0;"/><text fill="#000000" font-family="sans-serif" font-size="11" lengthAdjust="spacing" textLength="172" x="1385.36" y="316.7627">visit ( returnLine : ReturnLine) : void</text><ellipse cx="1376.36" cy="326.1797" fill="#84BE84" rx="3" ry="3" style="stroke:#038048;stroke-width:1.0;"/><text fill="#000000" font-family="sans-serif" font-size="11" lengthAdjust="spacing" textLength="128" x="1385.36" y="330.5986">visit (footer : Footer) : void</text><ellipse cx="1376.36" cy="340.0156" fill="#84BE84" rx="3" ry="3" style="stroke:#038048;stroke-width:1.0;"/><text fill="#000000" font-family="sans-serif" font-size="11" lengthAdjust="spacing" textLength="83" x="1385.36" y="344.4346">visit (head) : void</text><!--MD5=[3f8ec4fed57a3e6134cfdf5e60807eaa]
class TicketOperationComposite--><rect codeLine="21" fill="#FEFECE" filter="url(#f5zwni5abfu78)" height="180.7109" id="TicketOperationComposite" style="stroke:#A80036;stroke-width:1.5;" width="245" x="1365.36" y="411"/><ellipse cx="1410.11" cy="431.0938" fill="#ADD1B2" rx="11" ry="11" style="stroke:#A80036;stroke-width:1.0;"/><path d="M1412.8756,426.9688 Q1413.0319,426.75 1413.2194,426.6406 Q1413.4069,426.5313 1413.6256,426.5313 Q1414.0006,426.5313 1414.235,426.7891 Q1414.4694,427.0469 1414.4694,427.6563 L1414.4694,429.1094 Q1414.4694,429.7188 1414.235,429.9844 Q1414.0006,430.25 1413.6256,430.25 Q1413.2819,430.25 1413.0788,430.0469 Q1412.8756,429.8594 1412.7663,429.3438 Q1412.7194,428.9844 1412.5319,428.7969 Q1412.2038,428.4219 1411.5944,428.2031 Q1410.985,427.9844 1410.36,427.9844 Q1409.5944,427.9844 1408.9616,428.3125 Q1408.3288,428.6406 1407.8366,429.3906 Q1407.3444,430.1406 1407.3444,431.1719 L1407.3444,432.2656 Q1407.3444,433.5 1408.235,434.3203 Q1409.1256,435.1406 1410.7194,435.1406 Q1411.6569,435.1406 1412.3131,434.8906 Q1412.7038,434.7344 1413.1256,434.2969 Q1413.3913,434.0313 1413.5397,433.9531 Q1413.6881,433.875 1413.8913,433.875 Q1414.2194,433.875 1414.4772,434.1328 Q1414.735,434.3906 1414.735,434.7344 Q1414.735,435.0781 1414.3913,435.4844 Q1413.8913,436.0625 1413.0944,436.3906 Q1412.0163,436.8438 1410.7194,436.8438 Q1409.2038,436.8438 1408.0006,436.2188 Q1407.0163,435.7188 1406.3288,434.6484 Q1405.6413,433.5781 1405.6413,432.2969 L1405.6413,431.1406 Q1405.6413,429.8125 1406.2584,428.6641 Q1406.8756,427.5156 1407.9694,426.8984 Q1409.0631,426.2813 1410.2975,426.2813 Q1411.0319,426.2813 1411.6803,426.4453 Q1412.3288,426.6094 1412.8756,426.9688 Z " fill="#000000"/><text fill="#000000" font-family="sans-serif" font-size="12" font-style="italic" lengthAdjust="spacing" textLength="71" x="1468.61" y="428.457">«composite»</text><text fill="#000000" font-family="sans-serif" font-size="12" lengthAdjust="spacing" textLength="147" x="1430.61" y="443.5508">TicketOperationComposite</text><line style="stroke:#A80036;stroke-width:1.5;" x1="1366.36" x2="1609.36" y1="451.1875" y2="451.1875"/><line style="stroke:#A80036;stroke-width:1.5;" x1="1366.36" x2="1609.36" y1="459.1875" y2="459.1875"/><ellipse cx="1376.36" cy="470.1875" fill="#84BE84" rx="3" ry="3" style="stroke:#038048;stroke-width:1.0;"/><text fill="#000000" font-family="sans-serif" font-size="11" lengthAdjust="spacing" textLength="133" x="1385.36" y="474.6064">TicketOperationComposite()</text><ellipse cx="1376.36" cy="484.0234" fill="#84BE84" rx="3" ry="3" style="stroke:#038048;stroke-width:1.0;"/><text fill="#000000" font-family="sans-serif" font-size="11" lengthAdjust="spacing" textLength="214" x="1385.36" y="488.4424">add (ticketOperation : TicketOperation) : void</text><ellipse cx="1376.36" cy="497.8594" fill="#84BE84" rx="3" ry="3" style="stroke:#038048;stroke-width:1.0;"/><text fill="#000000" font-family="sans-serif" font-size="11" lengthAdjust="spacing" textLength="117" x="1385.36" y="502.2783">set (ticket : Ticket) : void</text><ellipse cx="1376.36" cy="511.6953" fill="#84BE84" rx="3" ry="3" style="stroke:#038048;stroke-width:1.0;"/><text fill="#000000" font-family="sans-serif" font-size="11" lengthAdjust="spacing" textLength="149" x="1385.36" y="516.1143">visit (saleLine : SaleLine) : void</text><ellipse cx="1376.36" cy="525.5313" fill="#84BE84" rx="3" ry="3" style="stroke:#038048;stroke-width:1.0;"/><text fill="#000000" font-family="sans-serif" font-size="11" lengthAdjust="spacing" textLength="198" x="1385.36" y="529.9502">visit ( repetitionLine : RepititionLine) : void</text><ellipse cx="1376.36" cy="539.3672" fill="#84BE84" rx="3" ry="3" style="stroke:#038048;stroke-width:1.0;"/><text fill="#000000" font-family="sans-serif" font-size="11" lengthAdjust="spacing" textLength="219" x="1385.36" y="543.7861">visit (cancelationLine : CancelationLine) : void</text><ellipse cx="1376.36" cy="553.2031" fill="#84BE84" rx="3" ry="3" style="stroke:#038048;stroke-width:1.0;"/><text fill="#000000" font-family="sans-serif" font-size="11" lengthAdjust="spacing" textLength="172" x="1385.36" y="557.6221">visit ( returnLine : ReturnLine) : void</text><ellipse cx="1376.36" cy="567.0391" fill="#84BE84" rx="3" ry="3" style="stroke:#038048;stroke-width:1.0;"/><text fill="#000000" font-family="sans-serif" font-size="11" lengthAdjust="spacing" textLength="128" x="1385.36" y="571.458">visit (footer : Footer) : void</text><ellipse cx="1376.36" cy="580.875" fill="#84BE84" rx="3" ry="3" style="stroke:#038048;stroke-width:1.0;"/><text fill="#000000" font-family="sans-serif" font-size="11" lengthAdjust="spacing" textLength="83" x="1385.36" y="585.2939">visit (head) : void</text><!--MD5=[eafe7d49e8a18a18b63f2aa9fc77d9a7]
class TaxPrinterOperation--><rect codeLine="33" fill="#FEFECE" filter="url(#f5zwni5abfu78)" height="131.0156" id="TaxPrinterOperation" style="stroke:#A80036;stroke-width:1.5;" width="245" x="1645.36" y="436"/><ellipse cx="1709.11" cy="452" fill="#ADD1B2" rx="11" ry="11" style="stroke:#A80036;stroke-width:1.0;"/><path d="M1711.8756,447.875 Q1712.0319,447.6563 1712.2194,447.5469 Q1712.4069,447.4375 1712.6256,447.4375 Q1713.0006,447.4375 1713.235,447.6953 Q1713.4694,447.9531 1713.4694,448.5625 L1713.4694,450.0156 Q1713.4694,450.625 1713.235,450.8906 Q1713.0006,451.1563 1712.6256,451.1563 Q1712.2819,451.1563 1712.0788,450.9531 Q1711.8756,450.7656 1711.7663,450.25 Q1711.7194,449.8906 1711.5319,449.7031 Q1711.2038,449.3281 1710.5944,449.1094 Q1709.985,448.8906 1709.36,448.8906 Q1708.5944,448.8906 1707.9616,449.2188 Q1707.3288,449.5469 1706.8366,450.2969 Q1706.3444,451.0469 1706.3444,452.0781 L1706.3444,453.1719 Q1706.3444,454.4063 1707.235,455.2266 Q1708.1256,456.0469 1709.7194,456.0469 Q1710.6569,456.0469 1711.3131,455.7969 Q1711.7038,455.6406 1712.1256,455.2031 Q1712.3913,454.9375 1712.5397,454.8594 Q1712.6881,454.7813 1712.8913,454.7813 Q1713.2194,454.7813 1713.4772,455.0391 Q1713.735,455.2969 1713.735,455.6406 Q1713.735,455.9844 1713.3913,456.3906 Q1712.8913,456.9688 1712.0944,457.2969 Q1711.0163,457.75 1709.7194,457.75 Q1708.2038,457.75 1707.0006,457.125 Q1706.0163,456.625 1705.3288,455.5547 Q1704.6413,454.4844 1704.6413,453.2031 L1704.6413,452.0469 Q1704.6413,450.7188 1705.2584,449.5703 Q1705.8756,448.4219 1706.9694,447.8047 Q1708.0631,447.1875 1709.2975,447.1875 Q1710.0319,447.1875 1710.6803,447.3516 Q1711.3288,447.5156 1711.8756,447.875 Z " fill="#000000"/><text fill="#000000" font-family="sans-serif" font-size="12" lengthAdjust="spacing" textLength="109" x="1729.61" y="456.9102">TaxPrinterOperation</text><line style="stroke:#A80036;stroke-width:1.5;" x1="1646.36" x2="1889.36" y1="468" y2="468"/><line style="stroke:#A80036;stroke-width:1.5;" x1="1646.36" x2="1889.36" y1="476" y2="476"/><ellipse cx="1656.36" cy="487" fill="#84BE84" rx="3" ry="3" style="stroke:#038048;stroke-width:1.0;"/><text fill="#000000" font-family="sans-serif" font-size="11" lengthAdjust="spacing" textLength="149" x="1665.36" y="491.4189">visit (saleLine : SaleLine) : void</text><ellipse cx="1656.36" cy="500.8359" fill="#84BE84" rx="3" ry="3" style="stroke:#038048;stroke-width:1.0;"/><text fill="#000000" font-family="sans-serif" font-size="11" lengthAdjust="spacing" textLength="198" x="1665.36" y="505.2549">visit ( repetitionLine : RepititionLine) : void</text><ellipse cx="1656.36" cy="514.6719" fill="#84BE84" rx="3" ry="3" style="stroke:#038048;stroke-width:1.0;"/><text fill="#000000" font-family="sans-serif" font-size="11" lengthAdjust="spacing" textLength="219" x="1665.36" y="519.0908">visit (cancelationLine : CancelationLine) : void</text><ellipse cx="1656.36" cy="528.5078" fill="#84BE84" rx="3" ry="3" style="stroke:#038048;stroke-width:1.0;"/><text fill="#000000" font-family="sans-serif" font-size="11" lengthAdjust="spacing" textLength="172" x="1665.36" y="532.9268">visit ( returnLine : ReturnLine) : void</text><ellipse cx="1656.36" cy="542.3438" fill="#84BE84" rx="3" ry="3" style="stroke:#038048;stroke-width:1.0;"/><text fill="#000000" font-family="sans-serif" font-size="11" lengthAdjust="spacing" textLength="128" x="1665.36" y="546.7627">visit (footer : Footer) : void</text><ellipse cx="1656.36" cy="556.1797" fill="#84BE84" rx="3" ry="3" style="stroke:#038048;stroke-width:1.0;"/><text fill="#000000" font-family="sans-serif" font-size="11" lengthAdjust="spacing" textLength="83" x="1665.36" y="560.5986">visit (head) : void</text><!--MD5=[df94c21c8f5e9ec40328deade581185a]
class BackupOperation--><rect codeLine="42" fill="#FEFECE" filter="url(#f5zwni5abfu78)" height="131.0156" id="BackupOperation" style="stroke:#A80036;stroke-width:1.5;" width="186" x="1925.86" y="436"/><ellipse cx="1967.41" cy="452" fill="#ADD1B2" rx="11" ry="11" style="stroke:#A80036;stroke-width:1.0;"/><path d="M1970.1756,447.875 Q1970.3319,447.6563 1970.5194,447.5469 Q1970.7069,447.4375 1970.9256,447.4375 Q1971.3006,447.4375 1971.535,447.6953 Q1971.7694,447.9531 1971.7694,448.5625 L1971.7694,450.0156 Q1971.7694,450.625 1971.535,450.8906 Q1971.3006,451.1563 1970.9256,451.1563 Q1970.5819,451.1563 1970.3787,450.9531 Q1970.1756,450.7656 1970.0662,450.25 Q1970.0194,449.8906 1969.8319,449.7031 Q1969.5037,449.3281 1968.8944,449.1094 Q1968.285,448.8906 1967.66,448.8906 Q1966.8944,448.8906 1966.2616,449.2188 Q1965.6287,449.5469 1965.1366,450.2969 Q1964.6444,451.0469 1964.6444,452.0781 L1964.6444,453.1719 Q1964.6444,454.4063 1965.535,455.2266 Q1966.4256,456.0469 1968.0194,456.0469 Q1968.9569,456.0469 1969.6131,455.7969 Q1970.0037,455.6406 1970.4256,455.2031 Q1970.6912,454.9375 1970.8397,454.8594 Q1970.9881,454.7813 1971.1912,454.7813 Q1971.5194,454.7813 1971.7772,455.0391 Q1972.035,455.2969 1972.035,455.6406 Q1972.035,455.9844 1971.6912,456.3906 Q1971.1912,456.9688 1970.3944,457.2969 Q1969.3162,457.75 1968.0194,457.75 Q1966.5037,457.75 1965.3006,457.125 Q1964.3162,456.625 1963.6287,455.5547 Q1962.9412,454.4844 1962.9412,453.2031 L1962.9412,452.0469 Q1962.9412,450.7188 1963.5584,449.5703 Q1964.1756,448.4219 1965.2694,447.8047 Q1966.3631,447.1875 1967.5975,447.1875 Q1968.3319,447.1875 1968.9803,447.3516 Q1969.6287,447.5156 1970.1756,447.875 Z " fill="#000000"/><text fill="#000000" font-family="sans-serif" font-size="12" lengthAdjust="spacing" textLength="95" x="1987.31" y="456.9102">BackupOperation</text><line style="stroke:#A80036;stroke-width:1.5;" x1="1926.86" x2="2110.86" y1="468" y2="468"/><line style="stroke:#A80036;stroke-width:1.5;" x1="1926.86" x2="2110.86" y1="476" y2="476"/><ellipse cx="1936.86" cy="487" fill="#84BE84" rx="3" ry="3" style="stroke:#038048;stroke-width:1.0;"/><text fill="#000000" font-family="sans-serif" font-size="11" lengthAdjust="spacing" textLength="125" x="1945.86" y="491.4189">visit (line : SaleLine) : void</text><ellipse cx="1936.86" cy="500.8359" fill="#84BE84" rx="3" ry="3" style="stroke:#038048;stroke-width:1.0;"/><text fill="#000000" font-family="sans-serif" font-size="11" lengthAdjust="spacing" textLength="150" x="1945.86" y="505.2549">visit ( line : RepititionLine) : void</text><ellipse cx="1936.86" cy="514.6719" fill="#84BE84" rx="3" ry="3" style="stroke:#038048;stroke-width:1.0;"/><text fill="#000000" font-family="sans-serif" font-size="11" lengthAdjust="spacing" textLength="160" x="1945.86" y="519.0908">visit (line : CancelationLine) : void</text><ellipse cx="1936.86" cy="528.5078" fill="#84BE84" rx="3" ry="3" style="stroke:#038048;stroke-width:1.0;"/><text fill="#000000" font-family="sans-serif" font-size="11" lengthAdjust="spacing" textLength="136" x="1945.86" y="532.9268">visit (line : ReturnLine) : void</text><ellipse cx="1936.86" cy="542.3438" fill="#84BE84" rx="3" ry="3" style="stroke:#038048;stroke-width:1.0;"/><text fill="#000000" font-family="sans-serif" font-size="11" lengthAdjust="spacing" textLength="128" x="1945.86" y="546.7627">visit (footer : Footer) : void</text><ellipse cx="1936.86" cy="556.1797" fill="#84BE84" rx="3" ry="3" style="stroke:#038048;stroke-width:1.0;"/><text fill="#000000" font-family="sans-serif" font-size="11" lengthAdjust="spacing" textLength="83" x="1945.86" y="560.5986">visit (head) : void</text><!--MD5=[d58683e2893651630d0705ff46d38868]
class PriceCalculatorOperation--><rect codeLine="51" fill="#FEFECE" filter="url(#f5zwni5abfu78)" height="117.1797" id="PriceCalculatorOperation" style="stroke:#A80036;stroke-width:1.5;" width="245" x="2147.36" y="443"/><ellipse cx="2196.61" cy="459" fill="#ADD1B2" rx="11" ry="11" style="stroke:#A80036;stroke-width:1.0;"/><path d="M2199.3756,454.875 Q2199.5319,454.6563 2199.7194,454.5469 Q2199.9069,454.4375 2200.1256,454.4375 Q2200.5006,454.4375 2200.735,454.6953 Q2200.9694,454.9531 2200.9694,455.5625 L2200.9694,457.0156 Q2200.9694,457.625 2200.735,457.8906 Q2200.5006,458.1563 2200.1256,458.1563 Q2199.7819,458.1563 2199.5788,457.9531 Q2199.3756,457.7656 2199.2663,457.25 Q2199.2194,456.8906 2199.0319,456.7031 Q2198.7038,456.3281 2198.0944,456.1094 Q2197.485,455.8906 2196.86,455.8906 Q2196.0944,455.8906 2195.4616,456.2188 Q2194.8288,456.5469 2194.3366,457.2969 Q2193.8444,458.0469 2193.8444,459.0781 L2193.8444,460.1719 Q2193.8444,461.4063 2194.735,462.2266 Q2195.6256,463.0469 2197.2194,463.0469 Q2198.1569,463.0469 2198.8131,462.7969 Q2199.2038,462.6406 2199.6256,462.2031 Q2199.8913,461.9375 2200.0397,461.8594 Q2200.1881,461.7813 2200.3913,461.7813 Q2200.7194,461.7813 2200.9772,462.0391 Q2201.235,462.2969 2201.235,462.6406 Q2201.235,462.9844 2200.8913,463.3906 Q2200.3913,463.9688 2199.5944,464.2969 Q2198.5163,464.75 2197.2194,464.75 Q2195.7038,464.75 2194.5006,464.125 Q2193.5163,463.625 2192.8288,462.5547 Q2192.1413,461.4844 2192.1413,460.2031 L2192.1413,459.0469 Q2192.1413,457.7188 2192.7584,456.5703 Q2193.3756,455.4219 2194.4694,454.8047 Q2195.5631,454.1875 2196.7975,454.1875 Q2197.5319,454.1875 2198.1803,454.3516 Q2198.8288,454.5156 2199.3756,454.875 Z " fill="#000000"/><text fill="#000000" font-family="sans-serif" font-size="12" lengthAdjust="spacing" textLength="138" x="2217.11" y="463.9102">PriceCalculatorOperation</text><line style="stroke:#A80036;stroke-width:1.5;" x1="2148.36" x2="2391.36" y1="475" y2="475"/><line style="stroke:#A80036;stroke-width:1.5;" x1="2148.36" x2="2391.36" y1="483" y2="483"/><ellipse cx="2158.36" cy="494" fill="#84BE84" rx="3" ry="3" style="stroke:#038048;stroke-width:1.0;"/><text fill="#000000" font-family="sans-serif" font-size="11" lengthAdjust="spacing" textLength="192" x="2167.36" y="498.4189">PriceCalculatorOperation (ticket : Ticket)</text><ellipse cx="2158.36" cy="507.8359" fill="#84BE84" rx="3" ry="3" style="stroke:#038048;stroke-width:1.0;"/><text fill="#000000" font-family="sans-serif" font-size="11" lengthAdjust="spacing" textLength="149" x="2167.36" y="512.2549">visit (saleLine : SaleLine) : void</text><ellipse cx="2158.36" cy="521.6719" fill="#84BE84" rx="3" ry="3" style="stroke:#038048;stroke-width:1.0;"/><text fill="#000000" font-family="sans-serif" font-size="11" lengthAdjust="spacing" textLength="198" x="2167.36" y="526.0908">visit ( repetitionLine : RepititionLine) : void</text><ellipse cx="2158.36" cy="535.5078" fill="#84BE84" rx="3" ry="3" style="stroke:#038048;stroke-width:1.0;"/><text fill="#000000" font-family="sans-serif" font-size="11" lengthAdjust="spacing" textLength="219" x="2167.36" y="539.9268">visit (cancelationLine : CancelationLine) : void</text><ellipse cx="2158.36" cy="549.3438" fill="#84BE84" rx="3" ry="3" style="stroke:#038048;stroke-width:1.0;"/><text fill="#000000" font-family="sans-serif" font-size="11" lengthAdjust="spacing" textLength="172" x="2167.36" y="553.7627">visit ( returnLine : ReturnLine) : void</text><!--MD5=[130607901f079c1c5b28a66eb21d2c6d]
class ScreenViewerOperation--><rect codeLine="59" fill="#FEFECE" filter="url(#f5zwni5abfu78)" height="131.0156" id="ScreenViewerOperation" style="stroke:#A80036;stroke-width:1.5;" width="245" x="77.36" y="436"/><ellipse cx="130.61" cy="452" fill="#ADD1B2" rx="11" ry="11" style="stroke:#A80036;stroke-width:1.0;"/><path d="M133.3756,447.875 Q133.5319,447.6563 133.7194,447.5469 Q133.9069,447.4375 134.1256,447.4375 Q134.5006,447.4375 134.735,447.6953 Q134.9694,447.9531 134.9694,448.5625 L134.9694,450.0156 Q134.9694,450.625 134.735,450.8906 Q134.5006,451.1563 134.1256,451.1563 Q133.7819,451.1563 133.5788,450.9531 Q133.3756,450.7656 133.2663,450.25 Q133.2194,449.8906 133.0319,449.7031 Q132.7038,449.3281 132.0944,449.1094 Q131.485,448.8906 130.86,448.8906 Q130.0944,448.8906 129.4616,449.2188 Q128.8288,449.5469 128.3366,450.2969 Q127.8444,451.0469 127.8444,452.0781 L127.8444,453.1719 Q127.8444,454.4063 128.735,455.2266 Q129.6256,456.0469 131.2194,456.0469 Q132.1569,456.0469 132.8131,455.7969 Q133.2038,455.6406 133.6256,455.2031 Q133.8913,454.9375 134.0397,454.8594 Q134.1881,454.7813 134.3913,454.7813 Q134.7194,454.7813 134.9772,455.0391 Q135.235,455.2969 135.235,455.6406 Q135.235,455.9844 134.8913,456.3906 Q134.3913,456.9688 133.5944,457.2969 Q132.5163,457.75 131.2194,457.75 Q129.7038,457.75 128.5006,457.125 Q127.5163,456.625 126.8288,455.5547 Q126.1413,454.4844 126.1413,453.2031 L126.1413,452.0469 Q126.1413,450.7188 126.7584,449.5703 Q127.3756,448.4219 128.4694,447.8047 Q129.5631,447.1875 130.7975,447.1875 Q131.5319,447.1875 132.1803,447.3516 Q132.8288,447.5156 133.3756,447.875 Z " fill="#000000"/><text fill="#000000" font-family="sans-serif" font-size="12" lengthAdjust="spacing" textLength="130" x="151.11" y="456.9102">ScreenViewerOperation</text><line style="stroke:#A80036;stroke-width:1.5;" x1="78.36" x2="321.36" y1="468" y2="468"/><line style="stroke:#A80036;stroke-width:1.5;" x1="78.36" x2="321.36" y1="476" y2="476"/><ellipse cx="88.36" cy="487" fill="#84BE84" rx="3" ry="3" style="stroke:#038048;stroke-width:1.0;"/><text fill="#000000" font-family="sans-serif" font-size="11" lengthAdjust="spacing" textLength="149" x="97.36" y="491.4189">visit (saleLine : SaleLine) : void</text><ellipse cx="88.36" cy="500.8359" fill="#84BE84" rx="3" ry="3" style="stroke:#038048;stroke-width:1.0;"/><text fill="#000000" font-family="sans-serif" font-size="11" lengthAdjust="spacing" textLength="198" x="97.36" y="505.2549">visit ( repetitionLine : RepititionLine) : void</text><ellipse cx="88.36" cy="514.6719" fill="#84BE84" rx="3" ry="3" style="stroke:#038048;stroke-width:1.0;"/><text fill="#000000" font-family="sans-serif" font-size="11" lengthAdjust="spacing" textLength="219" x="97.36" y="519.0908">visit (cancelationLine : CancelationLine) : void</text><ellipse cx="88.36" cy="528.5078" fill="#84BE84" rx="3" ry="3" style="stroke:#038048;stroke-width:1.0;"/><text fill="#000000" font-family="sans-serif" font-size="11" lengthAdjust="spacing" textLength="172" x="97.36" y="532.9268">visit ( returnLine : ReturnLine) : void</text><ellipse cx="88.36" cy="542.3438" fill="#84BE84" rx="3" ry="3" style="stroke:#038048;stroke-width:1.0;"/><text fill="#000000" font-family="sans-serif" font-size="11" lengthAdjust="spacing" textLength="128" x="97.36" y="546.7627">visit (footer : Footer) : void</text><ellipse cx="88.36" cy="556.1797" fill="#84BE84" rx="3" ry="3" style="stroke:#038048;stroke-width:1.0;"/><text fill="#000000" font-family="sans-serif" font-size="11" lengthAdjust="spacing" textLength="83" x="97.36" y="560.5986">visit (head) : void</text><!--MD5=[f92524ca97f8b831cc0946ed8cb17587]
class DisplayViewerOperation--><rect codeLine="68" fill="#FEFECE" filter="url(#f5zwni5abfu78)" height="131.0156" id="DisplayViewerOperation" style="stroke:#A80036;stroke-width:1.5;" width="245" x="357.36" y="436"/><ellipse cx="409.61" cy="452" fill="#ADD1B2" rx="11" ry="11" style="stroke:#A80036;stroke-width:1.0;"/><path d="M412.3756,447.875 Q412.5319,447.6563 412.7194,447.5469 Q412.9069,447.4375 413.1256,447.4375 Q413.5006,447.4375 413.735,447.6953 Q413.9694,447.9531 413.9694,448.5625 L413.9694,450.0156 Q413.9694,450.625 413.735,450.8906 Q413.5006,451.1563 413.1256,451.1563 Q412.7819,451.1563 412.5788,450.9531 Q412.3756,450.7656 412.2663,450.25 Q412.2194,449.8906 412.0319,449.7031 Q411.7038,449.3281 411.0944,449.1094 Q410.485,448.8906 409.86,448.8906 Q409.0944,448.8906 408.4616,449.2188 Q407.8288,449.5469 407.3366,450.2969 Q406.8444,451.0469 406.8444,452.0781 L406.8444,453.1719 Q406.8444,454.4063 407.735,455.2266 Q408.6256,456.0469 410.2194,456.0469 Q411.1569,456.0469 411.8131,455.7969 Q412.2038,455.6406 412.6256,455.2031 Q412.8913,454.9375 413.0397,454.8594 Q413.1881,454.7813 413.3913,454.7813 Q413.7194,454.7813 413.9772,455.0391 Q414.235,455.2969 414.235,455.6406 Q414.235,455.9844 413.8913,456.3906 Q413.3913,456.9688 412.5944,457.2969 Q411.5163,457.75 410.2194,457.75 Q408.7038,457.75 407.5006,457.125 Q406.5163,456.625 405.8288,455.5547 Q405.1413,454.4844 405.1413,453.2031 L405.1413,452.0469 Q405.1413,450.7188 405.7584,449.5703 Q406.3756,448.4219 407.4694,447.8047 Q408.5631,447.1875 409.7975,447.1875 Q410.5319,447.1875 411.1803,447.3516 Q411.8288,447.5156 412.3756,447.875 Z " fill="#000000"/><text fill="#000000" font-family="sans-serif" font-size="12" lengthAdjust="spacing" textLength="132" x="430.11" y="456.9102">DisplayViewerOperation</text><line style="stroke:#A80036;stroke-width:1.5;" x1="358.36" x2="601.36" y1="468" y2="468"/><line style="stroke:#A80036;stroke-width:1.5;" x1="358.36" x2="601.36" y1="476" y2="476"/><ellipse cx="368.36" cy="487" fill="#84BE84" rx="3" ry="3" style="stroke:#038048;stroke-width:1.0;"/><text fill="#000000" font-family="sans-serif" font-size="11" lengthAdjust="spacing" textLength="149" x="377.36" y="491.4189">visit (saleLine : SaleLine) : void</text><ellipse cx="368.36" cy="500.8359" fill="#84BE84" rx="3" ry="3" style="stroke:#038048;stroke-width:1.0;"/><text fill="#000000" font-family="sans-serif" font-size="11" lengthAdjust="spacing" textLength="198" x="377.36" y="505.2549">visit ( repetitionLine : RepititionLine) : void</text><ellipse cx="368.36" cy="514.6719" fill="#84BE84" rx="3" ry="3" style="stroke:#038048;stroke-width:1.0;"/><text fill="#000000" font-family="sans-serif" font-size="11" lengthAdjust="spacing" textLength="219" x="377.36" y="519.0908">visit (cancelationLine : CancelationLine) : void</text><ellipse cx="368.36" cy="528.5078" fill="#84BE84" rx="3" ry="3" style="stroke:#038048;stroke-width:1.0;"/><text fill="#000000" font-family="sans-serif" font-size="11" lengthAdjust="spacing" textLength="172" x="377.36" y="532.9268">visit ( returnLine : ReturnLine) : void</text><ellipse cx="368.36" cy="542.3438" fill="#84BE84" rx="3" ry="3" style="stroke:#038048;stroke-width:1.0;"/><text fill="#000000" font-family="sans-serif" font-size="11" lengthAdjust="spacing" textLength="128" x="377.36" y="546.7627">visit (footer : Footer) : void</text><ellipse cx="368.36" cy="556.1797" fill="#84BE84" rx="3" ry="3" style="stroke:#038048;stroke-width:1.0;"/><text fill="#000000" font-family="sans-serif" font-size="11" lengthAdjust="spacing" textLength="83" x="377.36" y="560.5986">visit (head) : void</text><!--MD5=[c408097ed98e9149031383abd9650d80]
class ClientPrinterOperation--><rect codeLine="77" fill="#FEFECE" filter="url(#f5zwni5abfu78)" height="131.0156" id="ClientPrinterOperation" style="stroke:#A80036;stroke-width:1.5;" width="245" x="637.36" y="436"/><ellipse cx="694.61" cy="452" fill="#ADD1B2" rx="11" ry="11" style="stroke:#A80036;stroke-width:1.0;"/><path d="M697.3756,447.875 Q697.5319,447.6563 697.7194,447.5469 Q697.9069,447.4375 698.1256,447.4375 Q698.5006,447.4375 698.735,447.6953 Q698.9694,447.9531 698.9694,448.5625 L698.9694,450.0156 Q698.9694,450.625 698.735,450.8906 Q698.5006,451.1563 698.1256,451.1563 Q697.7819,451.1563 697.5788,450.9531 Q697.3756,450.7656 697.2663,450.25 Q697.2194,449.8906 697.0319,449.7031 Q696.7038,449.3281 696.0944,449.1094 Q695.485,448.8906 694.86,448.8906 Q694.0944,448.8906 693.4616,449.2188 Q692.8288,449.5469 692.3366,450.2969 Q691.8444,451.0469 691.8444,452.0781 L691.8444,453.1719 Q691.8444,454.4063 692.735,455.2266 Q693.6256,456.0469 695.2194,456.0469 Q696.1569,456.0469 696.8131,455.7969 Q697.2038,455.6406 697.6256,455.2031 Q697.8913,454.9375 698.0397,454.8594 Q698.1881,454.7813 698.3913,454.7813 Q698.7194,454.7813 698.9772,455.0391 Q699.235,455.2969 699.235,455.6406 Q699.235,455.9844 698.8913,456.3906 Q698.3913,456.9688 697.5944,457.2969 Q696.5163,457.75 695.2194,457.75 Q693.7038,457.75 692.5006,457.125 Q691.5163,456.625 690.8288,455.5547 Q690.1413,454.4844 690.1413,453.2031 L690.1413,452.0469 Q690.1413,450.7188 690.7584,449.5703 Q691.3756,448.4219 692.4694,447.8047 Q693.5631,447.1875 694.7975,447.1875 Q695.5319,447.1875 696.1803,447.3516 Q696.8288,447.5156 697.3756,447.875 Z " fill="#000000"/><text fill="#000000" font-family="sans-serif" font-size="12" lengthAdjust="spacing" textLength="122" x="715.11" y="456.9102">ClientPrinterOperation</text><line style="stroke:#A80036;stroke-width:1.5;" x1="638.36" x2="881.36" y1="468" y2="468"/><line style="stroke:#A80036;stroke-width:1.5;" x1="638.36" x2="881.36" y1="476" y2="476"/><ellipse cx="648.36" cy="487" fill="#84BE84" rx="3" ry="3" style="stroke:#038048;stroke-width:1.0;"/><text fill="#000000" font-family="sans-serif" font-size="11" lengthAdjust="spacing" textLength="149" x="657.36" y="491.4189">visit (saleLine : SaleLine) : void</text><ellipse cx="648.36" cy="500.8359" fill="#84BE84" rx="3" ry="3" style="stroke:#038048;stroke-width:1.0;"/><text fill="#000000" font-family="sans-serif" font-size="11" lengthAdjust="spacing" textLength="198" x="657.36" y="505.2549">visit ( repetitionLine : RepititionLine) : void</text><ellipse cx="648.36" cy="514.6719" fill="#84BE84" rx="3" ry="3" style="stroke:#038048;stroke-width:1.0;"/><text fill="#000000" font-family="sans-serif" font-size="11" lengthAdjust="spacing" textLength="219" x="657.36" y="519.0908">visit (cancelationLine : CancelationLine) : void</text><ellipse cx="648.36" cy="528.5078" fill="#84BE84" rx="3" ry="3" style="stroke:#038048;stroke-width:1.0;"/><text fill="#000000" font-family="sans-serif" font-size="11" lengthAdjust="spacing" textLength="172" x="657.36" y="532.9268">visit ( returnLine : ReturnLine) : void</text><ellipse cx="648.36" cy="542.3438" fill="#84BE84" rx="3" ry="3" style="stroke:#038048;stroke-width:1.0;"/><text fill="#000000" font-family="sans-serif" font-size="11" lengthAdjust="spacing" textLength="128" x="657.36" y="546.7627">visit (footer : Footer) : void</text><ellipse cx="648.36" cy="556.1797" fill="#84BE84" rx="3" ry="3" style="stroke:#038048;stroke-width:1.0;"/><text fill="#000000" font-family="sans-serif" font-size="11" lengthAdjust="spacing" textLength="83" x="657.36" y="560.5986">visit (head) : void</text><!--MD5=[c0db0ac13928b6af400cee6e7de05a96]
class ThreeXTwoOfertOperation--><rect codeLine="86" fill="#FEFECE" filter="url(#f5zwni5abfu78)" height="131.0156" id="ThreeXTwoOfertOperation" style="stroke:#A80036;stroke-width:1.5;" width="186" x="2665.86" y="11"/><ellipse cx="2686.26" cy="27" fill="#ADD1B2" rx="11" ry="11" style="stroke:#A80036;stroke-width:1.0;"/><path d="M2689.0256,22.875 Q2689.1819,22.6563 2689.3694,22.5469 Q2689.5569,22.4375 2689.7756,22.4375 Q2690.1506,22.4375 2690.385,22.6953 Q2690.6194,22.9531 2690.6194,23.5625 L2690.6194,25.0156 Q2690.6194,25.625 2690.385,25.8906 Q2690.1506,26.1563 2689.7756,26.1563 Q2689.4319,26.1563 2689.2288,25.9531 Q2689.0256,25.7656 2688.9163,25.25 Q2688.8694,24.8906 2688.6819,24.7031 Q2688.3538,24.3281 2687.7444,24.1094 Q2687.135,23.8906 2686.51,23.8906 Q2685.7444,23.8906 2685.1116,24.2188 Q2684.4788,24.5469 2683.9866,25.2969 Q2683.4944,26.0469 2683.4944,27.0781 L2683.4944,28.1719 Q2683.4944,29.4063 2684.385,30.2266 Q2685.2756,31.0469 2686.8694,31.0469 Q2687.8069,31.0469 2688.4631,30.7969 Q2688.8538,30.6406 2689.2756,30.2031 Q2689.5413,29.9375 2689.6897,29.8594 Q2689.8381,29.7813 2690.0413,29.7813 Q2690.3694,29.7813 2690.6272,30.0391 Q2690.885,30.2969 2690.885,30.6406 Q2690.885,30.9844 2690.5413,31.3906 Q2690.0413,31.9688 2689.2444,32.2969 Q2688.1663,32.75 2686.8694,32.75 Q2685.3538,32.75 2684.1506,32.125 Q2683.1663,31.625 2682.4788,30.5547 Q2681.7913,29.4844 2681.7913,28.2031 L2681.7913,27.0469 Q2681.7913,25.7188 2682.4084,24.5703 Q2683.0256,23.4219 2684.1194,22.8047 Q2685.2131,22.1875 2686.4475,22.1875 Q2687.1819,22.1875 2687.8303,22.3516 Q2688.4788,22.5156 2689.0256,22.875 Z " fill="#000000"/><text fill="#000000" font-family="sans-serif" font-size="12" lengthAdjust="spacing" textLength="142" x="2701.46" y="31.9102">ThreeXTwoOfertOperation</text><line style="stroke:#A80036;stroke-width:1.5;" x1="2666.86" x2="2850.86" y1="43" y2="43"/><line style="stroke:#A80036;stroke-width:1.5;" x1="2666.86" x2="2850.86" y1="51" y2="51"/><ellipse cx="2676.86" cy="62" fill="#84BE84" rx="3" ry="3" style="stroke:#038048;stroke-width:1.0;"/><text fill="#000000" font-family="sans-serif" font-size="11" lengthAdjust="spacing" textLength="125" x="2685.86" y="66.4189">visit (line : SaleLine) : void</text><ellipse cx="2676.86" cy="75.8359" fill="#84BE84" rx="3" ry="3" style="stroke:#038048;stroke-width:1.0;"/><text fill="#000000" font-family="sans-serif" font-size="11" lengthAdjust="spacing" textLength="147" x="2685.86" y="80.2549">visit (line : RepititionLine) : void</text><ellipse cx="2676.86" cy="89.6719" fill="#84BE84" rx="3" ry="3" style="stroke:#038048;stroke-width:1.0;"/><text fill="#000000" font-family="sans-serif" font-size="11" lengthAdjust="spacing" textLength="160" x="2685.86" y="94.0908">visit (line : CancelationLine) : void</text><ellipse cx="2676.86" cy="103.5078" fill="#84BE84" rx="3" ry="3" style="stroke:#038048;stroke-width:1.0;"/><text fill="#000000" font-family="sans-serif" font-size="11" lengthAdjust="spacing" textLength="136" x="2685.86" y="107.9268">visit (line : ReturnLine) : void</text><ellipse cx="2676.86" cy="117.3438" fill="#84BE84" rx="3" ry="3" style="stroke:#038048;stroke-width:1.0;"/><text fill="#000000" font-family="sans-serif" font-size="11" lengthAdjust="spacing" textLength="128" x="2685.86" y="121.7627">visit (footer : Footer) : void</text><ellipse cx="2676.86" cy="131.1797" fill="#84BE84" rx="3" ry="3" style="stroke:#038048;stroke-width:1.0;"/><text fill="#000000" font-family="sans-serif" font-size="11" lengthAdjust="spacing" textLength="83" x="2685.86" y="135.5986">visit (head) : void</text><!--MD5=[21ae400bd2363cb8ce36b06a85eac84a]
class TotalPriceCalculatorOperation--><rect codeLine="95" fill="#FEFECE" filter="url(#f5zwni5abfu78)" height="48" id="TotalPriceCalculatorOperation" style="stroke:#A80036;stroke-width:1.5;" width="197" x="917.36" y="477.5"/><ellipse cx="932.36" cy="493.5" fill="#ADD1B2" rx="11" ry="11" style="stroke:#A80036;stroke-width:1.0;"/><path d="M935.1256,489.375 Q935.2819,489.1563 935.4694,489.0469 Q935.6569,488.9375 935.8756,488.9375 Q936.2506,488.9375 936.485,489.1953 Q936.7194,489.4531 936.7194,490.0625 L936.7194,491.5156 Q936.7194,492.125 936.485,492.3906 Q936.2506,492.6563 935.8756,492.6563 Q935.5319,492.6563 935.3288,492.4531 Q935.1256,492.2656 935.0163,491.75 Q934.9694,491.3906 934.7819,491.2031 Q934.4538,490.8281 933.8444,490.6094 Q933.235,490.3906 932.61,490.3906 Q931.8444,490.3906 931.2116,490.7188 Q930.5788,491.0469 930.0866,491.7969 Q929.5944,492.5469 929.5944,493.5781 L929.5944,494.6719 Q929.5944,495.9063 930.485,496.7266 Q931.3756,497.5469 932.9694,497.5469 Q933.9069,497.5469 934.5631,497.2969 Q934.9538,497.1406 935.3756,496.7031 Q935.6413,496.4375 935.7897,496.3594 Q935.9381,496.2813 936.1413,496.2813 Q936.4694,496.2813 936.7272,496.5391 Q936.985,496.7969 936.985,497.1406 Q936.985,497.4844 936.6413,497.8906 Q936.1413,498.4688 935.3444,498.7969 Q934.2663,499.25 932.9694,499.25 Q931.4538,499.25 930.2506,498.625 Q929.2663,498.125 928.5788,497.0547 Q927.8913,495.9844 927.8913,494.7031 L927.8913,493.5469 Q927.8913,492.2188 928.5084,491.0703 Q929.1256,489.9219 930.2194,489.3047 Q931.3131,488.6875 932.5475,488.6875 Q933.2819,488.6875 933.9303,488.8516 Q934.5788,489.0156 935.1256,489.375 Z " fill="#000000"/><text fill="#000000" font-family="sans-serif" font-size="12" lengthAdjust="spacing" textLength="165" x="946.36" y="498.4102">TotalPriceCalculatorOperation</text><line style="stroke:#A80036;stroke-width:1.5;" x1="918.36" x2="1113.36" y1="509.5" y2="509.5"/><line style="stroke:#A80036;stroke-width:1.5;" x1="918.36" x2="1113.36" y1="517.5" y2="517.5"/><!--MD5=[8abb8a37461013dd54f8b6ff9203b957]
class Supermarket--><rect codeLine="97" fill="#FEFECE" filter="url(#f5zwni5abfu78)" height="103.3438" id="Supermarket" style="stroke:#A80036;stroke-width:1.5;" width="181" x="2578.36" y="227"/><ellipse cx="2629.11" cy="243" fill="#ADD1B2" rx="11" ry="11" style="stroke:#A80036;stroke-width:1.0;"/><path d="M2631.8756,238.875 Q2632.0319,238.6563 2632.2194,238.5469 Q2632.4069,238.4375 2632.6256,238.4375 Q2633.0006,238.4375 2633.235,238.6953 Q2633.4694,238.9531 2633.4694,239.5625 L2633.4694,241.0156 Q2633.4694,241.625 2633.235,241.8906 Q2633.0006,242.1563 2632.6256,242.1563 Q2632.2819,242.1563 2632.0788,241.9531 Q2631.8756,241.7656 2631.7663,241.25 Q2631.7194,240.8906 2631.5319,240.7031 Q2631.2038,240.3281 2630.5944,240.1094 Q2629.985,239.8906 2629.36,239.8906 Q2628.5944,239.8906 2627.9616,240.2188 Q2627.3288,240.5469 2626.8366,241.2969 Q2626.3444,242.0469 2626.3444,243.0781 L2626.3444,244.1719 Q2626.3444,245.4063 2627.235,246.2266 Q2628.1256,247.0469 2629.7194,247.0469 Q2630.6569,247.0469 2631.3131,246.7969 Q2631.7038,246.6406 2632.1256,246.2031 Q2632.3913,245.9375 2632.5397,245.8594 Q2632.6881,245.7813 2632.8913,245.7813 Q2633.2194,245.7813 2633.4772,246.0391 Q2633.735,246.2969 2633.735,246.6406 Q2633.735,246.9844 2633.3913,247.3906 Q2632.8913,247.9688 2632.0944,248.2969 Q2631.0163,248.75 2629.7194,248.75 Q2628.2038,248.75 2627.0006,248.125 Q2626.0163,247.625 2625.3288,246.5547 Q2624.6413,245.4844 2624.6413,244.2031 L2624.6413,243.0469 Q2624.6413,241.7188 2625.2584,240.5703 Q2625.8756,239.4219 2626.9694,238.8047 Q2628.0631,238.1875 2629.2975,238.1875 Q2630.0319,238.1875 2630.6803,238.3516 Q2631.3288,238.5156 2631.8756,238.875 Z " fill="#000000"/><text fill="#000000" font-family="sans-serif" font-size="12" lengthAdjust="spacing" textLength="71" x="2649.61" y="247.9102">Supermarket</text><line style="stroke:#A80036;stroke-width:1.5;" x1="2579.36" x2="2758.36" y1="259" y2="259"/><rect fill="none" height="6" style="stroke:#C82930;stroke-width:1.0;" width="6" x="2586.36" y="267"/><text fill="#000000" font-family="sans-serif" font-size="11" font-style="italic" lengthAdjust="spacing" textLength="155" x="2598.36" y="274.4189">CLOSING TIME : double = 20.0</text><line style="stroke:#A80036;stroke-width:1.5;" x1="2579.36" x2="2758.36" y1="280.8359" y2="280.8359"/><rect fill="#F24D5C" height="6" style="stroke:#C82930;stroke-width:1.0;" width="6" x="2586.36" y="288.8359"/><text fill="#000000" font-family="sans-serif" font-size="11" lengthAdjust="spacing" textLength="69" x="2598.36" y="296.2549">Supermarket()</text><rect fill="#F24D5C" height="6" style="stroke:#C82930;stroke-width:1.0;" width="6" x="2586.36" y="302.6719"/><text fill="#000000" font-family="sans-serif" font-size="11" lengthAdjust="spacing" textLength="50" x="2598.36" y="310.0908">sell(): void</text><ellipse cx="2589.36" cy="319.5078" fill="#84BE84" rx="3" ry="3" style="stroke:#038048;stroke-width:1.0;"/><text fill="#000000" font-family="sans-serif" font-size="11" font-style="italic" lengthAdjust="spacing" textLength="141" x="2598.36" y="323.9268">main (args : String "II") : void</text><!--MD5=[ac6bea31e13c94c7baa9ad18feb7405e]
class Ticket--><rect codeLine="104" fill="#FEFECE" filter="url(#f5zwni5abfu78)" height="158.6875" id="Ticket" style="stroke:#A80036;stroke-width:1.5;" width="332" x="2427.86" y="422"/><ellipse cx="2573.61" cy="438" fill="#ADD1B2" rx="11" ry="11" style="stroke:#A80036;stroke-width:1.0;"/><path d="M2576.3756,433.875 Q2576.5319,433.6563 2576.7194,433.5469 Q2576.9069,433.4375 2577.1256,433.4375 Q2577.5006,433.4375 2577.735,433.6953 Q2577.9694,433.9531 2577.9694,434.5625 L2577.9694,436.0156 Q2577.9694,436.625 2577.735,436.8906 Q2577.5006,437.1563 2577.1256,437.1563 Q2576.7819,437.1563 2576.5788,436.9531 Q2576.3756,436.7656 2576.2663,436.25 Q2576.2194,435.8906 2576.0319,435.7031 Q2575.7038,435.3281 2575.0944,435.1094 Q2574.485,434.8906 2573.86,434.8906 Q2573.0944,434.8906 2572.4616,435.2188 Q2571.8288,435.5469 2571.3366,436.2969 Q2570.8444,437.0469 2570.8444,438.0781 L2570.8444,439.1719 Q2570.8444,440.4063 2571.735,441.2266 Q2572.6256,442.0469 2574.2194,442.0469 Q2575.1569,442.0469 2575.8131,441.7969 Q2576.2038,441.6406 2576.6256,441.2031 Q2576.8913,440.9375 2577.0397,440.8594 Q2577.1881,440.7813 2577.3913,440.7813 Q2577.7194,440.7813 2577.9772,441.0391 Q2578.235,441.2969 2578.235,441.6406 Q2578.235,441.9844 2577.8913,442.3906 Q2577.3913,442.9688 2576.5944,443.2969 Q2575.5163,443.75 2574.2194,443.75 Q2572.7038,443.75 2571.5006,443.125 Q2570.5163,442.625 2569.8288,441.5547 Q2569.1413,440.4844 2569.1413,439.2031 L2569.1413,438.0469 Q2569.1413,436.7188 2569.7584,435.5703 Q2570.3756,434.4219 2571.4694,433.8047 Q2572.5631,433.1875 2573.7975,433.1875 Q2574.5319,433.1875 2575.1803,433.3516 Q2575.8288,433.5156 2576.3756,433.875 Z " fill="#000000"/><text fill="#000000" font-family="sans-serif" font-size="12" lengthAdjust="spacing" textLength="32" x="2594.11" y="442.9102">Ticket</text><line style="stroke:#A80036;stroke-width:1.5;" x1="2428.86" x2="2758.86" y1="454" y2="454"/><line style="stroke:#A80036;stroke-width:1.5;" x1="2428.86" x2="2758.86" y1="462" y2="462"/><ellipse cx="2438.86" cy="473" fill="#84BE84" rx="3" ry="3" style="stroke:#038048;stroke-width:1.0;"/><text fill="#000000" font-family="sans-serif" font-size="11" lengthAdjust="spacing" textLength="103" x="2447.86" y="477.4189">add (line : Line) : void</text><ellipse cx="2438.86" cy="486.8359" fill="#84BE84" rx="3" ry="3" style="stroke:#038048;stroke-width:1.0;"/><text fill="#000000" font-family="sans-serif" font-size="11" lengthAdjust="spacing" textLength="50" x="2447.86" y="491.2549">lines() : int</text><ellipse cx="2438.86" cy="500.6719" fill="#84BE84" rx="3" ry="3" style="stroke:#038048;stroke-width:1.0;"/><text fill="#000000" font-family="sans-serif" font-size="11" lengthAdjust="spacing" textLength="131" x="2447.86" y="505.0908">getLine (number : int) : Line</text><ellipse cx="2438.86" cy="514.5078" fill="#84BE84" rx="3" ry="3" style="stroke:#038048;stroke-width:1.0;"/><text fill="#000000" font-family="sans-serif" font-size="11" lengthAdjust="spacing" textLength="63" x="2447.86" y="518.9268">close() : void</text><ellipse cx="2438.86" cy="528.3438" fill="#84BE84" rx="3" ry="3" style="stroke:#038048;stroke-width:1.0;"/><text fill="#000000" font-family="sans-serif" font-size="11" lengthAdjust="spacing" textLength="82" x="2447.86" y="532.7627">toString() : String</text><ellipse cx="2438.86" cy="542.1797" fill="#84BE84" rx="3" ry="3" style="stroke:#038048;stroke-width:1.0;"/><text fill="#000000" font-family="sans-serif" font-size="11" lengthAdjust="spacing" textLength="148" x="2447.86" y="546.5986">Ticket ( header, footer: Footer)</text><ellipse cx="2438.86" cy="556.0156" fill="#84BE84" rx="3" ry="3" style="stroke:#038048;stroke-width:1.0;"/><text fill="#000000" font-family="sans-serif" font-size="11" lengthAdjust="spacing" textLength="306" x="2447.86" y="560.4346">setLineTicketOperation (lineTicketOperation : TicketVisitor) :void</text><ellipse cx="2438.86" cy="569.8516" fill="#84BE84" rx="3" ry="3" style="stroke:#038048;stroke-width:1.0;"/><text fill="#000000" font-family="sans-serif" font-size="11" lengthAdjust="spacing" textLength="61" x="2447.86" y="574.2705">open() : void</text><!--MD5=[d10018d7374cb536a2ec2f77e731452b]
class Header--><rect codeLine="115" fill="#FEFECE" filter="url(#f5zwni5abfu78)" height="103.3438" id="Header" style="stroke:#A80036;stroke-width:1.5;" width="223" x="1076.36" y="659"/><ellipse cx="1163.11" cy="675" fill="#ADD1B2" rx="11" ry="11" style="stroke:#A80036;stroke-width:1.0;"/><path d="M1165.8756,670.875 Q1166.0319,670.6563 1166.2194,670.5469 Q1166.4069,670.4375 1166.6256,670.4375 Q1167.0006,670.4375 1167.235,670.6953 Q1167.4694,670.9531 1167.4694,671.5625 L1167.4694,673.0156 Q1167.4694,673.625 1167.235,673.8906 Q1167.0006,674.1563 1166.6256,674.1563 Q1166.2819,674.1563 1166.0788,673.9531 Q1165.8756,673.7656 1165.7663,673.25 Q1165.7194,672.8906 1165.5319,672.7031 Q1165.2038,672.3281 1164.5944,672.1094 Q1163.985,671.8906 1163.36,671.8906 Q1162.5944,671.8906 1161.9616,672.2188 Q1161.3288,672.5469 1160.8366,673.2969 Q1160.3444,674.0469 1160.3444,675.0781 L1160.3444,676.1719 Q1160.3444,677.4063 1161.235,678.2266 Q1162.1256,679.0469 1163.7194,679.0469 Q1164.6569,679.0469 1165.3131,678.7969 Q1165.7038,678.6406 1166.1256,678.2031 Q1166.3913,677.9375 1166.5397,677.8594 Q1166.6881,677.7813 1166.8913,677.7813 Q1167.2194,677.7813 1167.4772,678.0391 Q1167.735,678.2969 1167.735,678.6406 Q1167.735,678.9844 1167.3913,679.3906 Q1166.8913,679.9688 1166.0944,680.2969 Q1165.0163,680.75 1163.7194,680.75 Q1162.2038,680.75 1161.0006,680.125 Q1160.0163,679.625 1159.3288,678.5547 Q1158.6413,677.4844 1158.6413,676.2031 L1158.6413,675.0469 Q1158.6413,673.7188 1159.2584,672.5703 Q1159.8756,671.4219 1160.9694,670.8047 Q1162.0631,670.1875 1163.2975,670.1875 Q1164.0319,670.1875 1164.6803,670.3516 Q1165.3288,670.5156 1165.8756,670.875 Z " fill="#000000"/><text fill="#000000" font-family="sans-serif" font-size="12" lengthAdjust="spacing" textLength="41" x="1183.61" y="679.9102">Header</text><line style="stroke:#A80036;stroke-width:1.5;" x1="1077.36" x2="1298.36" y1="691" y2="691"/><line style="stroke:#A80036;stroke-width:1.5;" x1="1077.36" x2="1298.36" y1="699" y2="699"/><ellipse cx="1087.36" cy="710" fill="#84BE84" rx="3" ry="3" style="stroke:#038048;stroke-width:1.0;"/><text fill="#000000" font-family="sans-serif" font-size="11" lengthAdjust="spacing" textLength="32" x="1096.36" y="714.4189">head()</text><ellipse cx="1087.36" cy="723.8359" fill="#84BE84" rx="3" ry="3" style="stroke:#038048;stroke-width:1.0;"/><text fill="#000000" font-family="sans-serif" font-size="11" lengthAdjust="spacing" textLength="75" x="1096.36" y="728.2549">getdate() : Date</text><ellipse cx="1087.36" cy="737.6719" fill="#84BE84" rx="3" ry="3" style="stroke:#038048;stroke-width:1.0;"/><text fill="#000000" font-family="sans-serif" font-size="11" lengthAdjust="spacing" textLength="197" x="1096.36" y="742.0908">accept (ticketVisitor : TicketVisitor) : void</text><ellipse cx="1087.36" cy="751.5078" fill="#84BE84" rx="3" ry="3" style="stroke:#038048;stroke-width:1.0;"/><text fill="#000000" font-family="sans-serif" font-size="11" lengthAdjust="spacing" textLength="82" x="1096.36" y="755.9268">toString() : String</text><!--MD5=[736dfa021baaf4f381c9890dd397bfe9]
class Line--><rect codeLine="122" fill="#FEFECE" filter="url(#f5zwni5abfu78)" height="117.1797" id="Line" style="stroke:#A80036;stroke-width:1.5;" width="223" x="2490.36" y="652"/><ellipse cx="2585.61" cy="668" fill="#ADD1B2" rx="11" ry="11" style="stroke:#A80036;stroke-width:1.0;"/><path d="M2588.3756,663.875 Q2588.5319,663.6563 2588.7194,663.5469 Q2588.9069,663.4375 2589.1256,663.4375 Q2589.5006,663.4375 2589.735,663.6953 Q2589.9694,663.9531 2589.9694,664.5625 L2589.9694,666.0156 Q2589.9694,666.625 2589.735,666.8906 Q2589.5006,667.1563 2589.1256,667.1563 Q2588.7819,667.1563 2588.5788,666.9531 Q2588.3756,666.7656 2588.2663,666.25 Q2588.2194,665.8906 2588.0319,665.7031 Q2587.7038,665.3281 2587.0944,665.1094 Q2586.485,664.8906 2585.86,664.8906 Q2585.0944,664.8906 2584.4616,665.2188 Q2583.8288,665.5469 2583.3366,666.2969 Q2582.8444,667.0469 2582.8444,668.0781 L2582.8444,669.1719 Q2582.8444,670.4063 2583.735,671.2266 Q2584.6256,672.0469 2586.2194,672.0469 Q2587.1569,672.0469 2587.8131,671.7969 Q2588.2038,671.6406 2588.6256,671.2031 Q2588.8913,670.9375 2589.0397,670.8594 Q2589.1881,670.7813 2589.3913,670.7813 Q2589.7194,670.7813 2589.9772,671.0391 Q2590.235,671.2969 2590.235,671.6406 Q2590.235,671.9844 2589.8913,672.3906 Q2589.3913,672.9688 2588.5944,673.2969 Q2587.5163,673.75 2586.2194,673.75 Q2584.7038,673.75 2583.5006,673.125 Q2582.5163,672.625 2581.8288,671.5547 Q2581.1413,670.4844 2581.1413,669.2031 L2581.1413,668.0469 Q2581.1413,666.7188 2581.7584,665.5703 Q2582.3756,664.4219 2583.4694,663.8047 Q2584.5631,663.1875 2585.7975,663.1875 Q2586.5319,663.1875 2587.1803,663.3516 Q2587.8288,663.5156 2588.3756,663.875 Z " fill="#000000"/><text fill="#000000" font-family="sans-serif" font-size="12" lengthAdjust="spacing" textLength="24" x="2606.11" y="672.9102">Line</text><line style="stroke:#A80036;stroke-width:1.5;" x1="2491.36" x2="2712.36" y1="684" y2="684"/><polygon fill="none" points="2501.36,690,2505.36,694,2501.36,698,2497.36,694" style="stroke:#B38D22;stroke-width:1.0;"/><text fill="#000000" font-family="sans-serif" font-size="11" lengthAdjust="spacing" textLength="44" x="2510.36" y="699.4189">price : int</text><line style="stroke:#A80036;stroke-width:1.5;" x1="2491.36" x2="2712.36" y1="705.8359" y2="705.8359"/><ellipse cx="2501.36" cy="716.8359" fill="#84BE84" rx="3" ry="3" style="stroke:#038048;stroke-width:1.0;"/><text fill="#000000" font-family="sans-serif" font-size="11" lengthAdjust="spacing" textLength="123" x="2510.36" y="721.2549">setPrice (price : int) : void</text><ellipse cx="2501.36" cy="730.6719" fill="#84BE84" rx="3" ry="3" style="stroke:#038048;stroke-width:1.0;"/><text fill="#000000" font-family="sans-serif" font-size="11" lengthAdjust="spacing" textLength="67" x="2510.36" y="735.0908">getPrice() : int</text><ellipse cx="2501.36" cy="744.5078" fill="#84BE84" rx="3" ry="3" style="stroke:#038048;stroke-width:1.0;"/><text fill="#000000" font-family="sans-serif" font-size="11" lengthAdjust="spacing" textLength="197" x="2510.36" y="748.9268">accept (ticketVisitor : TicketVisitor) : void</text><ellipse cx="2501.36" cy="758.3438" fill="#84BE84" rx="3" ry="3" style="stroke:#038048;stroke-width:1.0;"/><text fill="#000000" font-family="sans-serif" font-size="11" lengthAdjust="spacing" textLength="82" x="2510.36" y="762.7627">toString() : String</text><!--MD5=[026c1e9a4dc23b57e6998280acb2cb32]
class Footer--><rect codeLine="130" fill="#FEFECE" filter="url(#f5zwni5abfu78)" height="103.3438" id="Footer" style="stroke:#A80036;stroke-width:1.5;" width="223" x="2764.36" y="659"/><ellipse cx="2854.11" cy="675" fill="#ADD1B2" rx="11" ry="11" style="stroke:#A80036;stroke-width:1.0;"/><path d="M2856.8756,670.875 Q2857.0319,670.6563 2857.2194,670.5469 Q2857.4069,670.4375 2857.6256,670.4375 Q2858.0006,670.4375 2858.235,670.6953 Q2858.4694,670.9531 2858.4694,671.5625 L2858.4694,673.0156 Q2858.4694,673.625 2858.235,673.8906 Q2858.0006,674.1563 2857.6256,674.1563 Q2857.2819,674.1563 2857.0788,673.9531 Q2856.8756,673.7656 2856.7663,673.25 Q2856.7194,672.8906 2856.5319,672.7031 Q2856.2038,672.3281 2855.5944,672.1094 Q2854.985,671.8906 2854.36,671.8906 Q2853.5944,671.8906 2852.9616,672.2188 Q2852.3288,672.5469 2851.8366,673.2969 Q2851.3444,674.0469 2851.3444,675.0781 L2851.3444,676.1719 Q2851.3444,677.4063 2852.235,678.2266 Q2853.1256,679.0469 2854.7194,679.0469 Q2855.6569,679.0469 2856.3131,678.7969 Q2856.7038,678.6406 2857.1256,678.2031 Q2857.3913,677.9375 2857.5397,677.8594 Q2857.6881,677.7813 2857.8913,677.7813 Q2858.2194,677.7813 2858.4772,678.0391 Q2858.735,678.2969 2858.735,678.6406 Q2858.735,678.9844 2858.3913,679.3906 Q2857.8913,679.9688 2857.0944,680.2969 Q2856.0163,680.75 2854.7194,680.75 Q2853.2038,680.75 2852.0006,680.125 Q2851.0163,679.625 2850.3288,678.5547 Q2849.6413,677.4844 2849.6413,676.2031 L2849.6413,675.0469 Q2849.6413,673.7188 2850.2584,672.5703 Q2850.8756,671.4219 2851.9694,670.8047 Q2853.0631,670.1875 2854.2975,670.1875 Q2855.0319,670.1875 2855.6803,670.3516 Q2856.3288,670.5156 2856.8756,670.875 Z " fill="#000000"/><text fill="#000000" font-family="sans-serif" font-size="12" lengthAdjust="spacing" textLength="35" x="2874.61" y="679.9102">Footer</text><line style="stroke:#A80036;stroke-width:1.5;" x1="2765.36" x2="2986.36" y1="691" y2="691"/><rect fill="none" height="6" style="stroke:#C82930;stroke-width:1.0;" width="6" x="2772.36" y="699"/><text fill="#000000" font-family="sans-serif" font-size="11" lengthAdjust="spacing" textLength="64" x="2784.36" y="706.4189">totalPrice : int</text><ellipse cx="2775.36" cy="715.8359" rx="3" ry="3" style="stroke:#038048;stroke-width:1.0;fill:none;"/><text fill="#000000" font-family="sans-serif" font-size="11" lengthAdjust="spacing" textLength="74" x="2784.36" y="720.2549">toString : String</text><line style="stroke:#A80036;stroke-width:1.5;" x1="2765.36" x2="2986.36" y1="726.6719" y2="726.6719"/><ellipse cx="2775.36" cy="737.6719" fill="#84BE84" rx="3" ry="3" style="stroke:#038048;stroke-width:1.0;"/><text fill="#000000" font-family="sans-serif" font-size="11" lengthAdjust="spacing" textLength="197" x="2784.36" y="742.0908">accept (ticketVisitor : TicketVisitor) : void</text><ellipse cx="2775.36" cy="751.5078" fill="#84BE84" rx="3" ry="3" style="stroke:#038048;stroke-width:1.0;"/><text fill="#000000" font-family="sans-serif" font-size="11" lengthAdjust="spacing" textLength="90" x="2784.36" y="755.9268">getTotalPrice() : int</text><!--MD5=[58e548255c255d729df88ccba7216a44]
class IdLine--><rect codeLine="137" fill="#FEFECE" filter="url(#f5zwni5abfu78)" height="131.0156" id="IdLine" style="stroke:#A80036;stroke-width:1.5;" width="139" x="2406.36" y="829"/><ellipse cx="2454.61" cy="845" fill="#ADD1B2" rx="11" ry="11" style="stroke:#A80036;stroke-width:1.0;"/><path d="M2457.3756,840.875 Q2457.5319,840.6563 2457.7194,840.5469 Q2457.9069,840.4375 2458.1256,840.4375 Q2458.5006,840.4375 2458.735,840.6953 Q2458.9694,840.9531 2458.9694,841.5625 L2458.9694,843.0156 Q2458.9694,843.625 2458.735,843.8906 Q2458.5006,844.1563 2458.1256,844.1563 Q2457.7819,844.1563 2457.5788,843.9531 Q2457.3756,843.7656 2457.2663,843.25 Q2457.2194,842.8906 2457.0319,842.7031 Q2456.7038,842.3281 2456.0944,842.1094 Q2455.485,841.8906 2454.86,841.8906 Q2454.0944,841.8906 2453.4616,842.2188 Q2452.8288,842.5469 2452.3366,843.2969 Q2451.8444,844.0469 2451.8444,845.0781 L2451.8444,846.1719 Q2451.8444,847.4063 2452.735,848.2266 Q2453.6256,849.0469 2455.2194,849.0469 Q2456.1569,849.0469 2456.8131,848.7969 Q2457.2038,848.6406 2457.6256,848.2031 Q2457.8913,847.9375 2458.0397,847.8594 Q2458.1881,847.7813 2458.3913,847.7813 Q2458.7194,847.7813 2458.9772,848.0391 Q2459.235,848.2969 2459.235,848.6406 Q2459.235,848.9844 2458.8913,849.3906 Q2458.3913,849.9688 2457.5944,850.2969 Q2456.5163,850.75 2455.2194,850.75 Q2453.7038,850.75 2452.5006,850.125 Q2451.5163,849.625 2450.8288,848.5547 Q2450.1413,847.4844 2450.1413,846.2031 L2450.1413,845.0469 Q2450.1413,843.7188 2450.7584,842.5703 Q2451.3756,841.4219 2452.4694,840.8047 Q2453.5631,840.1875 2454.7975,840.1875 Q2455.5319,840.1875 2456.1803,840.3516 Q2456.8288,840.5156 2457.3756,840.875 Z " fill="#000000"/><text fill="#000000" font-family="sans-serif" font-size="12" lengthAdjust="spacing" textLength="34" x="2475.11" y="849.9102">IdLine</text><line style="stroke:#A80036;stroke-width:1.5;" x1="2407.36" x2="2544.36" y1="861" y2="861"/><polygon fill="none" points="2417.36,867,2421.36,871,2417.36,875,2413.36,871" style="stroke:#B38D22;stroke-width:1.0;"/><text fill="#000000" font-family="sans-serif" font-size="11" lengthAdjust="spacing" textLength="28" x="2426.36" y="876.4189">id : int</text><polygon fill="none" points="2417.36,880.8359,2421.36,884.8359,2417.36,888.8359,2413.36,884.8359" style="stroke:#B38D22;stroke-width:1.0;"/><text fill="#000000" font-family="sans-serif" font-size="11" lengthAdjust="spacing" textLength="43" x="2426.36" y="890.2549">units : int</text><line style="stroke:#A80036;stroke-width:1.5;" x1="2407.36" x2="2544.36" y1="896.6719" y2="896.6719"/><polygon fill="#FFFF44" points="2417.36,902.6719,2421.36,906.6719,2417.36,910.6719,2413.36,906.6719" style="stroke:#B38D22;stroke-width:1.0;"/><text fill="#000000" font-family="sans-serif" font-size="11" lengthAdjust="spacing" textLength="113" x="2426.36" y="912.0908">IdLine (id : int,units : int)</text><ellipse cx="2417.36" cy="921.5078" fill="#84BE84" rx="3" ry="3" style="stroke:#038048;stroke-width:1.0;"/><text fill="#000000" font-family="sans-serif" font-size="11" lengthAdjust="spacing" textLength="51" x="2426.36" y="925.9268">getId() : int</text><ellipse cx="2417.36" cy="935.3438" fill="#84BE84" rx="3" ry="3" style="stroke:#038048;stroke-width:1.0;"/><text fill="#000000" font-family="sans-serif" font-size="11" lengthAdjust="spacing" textLength="67" x="2426.36" y="939.7627">getUnits() : int</text><ellipse cx="2417.36" cy="949.1797" fill="#84BE84" rx="3" ry="3" style="stroke:#038048;stroke-width:1.0;"/><text fill="#000000" font-family="sans-serif" font-size="11" lengthAdjust="spacing" textLength="82" x="2426.36" y="953.5986">toString() : String</text><!--MD5=[16c799429cd84a1510a0b6eef3ef1533]
class NumberLine--><rect codeLine="146" fill="#FEFECE" filter="url(#f5zwni5abfu78)" height="103.3438" id="NumberLine" style="stroke:#A80036;stroke-width:1.5;" width="150" x="2652.86" y="843"/><ellipse cx="2689.91" cy="859" fill="#ADD1B2" rx="11" ry="11" style="stroke:#A80036;stroke-width:1.0;"/><path d="M2692.6756,854.875 Q2692.8319,854.6563 2693.0194,854.5469 Q2693.2069,854.4375 2693.4256,854.4375 Q2693.8006,854.4375 2694.035,854.6953 Q2694.2694,854.9531 2694.2694,855.5625 L2694.2694,857.0156 Q2694.2694,857.625 2694.035,857.8906 Q2693.8006,858.1563 2693.4256,858.1563 Q2693.0819,858.1563 2692.8788,857.9531 Q2692.6756,857.7656 2692.5663,857.25 Q2692.5194,856.8906 2692.3319,856.7031 Q2692.0038,856.3281 2691.3944,856.1094 Q2690.785,855.8906 2690.16,855.8906 Q2689.3944,855.8906 2688.7616,856.2188 Q2688.1288,856.5469 2687.6366,857.2969 Q2687.1444,858.0469 2687.1444,859.0781 L2687.1444,860.1719 Q2687.1444,861.4063 2688.035,862.2266 Q2688.9256,863.0469 2690.5194,863.0469 Q2691.4569,863.0469 2692.1131,862.7969 Q2692.5038,862.6406 2692.9256,862.2031 Q2693.1913,861.9375 2693.3397,861.8594 Q2693.4881,861.7813 2693.6913,861.7813 Q2694.0194,861.7813 2694.2772,862.0391 Q2694.535,862.2969 2694.535,862.6406 Q2694.535,862.9844 2694.1913,863.3906 Q2693.6913,863.9688 2692.8944,864.2969 Q2691.8163,864.75 2690.5194,864.75 Q2689.0038,864.75 2687.8006,864.125 Q2686.8163,863.625 2686.1288,862.5547 Q2685.4413,861.4844 2685.4413,860.2031 L2685.4413,859.0469 Q2685.4413,857.7188 2686.0584,856.5703 Q2686.6756,855.4219 2687.7694,854.8047 Q2688.8631,854.1875 2690.0975,854.1875 Q2690.8319,854.1875 2691.4803,854.3516 Q2692.1288,854.5156 2692.6756,854.875 Z " fill="#000000"/><text fill="#000000" font-family="sans-serif" font-size="12" lengthAdjust="spacing" textLength="69" x="2708.81" y="863.9102">NumberLine</text><line style="stroke:#A80036;stroke-width:1.5;" x1="2653.86" x2="2801.86" y1="875" y2="875"/><polygon fill="none" points="2663.86,881,2667.86,885,2663.86,889,2659.86,885" style="stroke:#B38D22;stroke-width:1.0;"/><text fill="#000000" font-family="sans-serif" font-size="11" lengthAdjust="spacing" textLength="56" x="2672.86" y="890.4189">number : int</text><line style="stroke:#A80036;stroke-width:1.5;" x1="2653.86" x2="2801.86" y1="896.8359" y2="896.8359"/><polygon fill="#FFFF44" points="2663.86,902.8359,2667.86,906.8359,2663.86,910.8359,2659.86,906.8359" style="stroke:#B38D22;stroke-width:1.0;"/><text fill="#000000" font-family="sans-serif" font-size="11" lengthAdjust="spacing" textLength="124" x="2672.86" y="912.2549">NumberLine (number : int)</text><ellipse cx="2663.86" cy="921.6719" fill="#84BE84" rx="3" ry="3" style="stroke:#038048;stroke-width:1.0;"/><text fill="#000000" font-family="sans-serif" font-size="11" lengthAdjust="spacing" textLength="80" x="2672.86" y="926.0908">getNumber() : int</text><ellipse cx="2663.86" cy="935.5078" fill="#84BE84" rx="3" ry="3" style="stroke:#038048;stroke-width:1.0;"/><text fill="#000000" font-family="sans-serif" font-size="11" lengthAdjust="spacing" textLength="82" x="2672.86" y="939.9268">toString() : String</text><!--MD5=[5c0c02b72ae62fff175c8c6983df369a]
class SaleLine--><rect codeLine="153" fill="#FEFECE" filter="url(#f5zwni5abfu78)" height="89.5078" id="SaleLine" style="stroke:#A80036;stroke-width:1.5;" width="223" x="2107.36" y="1020"/><ellipse cx="2190.11" cy="1036" fill="#ADD1B2" rx="11" ry="11" style="stroke:#A80036;stroke-width:1.0;"/><path d="M2192.8756,1031.875 Q2193.0319,1031.6563 2193.2194,1031.5469 Q2193.4069,1031.4375 2193.6256,1031.4375 Q2194.0006,1031.4375 2194.235,1031.6953 Q2194.4694,1031.9531 2194.4694,1032.5625 L2194.4694,1034.0156 Q2194.4694,1034.625 2194.235,1034.8906 Q2194.0006,1035.1563 2193.6256,1035.1563 Q2193.2819,1035.1563 2193.0788,1034.9531 Q2192.8756,1034.7656 2192.7663,1034.25 Q2192.7194,1033.8906 2192.5319,1033.7031 Q2192.2038,1033.3281 2191.5944,1033.1094 Q2190.985,1032.8906 2190.36,1032.8906 Q2189.5944,1032.8906 2188.9616,1033.2188 Q2188.3288,1033.5469 2187.8366,1034.2969 Q2187.3444,1035.0469 2187.3444,1036.0781 L2187.3444,1037.1719 Q2187.3444,1038.4063 2188.235,1039.2266 Q2189.1256,1040.0469 2190.7194,1040.0469 Q2191.6569,1040.0469 2192.3131,1039.7969 Q2192.7038,1039.6406 2193.1256,1039.2031 Q2193.3913,1038.9375 2193.5397,1038.8594 Q2193.6881,1038.7813 2193.8913,1038.7813 Q2194.2194,1038.7813 2194.4772,1039.0391 Q2194.735,1039.2969 2194.735,1039.6406 Q2194.735,1039.9844 2194.3913,1040.3906 Q2193.8913,1040.9688 2193.0944,1041.2969 Q2192.0163,1041.75 2190.7194,1041.75 Q2189.2038,1041.75 2188.0006,1041.125 Q2187.0163,1040.625 2186.3288,1039.5547 Q2185.6413,1038.4844 2185.6413,1037.2031 L2185.6413,1036.0469 Q2185.6413,1034.7188 2186.2584,1033.5703 Q2186.8756,1032.4219 2187.9694,1031.8047 Q2189.0631,1031.1875 2190.2975,1031.1875 Q2191.0319,1031.1875 2191.6803,1031.3516 Q2192.3288,1031.5156 2192.8756,1031.875 Z " fill="#000000"/><text fill="#000000" font-family="sans-serif" font-size="12" lengthAdjust="spacing" textLength="49" x="2210.61" y="1040.9102">SaleLine</text><line style="stroke:#A80036;stroke-width:1.5;" x1="2108.36" x2="2329.36" y1="1052" y2="1052"/><line style="stroke:#A80036;stroke-width:1.5;" x1="2108.36" x2="2329.36" y1="1060" y2="1060"/><ellipse cx="2118.36" cy="1071" fill="#84BE84" rx="3" ry="3" style="stroke:#038048;stroke-width:1.0;"/><text fill="#000000" font-family="sans-serif" font-size="11" lengthAdjust="spacing" textLength="120" x="2127.36" y="1075.4189">SaleLine( id: int,units :int)</text><ellipse cx="2118.36" cy="1084.8359" fill="#84BE84" rx="3" ry="3" style="stroke:#038048;stroke-width:1.0;"/><text fill="#000000" font-family="sans-serif" font-size="11" lengthAdjust="spacing" textLength="197" x="2127.36" y="1089.2549">accept( ticketVisitor : TicketVisitor) : void</text><ellipse cx="2118.36" cy="1098.6719" fill="#84BE84" rx="3" ry="3" style="stroke:#038048;stroke-width:1.0;"/><text fill="#000000" font-family="sans-serif" font-size="11" lengthAdjust="spacing" textLength="82" x="2127.36" y="1103.0908">toString() : String</text><!--MD5=[810a0223fb65d4082bc18ce3598f5b1b]
class RepetitionLine--><rect codeLine="159" fill="#FEFECE" filter="url(#f5zwni5abfu78)" height="89.5078" id="RepetitionLine" style="stroke:#A80036;stroke-width:1.5;" width="214" x="2620.86" y="1020"/><ellipse cx="2683.61" cy="1036" fill="#ADD1B2" rx="11" ry="11" style="stroke:#A80036;stroke-width:1.0;"/><path d="M2686.3756,1031.875 Q2686.5319,1031.6563 2686.7194,1031.5469 Q2686.9069,1031.4375 2687.1256,1031.4375 Q2687.5006,1031.4375 2687.735,1031.6953 Q2687.9694,1031.9531 2687.9694,1032.5625 L2687.9694,1034.0156 Q2687.9694,1034.625 2687.735,1034.8906 Q2687.5006,1035.1563 2687.1256,1035.1563 Q2686.7819,1035.1563 2686.5788,1034.9531 Q2686.3756,1034.7656 2686.2663,1034.25 Q2686.2194,1033.8906 2686.0319,1033.7031 Q2685.7038,1033.3281 2685.0944,1033.1094 Q2684.485,1032.8906 2683.86,1032.8906 Q2683.0944,1032.8906 2682.4616,1033.2188 Q2681.8288,1033.5469 2681.3366,1034.2969 Q2680.8444,1035.0469 2680.8444,1036.0781 L2680.8444,1037.1719 Q2680.8444,1038.4063 2681.735,1039.2266 Q2682.6256,1040.0469 2684.2194,1040.0469 Q2685.1569,1040.0469 2685.8131,1039.7969 Q2686.2038,1039.6406 2686.6256,1039.2031 Q2686.8913,1038.9375 2687.0397,1038.8594 Q2687.1881,1038.7813 2687.3913,1038.7813 Q2687.7194,1038.7813 2687.9772,1039.0391 Q2688.235,1039.2969 2688.235,1039.6406 Q2688.235,1039.9844 2687.8913,1040.3906 Q2687.3913,1040.9688 2686.5944,1041.2969 Q2685.5163,1041.75 2684.2194,1041.75 Q2682.7038,1041.75 2681.5006,1041.125 Q2680.5163,1040.625 2679.8288,1039.5547 Q2679.1413,1038.4844 2679.1413,1037.2031 L2679.1413,1036.0469 Q2679.1413,1034.7188 2679.7584,1033.5703 Q2680.3756,1032.4219 2681.4694,1031.8047 Q2682.5631,1031.1875 2683.7975,1031.1875 Q2684.5319,1031.1875 2685.1803,1031.3516 Q2685.8288,1031.5156 2686.3756,1031.875 Z " fill="#000000"/><text fill="#000000" font-family="sans-serif" font-size="12" lengthAdjust="spacing" textLength="80" x="2704.11" y="1040.9102">RepetitionLine</text><line style="stroke:#A80036;stroke-width:1.5;" x1="2621.86" x2="2833.86" y1="1052" y2="1052"/><line style="stroke:#A80036;stroke-width:1.5;" x1="2621.86" x2="2833.86" y1="1060" y2="1060"/><ellipse cx="2631.86" cy="1071" fill="#84BE84" rx="3" ry="3" style="stroke:#038048;stroke-width:1.0;"/><text fill="#000000" font-family="sans-serif" font-size="11" lengthAdjust="spacing" textLength="131" x="2640.86" y="1075.4189">RepetitionLine(number : int)</text><ellipse cx="2631.86" cy="1084.8359" fill="#84BE84" rx="3" ry="3" style="stroke:#038048;stroke-width:1.0;"/><text fill="#000000" font-family="sans-serif" font-size="11" lengthAdjust="spacing" textLength="188" x="2640.86" y="1089.2549">accept(ticketVisitor:TicketVisitor) : void</text><ellipse cx="2631.86" cy="1098.6719" fill="#84BE84" rx="3" ry="3" style="stroke:#038048;stroke-width:1.0;"/><text fill="#000000" font-family="sans-serif" font-size="11" lengthAdjust="spacing" textLength="82" x="2640.86" y="1103.0908">toString() : String</text><!--MD5=[adf42c7ae4cbfec979aa99775724e006]
class ReturnLine--><rect codeLine="165" fill="#FEFECE" filter="url(#f5zwni5abfu78)" height="89.5078" id="ReturnLine" style="stroke:#A80036;stroke-width:1.5;" width="220" x="2365.86" y="1020"/><ellipse cx="2441.11" cy="1036" fill="#ADD1B2" rx="11" ry="11" style="stroke:#A80036;stroke-width:1.0;"/><path d="M2443.8756,1031.875 Q2444.0319,1031.6563 2444.2194,1031.5469 Q2444.4069,1031.4375 2444.6256,1031.4375 Q2445.0006,1031.4375 2445.235,1031.6953 Q2445.4694,1031.9531 2445.4694,1032.5625 L2445.4694,1034.0156 Q2445.4694,1034.625 2445.235,1034.8906 Q2445.0006,1035.1563 2444.6256,1035.1563 Q2444.2819,1035.1563 2444.0788,1034.9531 Q2443.8756,1034.7656 2443.7663,1034.25 Q2443.7194,1033.8906 2443.5319,1033.7031 Q2443.2038,1033.3281 2442.5944,1033.1094 Q2441.985,1032.8906 2441.36,1032.8906 Q2440.5944,1032.8906 2439.9616,1033.2188 Q2439.3288,1033.5469 2438.8366,1034.2969 Q2438.3444,1035.0469 2438.3444,1036.0781 L2438.3444,1037.1719 Q2438.3444,1038.4063 2439.235,1039.2266 Q2440.1256,1040.0469 2441.7194,1040.0469 Q2442.6569,1040.0469 2443.3131,1039.7969 Q2443.7038,1039.6406 2444.1256,1039.2031 Q2444.3913,1038.9375 2444.5397,1038.8594 Q2444.6881,1038.7813 2444.8913,1038.7813 Q2445.2194,1038.7813 2445.4772,1039.0391 Q2445.735,1039.2969 2445.735,1039.6406 Q2445.735,1039.9844 2445.3913,1040.3906 Q2444.8913,1040.9688 2444.0944,1041.2969 Q2443.0163,1041.75 2441.7194,1041.75 Q2440.2038,1041.75 2439.0006,1041.125 Q2438.0163,1040.625 2437.3288,1039.5547 Q2436.6413,1038.4844 2436.6413,1037.2031 L2436.6413,1036.0469 Q2436.6413,1034.7188 2437.2584,1033.5703 Q2437.8756,1032.4219 2438.9694,1031.8047 Q2440.0631,1031.1875 2441.2975,1031.1875 Q2442.0319,1031.1875 2442.6803,1031.3516 Q2443.3288,1031.5156 2443.8756,1031.875 Z " fill="#000000"/><text fill="#000000" font-family="sans-serif" font-size="12" lengthAdjust="spacing" textLength="61" x="2461.61" y="1040.9102">ReturnLine</text><line style="stroke:#A80036;stroke-width:1.5;" x1="2366.86" x2="2584.86" y1="1052" y2="1052"/><line style="stroke:#A80036;stroke-width:1.5;" x1="2366.86" x2="2584.86" y1="1060" y2="1060"/><ellipse cx="2376.86" cy="1071" fill="#84BE84" rx="3" ry="3" style="stroke:#038048;stroke-width:1.0;"/><text fill="#000000" font-family="sans-serif" font-size="11" lengthAdjust="spacing" textLength="140" x="2385.86" y="1075.4189">ReturnLine( id : int, units : int)</text><ellipse cx="2376.86" cy="1084.8359" fill="#84BE84" rx="3" ry="3" style="stroke:#038048;stroke-width:1.0;"/><text fill="#000000" font-family="sans-serif" font-size="11" lengthAdjust="spacing" textLength="194" x="2385.86" y="1089.2549">accept(ticketVisitor : TicketVisitor) : void</text><ellipse cx="2376.86" cy="1098.6719" fill="#84BE84" rx="3" ry="3" style="stroke:#038048;stroke-width:1.0;"/><text fill="#000000" font-family="sans-serif" font-size="11" lengthAdjust="spacing" textLength="82" x="2385.86" y="1103.0908">toString() : String</text><!--MD5=[3e4d384f6cfac726d47fa130be66f269]
class CancellationLine--><rect codeLine="171" fill="#FEFECE" filter="url(#f5zwni5abfu78)" height="89.5078" id="CancellationLine" style="stroke:#A80036;stroke-width:1.5;" width="217" x="2870.36" y="1020"/><ellipse cx="2928.11" cy="1036" fill="#ADD1B2" rx="11" ry="11" style="stroke:#A80036;stroke-width:1.0;"/><path d="M2930.8756,1031.875 Q2931.0319,1031.6563 2931.2194,1031.5469 Q2931.4069,1031.4375 2931.6256,1031.4375 Q2932.0006,1031.4375 2932.235,1031.6953 Q2932.4694,1031.9531 2932.4694,1032.5625 L2932.4694,1034.0156 Q2932.4694,1034.625 2932.235,1034.8906 Q2932.0006,1035.1563 2931.6256,1035.1563 Q2931.2819,1035.1563 2931.0788,1034.9531 Q2930.8756,1034.7656 2930.7663,1034.25 Q2930.7194,1033.8906 2930.5319,1033.7031 Q2930.2038,1033.3281 2929.5944,1033.1094 Q2928.985,1032.8906 2928.36,1032.8906 Q2927.5944,1032.8906 2926.9616,1033.2188 Q2926.3288,1033.5469 2925.8366,1034.2969 Q2925.3444,1035.0469 2925.3444,1036.0781 L2925.3444,1037.1719 Q2925.3444,1038.4063 2926.235,1039.2266 Q2927.1256,1040.0469 2928.7194,1040.0469 Q2929.6569,1040.0469 2930.3131,1039.7969 Q2930.7038,1039.6406 2931.1256,1039.2031 Q2931.3913,1038.9375 2931.5397,1038.8594 Q2931.6881,1038.7813 2931.8913,1038.7813 Q2932.2194,1038.7813 2932.4772,1039.0391 Q2932.735,1039.2969 2932.735,1039.6406 Q2932.735,1039.9844 2932.3913,1040.3906 Q2931.8913,1040.9688 2931.0944,1041.2969 Q2930.0163,1041.75 2928.7194,1041.75 Q2927.2038,1041.75 2926.0006,1041.125 Q2925.0163,1040.625 2924.3288,1039.5547 Q2923.6413,1038.4844 2923.6413,1037.2031 L2923.6413,1036.0469 Q2923.6413,1034.7188 2924.2584,1033.5703 Q2924.8756,1032.4219 2925.9694,1031.8047 Q2927.0631,1031.1875 2928.2975,1031.1875 Q2929.0319,1031.1875 2929.6803,1031.3516 Q2930.3288,1031.5156 2930.8756,1031.875 Z " fill="#000000"/><text fill="#000000" font-family="sans-serif" font-size="12" lengthAdjust="spacing" textLength="93" x="2948.61" y="1040.9102">CancellationLine</text><line style="stroke:#A80036;stroke-width:1.5;" x1="2871.36" x2="3086.36" y1="1052" y2="1052"/><line style="stroke:#A80036;stroke-width:1.5;" x1="2871.36" x2="3086.36" y1="1060" y2="1060"/><ellipse cx="2881.36" cy="1071" fill="#84BE84" rx="3" ry="3" style="stroke:#038048;stroke-width:1.0;"/><text fill="#000000" font-family="sans-serif" font-size="11" lengthAdjust="spacing" textLength="142" x="2890.36" y="1075.4189">CancellationLine(number : int)</text><ellipse cx="2881.36" cy="1084.8359" fill="#84BE84" rx="3" ry="3" style="stroke:#038048;stroke-width:1.0;"/><text fill="#000000" font-family="sans-serif" font-size="11" lengthAdjust="spacing" textLength="191" x="2890.36" y="1089.2549">accept(ticketVisitor :TicketVisitor) : void</text><ellipse cx="2881.36" cy="1098.6719" fill="#84BE84" rx="3" ry="3" style="stroke:#038048;stroke-width:1.0;"/><text fill="#000000" font-family="sans-serif" font-size="11" lengthAdjust="spacing" textLength="82" x="2890.36" y="1103.0908">toString() : String</text><!--MD5=[06b646c3748157a7f2bd666717fde722]
class ThereeXTwoOfertOperation--><rect fill="#FEFECE" filter="url(#f5zwni5abfu78)" height="48" id="ThereeXTwoOfertOperation" style="stroke:#A80036;stroke-width:1.5;" width="181" x="1149.36" y="477.5"/><ellipse cx="1164.36" cy="493.5" fill="#ADD1B2" rx="11" ry="11" style="stroke:#A80036;stroke-width:1.0;"/><path d="M1167.1256,489.375 Q1167.2819,489.1563 1167.4694,489.0469 Q1167.6569,488.9375 1167.8756,488.9375 Q1168.2506,488.9375 1168.485,489.1953 Q1168.7194,489.4531 1168.7194,490.0625 L1168.7194,491.5156 Q1168.7194,492.125 1168.485,492.3906 Q1168.2506,492.6563 1167.8756,492.6563 Q1167.5319,492.6563 1167.3288,492.4531 Q1167.1256,492.2656 1167.0163,491.75 Q1166.9694,491.3906 1166.7819,491.2031 Q1166.4538,490.8281 1165.8444,490.6094 Q1165.235,490.3906 1164.61,490.3906 Q1163.8444,490.3906 1163.2116,490.7188 Q1162.5788,491.0469 1162.0866,491.7969 Q1161.5944,492.5469 1161.5944,493.5781 L1161.5944,494.6719 Q1161.5944,495.9063 1162.485,496.7266 Q1163.3756,497.5469 1164.9694,497.5469 Q1165.9069,497.5469 1166.5631,497.2969 Q1166.9538,497.1406 1167.3756,496.7031 Q1167.6413,496.4375 1167.7897,496.3594 Q1167.9381,496.2813 1168.1413,496.2813 Q1168.4694,496.2813 1168.7272,496.5391 Q1168.985,496.7969 1168.985,497.1406 Q1168.985,497.4844 1168.6413,497.8906 Q1168.1413,498.4688 1167.3444,498.7969 Q1166.2663,499.25 1164.9694,499.25 Q1163.4538,499.25 1162.2506,498.625 Q1161.2663,498.125 1160.5788,497.0547 Q1159.8913,495.9844 1159.8913,494.7031 L1159.8913,493.5469 Q1159.8913,492.2188 1160.5084,491.0703 Q1161.1256,489.9219 1162.2194,489.3047 Q1163.3131,488.6875 1164.5475,488.6875 Q1165.2819,488.6875 1165.9303,488.8516 Q1166.5788,489.0156 1167.1256,489.375 Z " fill="#000000"/><text fill="#000000" font-family="sans-serif" font-size="12" lengthAdjust="spacing" textLength="149" x="1178.36" y="498.4102">ThereeXTwoOfertOperation</text><line style="stroke:#A80036;stroke-width:1.5;" x1="1150.36" x2="1329.36" y1="509.5" y2="509.5"/><line style="stroke:#A80036;stroke-width:1.5;" x1="1150.36" x2="1329.36" y1="517.5" y2="517.5"/><!--MD5=[422f85ca100a5abc620698c9cab126db]
link TicketVisitor to Header--><path codeLine="178" d="M2385.33,84.78 C1910.84,114.23 213,231.56 59.86,411 C7.64,472.19 6,532.24 59.86,592 C126.7,666.16 795.72,696.57 1070.74,706 " fill="none" id="TicketVisitor-to-Header" style="stroke:#A80036;stroke-width:1.0;stroke-dasharray:7.0,7.0;"/><polygon fill="#A80036" points="1075.96,706.18,1067.1028,701.8731,1070.963,706.0082,1066.8279,709.8684,1075.96,706.18" style="stroke:#A80036;stroke-width:1.0;"/><!--MD5=[b4e5479c26882a10120095b5a7a6d034]
link TicketVisitor to Line--><path codeLine="179" d="M2630.47,137.19 C2636.69,140.18 2642.84,143.13 2648.86,146 C2705.56,173.06 2743.03,153.06 2776.86,206 C2869.24,350.56 2858.76,440.72 2777.86,592 C2764.1,617.73 2741.95,638.8 2717.93,655.63 " fill="none" id="TicketVisitor-to-Line" style="stroke:#A80036;stroke-width:1.0;stroke-dasharray:7.0,7.0;"/><polygon fill="#A80036" points="2713.74,658.5,2723.4225,656.6974,2717.8602,655.6674,2718.8903,650.1051,2713.74,658.5" style="stroke:#A80036;stroke-width:1.0;"/><text fill="#000000" font-family="sans-serif" font-size="13" lengthAdjust="spacing" textLength="36" x="2720.1814" y="652.0356">-footer</text><!--MD5=[35a508eb87b9cbd9480393853adba824]
link TicketVisitor to Footer--><path codeLine="180" d="M2630.45,138.29 C2636.64,140.97 2642.8,143.56 2648.86,146 C2729.04,178.3 2780.17,138.26 2833.86,206 C2937.81,337.15 2910.15,552.45 2889.31,653.65 " fill="none" id="TicketVisitor-to-Footer" style="stroke:#A80036;stroke-width:1.0;stroke-dasharray:7.0,7.0;"/><polygon fill="#A80036" points="2888.26,658.67,2894.0236,650.6837,2889.2872,653.7766,2886.1942,649.0402,2888.26,658.67" style="stroke:#A80036;stroke-width:1.0;"/><!--MD5=[8863644c99f9e33bf6df3d4d8a526bea]
reverse link TicketVisitor to Ticket--><path codeLine="181" d="M2507.58,151.42 C2515.06,206.52 2529.88,283.56 2543.86,351 C2548.63,374.03 2554.05,399.01 2559.8,421.83 " fill="none" id="TicketVisitor-backto-Ticket" style="stroke:#A80036;stroke-width:1.0;"/><polygon fill="#A80036" points="2506.88,146.16,2504.0974,155.6076,2507.5371,151.1166,2512.028,154.5563,2506.88,146.16" style="stroke:#A80036;stroke-width:1.0;"/><text fill="#000000" font-family="sans-serif" font-size="13" lengthAdjust="spacing" textLength="115" x="2385.8493" y="167.6715">-lineTicketOperation</text><!--MD5=[8863644c99f9e33bf6df3d4d8a526bea]
reverse link TicketVisitor to Ticket--><path codeLine="182" d="M2536.47,151.09 C2550,206.2 2564.86,283.42 2578.86,351 C2583.63,374.03 2589.05,399.01 2593.35,421.83 " fill="none" id="TicketVisitor-backto-Ticket-1" style="stroke:#A80036;stroke-width:1.0;"/><polygon fill="#A80036" points="2535.25,146.16,2533.5523,155.8614,2536.4627,151.0107,2541.3134,153.9211,2535.25,146.16" style="stroke:#A80036;stroke-width:1.0;"/><text fill="#000000" font-family="sans-serif" font-size="13" lengthAdjust="spacing" textLength="129" x="2544.7262" y="167.6715">-globalTicketOperation</text><!--MD5=[fc203a4e89476fa0197cb6214b0bd059]
reverse link TicketVisitor to TicketOperation--><path codeLine="183" d="M2365.5,105.41 C2164.4,144.84 1800.55,216.19 1610.68,253.42 " fill="none" id="TicketVisitor-backto-TicketOperation" style="stroke:#A80036;stroke-width:1.0;"/><polygon fill="none" points="2364.36,98.5,2385.33,101.53,2367.05,112.24,2364.36,98.5" style="stroke:#A80036;stroke-width:1.0;"/><!--MD5=[4f28311278cc97b3283a5042a9b8c754]
reverse link TicketOperation to TicketOperationComposite--><path codeLine="184" d="M1475.64,356.65 C1475.07,374.17 1474.96,392.93 1475.32,410.92 " fill="none" id="TicketOperation-backto-TicketOperationComposite" style="stroke:#A80036;stroke-width:1.0;"/><polygon fill="#A80036" points="1475.83,351.25,1471.5231,360.1072,1475.6582,356.247,1479.5184,360.3821,1475.83,351.25" style="stroke:#A80036;stroke-width:1.0;"/><text fill="#000000" font-family="sans-serif" font-size="13" lengthAdjust="spacing" textLength="113" x="1356.2982" y="372.4654">-ticketOperationList</text><!--MD5=[4f28311278cc97b3283a5042a9b8c754]
reverse link TicketOperation to TicketOperationComposite--><path codeLine="185" d="M1501.19,371.39 C1501.43,384.46 1501.42,397.9 1501.14,410.92 " fill="none" id="TicketOperation-backto-TicketOperationComposite-1" style="stroke:#A80036;stroke-width:1.0;"/><polygon fill="none" points="1494.19,371.45,1500.59,351.25,1508.18,371.04,1494.19,371.45" style="stroke:#A80036;stroke-width:1.0;"/><!--MD5=[d9442aa7828225b94ecd079888da8356]
reverse link TicketOperation to TaxPrinterOperation--><path codeLine="186" d="M1594.81,363.92 C1625.03,387.77 1657.42,413.33 1685.92,435.83 " fill="none" id="TicketOperation-backto-TaxPrinterOperation" style="stroke:#A80036;stroke-width:1.0;"/><polygon fill="none" points="1590.13,369.14,1578.77,351.25,1598.8,358.15,1590.13,369.14" style="stroke:#A80036;stroke-width:1.0;"/><!--MD5=[f18660f674e463a4855aab81bc61c610]
reverse link TicketOperation to DisplayViewerOperation--><path codeLine="187" d="M1345.22,283.02 C1169.39,291.4 863.91,319.25 619.86,411 C602.58,417.5 585.19,426.34 568.82,435.95 " fill="none" id="TicketOperation-backto-DisplayViewerOperation" style="stroke:#A80036;stroke-width:1.0;"/><polygon fill="none" points="1344.93,276.03,1365.22,282.13,1345.56,290.02,1344.93,276.03" style="stroke:#A80036;stroke-width:1.0;"/><!--MD5=[b3dd725856bdc3b5a183c7f3815d7a2f]
reverse link TicketOperation to BackupOperation--><path codeLine="188" d="M1630.22,309.91 C1714.13,331.23 1820.59,364.34 1907.86,411 C1921.07,418.06 1934.23,426.78 1946.64,435.99 " fill="none" id="TicketOperation-backto-BackupOperation" style="stroke:#A80036;stroke-width:1.0;"/><polygon fill="none" points="1628.49,316.69,1610.77,305.08,1631.87,303.11,1628.49,316.69" style="stroke:#A80036;stroke-width:1.0;"/><!--MD5=[e78e727e5c6a40e416d6662319d477c5]
reverse link TicketOperation to ClientPrinterOperation--><path codeLine="189" d="M1345.49,297.14 C1223.71,315.53 1045.54,350.36 899.86,411 C883.48,417.82 866.89,426.52 851.14,435.82 " fill="none" id="TicketOperation-backto-ClientPrinterOperation" style="stroke:#A80036;stroke-width:1.0;"/><polygon fill="none" points="1344.48,290.21,1365.29,294.22,1346.52,304.06,1344.48,290.21" style="stroke:#A80036;stroke-width:1.0;"/><!--MD5=[db5ff064ba1d7e71583b97d6f6c5a554]
reverse link TicketOperation to PriceCalculatorOperation--><path codeLine="190" d="M1630.28,293.71 C1763.1,310.41 1964.8,344.72 2128.86,411 C2149.69,419.42 2170.84,430.94 2190.19,442.92 " fill="none" id="TicketOperation-backto-PriceCalculatorOperation" style="stroke:#A80036;stroke-width:1.0;"/><polygon fill="none" points="1629.39,300.65,1610.39,291.27,1631.09,286.76,1629.39,300.65" style="stroke:#A80036;stroke-width:1.0;"/><!--MD5=[da45c1a9d790a75ce18b139fea035dea]
reverse link TicketOperation to ThereeXTwoOfertOperation--><path codeLine="191" d="M1392.15,364.79 C1346.63,405.35 1295.74,450.7 1265.83,477.36 " fill="none" id="TicketOperation-backto-ThereeXTwoOfertOperation" style="stroke:#A80036;stroke-width:1.0;"/><polygon fill="none" points="1387.75,359.33,1407.34,351.25,1397.07,369.78,1387.75,359.33" style="stroke:#A80036;stroke-width:1.0;"/><!--MD5=[79fad71e8ac620d69a5ade40bb891cb7]
reverse link TicketOperation to ScreenViewerOperation--><path codeLine="192" d="M1345.03,287.8 C1079.86,304.53 521.9,346.31 339.86,411 C322.19,417.28 304.47,426.14 287.86,435.86 " fill="none" id="TicketOperation-backto-ScreenViewerOperation" style="stroke:#A80036;stroke-width:1.0;"/><polygon fill="none" points="1344.75,280.8,1365.14,286.54,1345.62,294.77,1344.75,280.8" style="stroke:#A80036;stroke-width:1.0;"/><!--MD5=[2c702c3d1858621d4d8e07c6ef0c875b]
reverse link TicketOperation to TotalPriceCalculatorOperation--><path codeLine="193" d="M1345.76,320.98 C1278.78,343.26 1199.02,373.83 1131.86,411 C1098.03,429.72 1063.48,457.76 1040.99,477.46 " fill="none" id="TicketOperation-backto-TotalPriceCalculatorOperation" style="stroke:#A80036;stroke-width:1.0;"/><polygon fill="none" points="1344.02,314.18,1365.2,314.62,1348.37,327.49,1344.02,314.18" style="stroke:#A80036;stroke-width:1.0;"/><!--MD5=[e41d35a5183e23edb1a473a7405d0364]
link TicketOperation to Ticket--><path codeLine="194" d="M1610.56,284.9 C1789.76,295.47 2131.96,325.89 2409.86,411 C2418.67,413.7 2427.59,416.77 2436.5,420.11 " fill="none" id="TicketOperation-to-Ticket" style="stroke:#A80036;stroke-width:1.0;"/><polygon fill="#A80036" points="2441.44,421.99,2434.443,415.0588,2436.7648,420.2172,2431.6065,422.539,2441.44,421.99" style="stroke:#A80036;stroke-width:1.0;"/><text fill="#000000" font-family="sans-serif" font-size="13" lengthAdjust="spacing" textLength="11" x="1618.5553" y="282.3213">1.</text><text fill="#000000" font-family="sans-serif" font-size="13" lengthAdjust="spacing" textLength="32" x="1633.5553" y="282.3213">ticket</text><!--MD5=[8bf2187686c37c46c0b68ce8cb633e27]
link Supermarket to Ticket--><path codeLine="195" d="M2651.65,330.2 C2642.95,355.86 2632.15,387.68 2622.25,416.84 " fill="none" id="Supermarket-to-Ticket" style="stroke:#A80036;stroke-width:1.0;stroke-dasharray:7.0,7.0;"/><polygon fill="#A80036" points="2620.54,421.87,2627.2266,414.6388,2622.151,417.1367,2619.6532,412.0611,2620.54,421.87" style="stroke:#A80036;stroke-width:1.0;"/><!--MD5=[97e53a630fa7331f1d21b1cf860327ba]
link Ticket to Header--><path codeLine="196" d="M2442.9,581.08 C2431.88,585.21 2420.8,588.92 2409.86,592 C2203.7,650.01 1568.15,689.35 1304.42,703.59 " fill="none" id="Ticket-to-Header" style="stroke:#A80036;stroke-width:1.0;"/><polygon fill="#A80036" points="1299.41,703.86,1308.6141,707.3648,1304.4026,703.5882,1308.1792,699.3767,1299.41,703.86" style="stroke:#A80036;stroke-width:1.0;"/><text fill="#000000" font-family="sans-serif" font-size="13" lengthAdjust="spacing" textLength="43" x="2385.0792" y="602.1301">-header</text><!--MD5=[4e1eb8d079ebff18bbd1ae92d38764b2]
link Ticket to Line--><path codeLine="197" d="M2596.9,581.05 C2597.74,602.77 2598.63,626.05 2599.43,646.74 " fill="none" id="Ticket-to-Line" style="stroke:#A80036;stroke-width:1.0;"/><polygon fill="#A80036" points="2599.64,651.95,2603.2771,642.7973,2599.4402,646.954,2595.2835,643.1171,2599.64,651.95" style="stroke:#A80036;stroke-width:1.0;"/><text fill="#000000" font-family="sans-serif" font-size="13" lengthAdjust="spacing" textLength="65" x="2530.4085" y="641.3448">-lineList 0.*</text><!--MD5=[33069e519447c396859c39364a6e0bba]
link Ticket to Footer--><path codeLine="198" d="M2700.87,581.05 C2734.87,606.01 2771.67,633.02 2802.72,655.81 " fill="none" id="Ticket-to-Footer" style="stroke:#A80036;stroke-width:1.0;"/><polygon fill="#A80036" points="2806.86,658.85,2801.9914,650.2886,2802.8362,655.8821,2797.2427,656.7268,2806.86,658.85" style="stroke:#A80036;stroke-width:1.0;"/><!--MD5=[76264fcc3ac0cf86c218c3379dccfba6]
reverse link Line to IdLine--><path codeLine="199" d="M2550.29,785.99 C2540.49,800.15 2530.3,814.86 2520.73,828.69 " fill="none" id="Line-backto-IdLine" style="stroke:#A80036;stroke-width:1.0;"/><polygon fill="none" points="2544.85,781.55,2561.99,769.09,2556.36,789.51,2544.85,781.55" style="stroke:#A80036;stroke-width:1.0;"/><!--MD5=[ef0930e3c06f8f8d9d3f9257c1c2ea20]
reverse link Line to NumberLine--><path codeLine="200" d="M2653.16,785.6 C2666.45,804.8 2680.47,825.04 2692.72,842.74 " fill="none" id="Line-backto-NumberLine" style="stroke:#A80036;stroke-width:1.0;"/><polygon fill="none" points="2647.36,789.51,2641.73,769.09,2658.87,781.55,2647.36,789.51" style="stroke:#A80036;stroke-width:1.0;"/><!--MD5=[f18de639dacecbdd8b6ac9a27237d7c6]
reverse link IdLine to SaleLine--><path codeLine="201" d="M2389.19,952.32 C2355.6,974.35 2317.73,999.18 2286.24,1019.82 " fill="none" id="IdLine-backto-SaleLine" style="stroke:#A80036;stroke-width:1.0;"/><polygon fill="none" points="2385.75,946.21,2406.31,941.1,2393.42,957.92,2385.75,946.21" style="stroke:#A80036;stroke-width:1.0;"/><!--MD5=[7d14efd91837e201f8881d1fadad2bf2]
reverse link IdLine to ReturnLine--><path codeLine="202" d="M2475.86,980.62 C2475.86,994.2 2475.86,1007.75 2475.86,1019.86 " fill="none" id="IdLine-backto-ReturnLine" style="stroke:#A80036;stroke-width:1.0;"/><polygon fill="none" points="2468.86,980.16,2475.86,960.16,2482.86,980.16,2468.86,980.16" style="stroke:#A80036;stroke-width:1.0;"/><!--MD5=[ff22cc6d09f87d6ad1db4ae67fee121e]
reverse link NumberLine to RepetitionLine--><path codeLine="203" d="M2727.86,966.34 C2727.86,984.46 2727.86,1003.42 2727.86,1019.77 " fill="none" id="NumberLine-backto-RepetitionLine" style="stroke:#A80036;stroke-width:1.0;"/><polygon fill="none" points="2720.86,966.06,2727.86,946.06,2734.86,966.06,2720.86,966.06" style="stroke:#A80036;stroke-width:1.0;"/><!--MD5=[c006f3b3f6eedcd8ae1933f52d066849]
reverse link NumberLine to CancellationLine--><path codeLine="204" d="M2819.95,957.32 C2850.79,978.03 2884.54,1000.68 2912.97,1019.77 " fill="none" id="NumberLine-backto-CancellationLine" style="stroke:#A80036;stroke-width:1.0;"/><polygon fill="none" points="2815.87,963.01,2803.17,946.06,2823.68,951.39,2815.87,963.01" style="stroke:#A80036;stroke-width:1.0;"/><!--MD5=[87b43239d3d460b520e5501d6ad80af7]
@startuml visitorComposite

class  TicketVisitor <<visitor>> {
+ visit (saleLine : SaleLine) : void
+ visit ( repetitionLine : RepititionLine) : void
+ visit (cancelationLine : CancelationLine) : void
+ visit ( returnLine : ReturnLine) : void
+ visit (footer : Footer) : void
+ visit (head) : void
}

class TicketOperation {
+ set ( ticket : Ticket) : void
+ visit (saleLine : SaleLine) : void
+ visit ( repetitionLine : RepititionLine) : void
+ visit (cancelationLine : CancelationLine) : void
+ visit ( returnLine : ReturnLine) : void
+ visit (footer : Footer) : void
+ visit (head) : void
}

class TicketOperationComposite <<composite>> {
+ TicketOperationComposite()
+ add (ticketOperation : TicketOperation) : void
+ set (ticket : Ticket) : void
+ visit (saleLine : SaleLine) : void
+ visit ( repetitionLine : RepititionLine) : void
+ visit (cancelationLine : CancelationLine) : void
+ visit ( returnLine : ReturnLine) : void
+ visit (footer : Footer) : void
+ visit (head) : void
}

class TaxPrinterOperation {
+ visit (saleLine : SaleLine) : void
+ visit ( repetitionLine : RepititionLine) : void
+ visit (cancelationLine : CancelationLine) : void
+ visit ( returnLine : ReturnLine) : void
+ visit (footer : Footer) : void
+ visit (head) : void
}

class BackupOperation {
+ visit (line : SaleLine) : void
+ visit ( line : RepititionLine) : void
+ visit (line : CancelationLine) : void
+ visit (line : ReturnLine) : void
+ visit (footer : Footer) : void
+ visit (head) : void
}

class PriceCalculatorOperation {
+ PriceCalculatorOperation (ticket : Ticket)
+ visit (saleLine : SaleLine) : void
+ visit ( repetitionLine : RepititionLine) : void
+ visit (cancelationLine : CancelationLine) : void
+ visit ( returnLine : ReturnLine) : void
}

class ScreenViewerOperation {
+ visit (saleLine : SaleLine) : void
+ visit ( repetitionLine : RepititionLine) : void
+ visit (cancelationLine : CancelationLine) : void
+ visit ( returnLine : ReturnLine) : void
+ visit (footer : Footer) : void
+ visit (head) : void
}

class DisplayViewerOperation {
+ visit (saleLine : SaleLine) : void
+ visit ( repetitionLine : RepititionLine) : void
+ visit (cancelationLine : CancelationLine) : void
+ visit ( returnLine : ReturnLine) : void
+ visit (footer : Footer) : void
+ visit (head) : void
}

class ClientPrinterOperation {
+ visit (saleLine : SaleLine) : void
+ visit ( repetitionLine : RepititionLine) : void
+ visit (cancelationLine : CancelationLine) : void
+ visit ( returnLine : ReturnLine) : void
+ visit (footer : Footer) : void
+ visit (head) : void
}

class ThreeXTwoOfertOperation {
+ visit (line : SaleLine) : void
+ visit (line : RepititionLine) : void
+ visit (line : CancelationLine) : void
+ visit (line : ReturnLine) : void
+ visit (footer : Footer) : void
+ visit (head) : void
}

class TotalPriceCalculatorOperation

class Supermarket {
- {abstract}CLOSING TIME : double = 20.0
- Supermarket()
-sell(): void
+ {abstract}main (args : String "II") : void
}

class Ticket {
+ add (line : Line) : void
+ lines() : int
+ getLine (number : int) : Line
+ close() : void
+ toString() : String
+ Ticket ( header, footer: Footer)
+ setLineTicketOperation (lineTicketOperation : TicketVisitor) :void
+ open() : void
}

class Header {
+ head()
+ getdate() : Date
+ accept (ticketVisitor : TicketVisitor) : void
+ toString() : String
}

class Line {
# price : int
+ setPrice (price : int) : void
+ getPrice() : int
+ accept (ticketVisitor : TicketVisitor) : void
+ toString() : String 
}

class Footer {
- totalPrice : int
+ accept (ticketVisitor : TicketVisitor) : void
+ getTotalPrice() : int
+ toString : String
}

class IdLine {
#id : int
#units : int
#IdLine (id : int,units : int)
+ getId() : int
+ getUnits() : int
+ toString() : String
}

class NumberLine {
# number : int
# NumberLine (number : int)
+ getNumber() : int
+ toString() : String
}

class SaleLine {
+ SaleLine( id: int,units :int)
+ accept( ticketVisitor : TicketVisitor) : void
+ toString() : String
}

class RepetitionLine {
+ RepetitionLine(number : int)
+ accept(ticketVisitor:TicketVisitor) : void
+ toString() : String
}

class ReturnLine {
+ ReturnLine( id : int, units : int)
+ accept(ticketVisitor : TicketVisitor) : void
+ toString() : String
}

class CancellationLine {
+ CancellationLine(number : int)
+ accept(ticketVisitor :TicketVisitor) : void
+ toString() : String
}


TicketVisitor ..> Header
TicketVisitor ..> "-footer" Line
TicketVisitor ..> Footer
TicketVisitor "-lineTicketOperation" <- - Ticket
TicketVisitor "-globalTicketOperation" <- - Ticket
TicketVisitor <|- - TicketOperation
TicketOperation"-ticketOperationList" <- - TicketOperationComposite
TicketOperation <|- - TicketOperationComposite
TicketOperation <|- - TaxPrinterOperation
TicketOperation <|- - DisplayViewerOperation
TicketOperation <|- - BackupOperation
TicketOperation <|- - ClientPrinterOperation
TicketOperation <|- - PriceCalculatorOperation
TicketOperation <|- - ThereeXTwoOfertOperation
TicketOperation <|- - ScreenViewerOperation
TicketOperation <|- - TotalPriceCalculatorOperation
TicketOperation "#ticket" - -> Ticket
Supermarket ..> Ticket
Ticket "-header" - -> Header
Ticket - -> "-lineList 0.*" Line
Ticket - -> Footer
Line <|- - IdLine
Line <|- - NumberLine
IdLine <|- - SaleLine
IdLine <|- - ReturnLine
NumberLine <|- - RepetitionLine
NumberLine <|- - CancellationLine

@enduml

PlantUML version 1.2021.7(Sun May 23 14:40:07 CEST 2021)
(GPL source distribution)
Java Runtime: Java(TM) SE Runtime Environment
JVM: Java HotSpot(TM) 64-Bit Server VM
Default Encoding: Cp1252
Language: es
Country: ES
--></g></svg>